<svg id="Lag_1" data-name="Lag 1" xmlns="http://www.w3.org/2000/svg" xmlns:xlink="http://www.w3.org/1999/xlink" width="360" height="130" viewBox="0 0 360 130"><defs><style>.cls-1{fill:#b6cbdd;}.cls-2{fill:url(#Ikke-navngivet_forløb_47);}</style><linearGradient id="Ikke-navngivet_forløb_47" x1="36.75" y1="65.5" x2="304.5" y2="65.5" gradientUnits="userSpaceOnUse"><stop offset="0" stop-color="#3fa9f5"/><stop offset="0.2" stop-color="#9285bb"/><stop offset="0.4" stop-color="#ff7bac"/><stop offset="0.6" stop-color="#ef997b"/><stop offset="0.8" stop-color="#fcee21"/><stop offset="1" stop-color="#8cc63f"/></linearGradient></defs><title>energi</title><path class="cls-1" d="M302,48.66H104.19a.94.94,0,0,1-.86-.56,41.77,41.77,0,1,0-1.1,36.53,1,1,0,0,1,.84-.51H302a15.55,15.55,0,0,0,15.5-15.5V64.16A15.54,15.54,0,0,0,302,48.66Z"/><path class="cls-2" d="M291.55,53.38H95.24a30.51,30.51,0,1,0-.79,25.91h197.1a13,13,0,0,0,12.95-13h0A13,13,0,0,0,291.55,53.38Z"/></svg>
