<svg id="Lag_1" data-name="Lag 1" xmlns="http://www.w3.org/2000/svg" width="800" height="500" viewBox="0 0 800 500"><defs><style>.cls-1{fill:#ce4a4a;}</style></defs><title>Game_Over</title><path class="cls-1" d="M274,85.27c0-6.32,1.44-18.56,8.4-21.92,4-1.92,14.4-1.12,14.4,5.28,0,1-.4,2-1.76,2-2.88,0-3.92-4.32-8-4.32h-.32c-7.44.4-8.72,11.6-8.72,17.6v1.6c.4,8,.4,13.92,2.08,21.44.8,3.76,3,7.76,7.6,7.76h.4c7.28-.4,7.52-9.92,7.28-14.48l-.64-11.84c-2.32,0-4.64.64-7.2.4-.72-.48-1-2.48-1-2.56,0-2.4,5.52-1.92,10.72-2,2.4.64,2.08,4.64,2.32,9.6v.8c.48,8.72,1.2,23.52-10.4,24.08a10.68,10.68,0,0,1-1.6,0C276.83,119.35,274,106.15,274,85.27Z"/><path class="cls-1" d="M311.47,60.63c.48-7.36,5.28-5.44,6.64,0,2,8,3.52,15.28,12.24,57.68,0,1.76-2.4,3.12-3.84.56l-2.88-14.4-10.8,1.6c-.64,3.76-1.2,10.88-1.36,14.24-.16,1.92-3.6,1.44-3.52,0ZM313,97.91c-.08.56-.16,3.68-.16,4.32l10-1.44L315,65.19C314.67,70.07,313.23,93,313,97.91Z"/><path class="cls-1" d="M337.39,79.51c.32-12.88,1.36-22.16,3.44-22.16a.48.48,0,0,1,.32.08c.4.4,2.24.64,2.72,2.64,1.44,5.84,3.6,16.48,8.32,23.2.56-.48,3.6-5.76,5.2-8.64l.4-.64a97.74,97.74,0,0,0,6.88-14.4A2.3,2.3,0,0,1,367,58.15a4.38,4.38,0,0,1,2.72,1.2c-.56,17.76-.24,35.6-.64,53.36l-.08,3.84a2.87,2.87,0,0,1-2.56,1.92,3,3,0,0,1-1.84-1.12l.08-4.72c.32-14.48-.32-29,.24-43.44-1.92,3.44-3.84,6.88-5.52,10.48-.72,1.2-4,7.76-4.72,9.36-.48,1-2.64,3.52-3.84.8-8-18.16-8.24-18.16-8.32-18.16-1.76,14.48-1.92,29.28-2.08,43.92a1.85,1.85,0,0,1-1.68,1.52,3.76,3.76,0,0,1-2.24-1.12Z"/><path class="cls-1" d="M378.83,109.11V93.27c0-11.44-1.12-18.8-1.12-30.24V59c12.8-1,14.24-.16,14.24,1.6,0,.56-.4,1.76-1,2h-8.72c-.56,0-.56.4-.56.64,0,8.48.8,14.72,1.28,23.44,1.2.32,7.92.08,9.28.08,2.72.08,4.56,4.72.88,4.72H383l.16,18.72c1.92.48,12.08-1.52,12.08,2a1.93,1.93,0,0,1-1.52,2.08h-.4c-3,.24-14.32,1.12-14.4-1.2Z"/><path class="cls-1" d="M440.59,58c17.76,0,20.16,56.88,2.56,58.4-.32,0-.64.08-1,.08-6.72,0-10.4-4-12.32-11.36C428.83,100.31,420.51,58,440.59,58Zm-6.88,43.44c.64,2.64,3.28,10.24,7.28,10.64a3.8,3.8,0,0,0,1,0c5.36-.48,7.12-9.84,7.84-13.6,1.28-6.4,2.32-36.08-9-36.08h-.64C428,63.51,432.19,95.59,433.71,101.43Z"/><path class="cls-1" d="M456.43,60.15l-.08-.48c0-1.2,1.52-1.6,2.56-1.68,2.48,0,2.72,1.76,3.2,4.16,2.24,11.92,5,25.12,9.52,44.56l8.08-45.44a2.75,2.75,0,0,1,2.48-2.08c1.28,0,2.48.48,2.56,2.08l-9,45.84c-.4,1.28-2.16,11.68-3.68,11.68a.29.29,0,0,0-.24.08c-.8-.16-1.6,0-2.08-1.12C465.07,98.63,461.71,79.19,456.43,60.15Z"/><path class="cls-1" d="M493.87,109.11V93.27c0-11.44-1.12-18.8-1.12-30.24V59c12.8-1,14.24-.16,14.24,1.6,0,.56-.4,1.76-1,2h-8.72c-.56,0-.56.4-.56.64,0,8.48.8,14.72,1.28,23.44,1.2.32,7.92.08,9.28.08,2.72.08,4.56,4.72.88,4.72H498l.16,18.72c1.92.48,12.08-1.52,12.08,2a1.93,1.93,0,0,1-1.52,2.08h-.4c-3,.24-14.32,1.12-14.4-1.2Z"/><path class="cls-1" d="M519.39,85.43c0-2.48-.4-17-.56-20.8,0-.8-.48-7.84-.56-8.72v-.32c0-1.84,2.08-2.32,3.68-2.32,11,0,15,7.92,15,17.12,0,7.36-2.8,11.84-7.92,15.52C538.19,90,540.43,103,540.43,112c0,1.44-.88,2-2.32,2-1,0-1.36,0-1.76-1.28-.4-6-1.92-23-11.2-23-.08,0-.64.08-.8.08-.88,9-.16,18.16-.72,27.28a2.58,2.58,0,0,1-4.24,0C519.47,112.31,519.47,90.23,519.39,85.43Zm4.4-1.92c5.68-1.12,8.8-7.36,8.8-12.4,0-4.24-1.76-13-7.52-13-.32,0-2.8,0-2.8.64Z"/><path class="cls-1" d="M550.83,55.75c1.12,0,2.48.16,2.72,1.6.08,1.2.48,6.88.48,8.08,0,16.56,1.76,26.08,1.76,42.72,0,1.12,0,2.48-1.52,2.48-2.56,0-2.64-3.12-2.72-5v-.4c-1.12-18.32-.8-29.6-2.8-47.84C549.23,56.15,549.55,55.75,550.83,55.75Zm2.72,58.8a3.62,3.62,0,0,1,3.6,3.92c0,1.76-1.68,2-3.2,2-2,0-3.12-1.28-3.12-3.52C550.83,115.91,552.59,114.55,553.55,114.55Z"/><path class="cls-1" d="M123.43,152.63h.32c14.4.64,16.4,17.52,16.4,29.2,0,1.2-.08,2.4-.08,3.44-.4,15.2-4.72,27.44-18.32,27.44a17.22,17.22,0,0,1-3.44-.32s.08-9,.16-12.64c.24-10.24.64-19.92,1-30.32.08-1.36.24-13,.32-14.56l.08-.48C120,153,122.23,152.63,123.43,152.63Zm-.88,56.56a6.93,6.93,0,0,0,.88.08c10.16,0,11.84-17.12,12.16-23.68.4-7.52.08-27.52-11.2-28.48Z"/><path class="cls-1" d="M161.67,211.59a18.56,18.56,0,0,1-1.92-.16c-9.84-1.2-10.56-25.52-11.36-53.52l-.16-3.92v-.4c0-1.76,4.24-1.68,4.8-.08,1.36,2.32-2.16,54.4,8.8,54.4,2.8,0,3.68-4.56,3.76-6.72.24-9.92.08-32.24-.32-47.68.4-1.28.88-1.44,2.32-1.44,1.28,0,2.4.24,2.48,1.6.4,14.08-.24,28.32.16,43C170.07,203.67,170,211.59,161.67,211.59Z"/><path class="cls-1" d="M202.23,151.27c.48-.64,3-1.6,3.68-1a5.5,5.5,0,0,1,1.52,1.52l6.8,49.28c2.64-14.64,5.44-33.12,8-47.76,0-2.72,1.12-3.12,2.56-3.12a2.24,2.24,0,0,1,2.56,1.6c-3.44,13.2-5.44,27-7.68,40.4l-3.12,20.56c-.56,1.44-1.36,1.52-2.48,1.52-.88,0-1.76,0-2.08-1C207.75,193.27,206.07,171.67,202.23,151.27Z"/><path class="cls-1" d="M235,199l-.48.48-1.36,9c-.16,1.2-.08,4.64-2.4,4.64-1,0-1.76-2.08-1.76-2.88,8.32-58,8.4-58.16,8.4-58.16.4-1.52,1-3.76,3-3.76a3,3,0,0,1,2.48,1.2l.64,1.68c4.64,18.32,6.8,37.12,9,56l.48,5.2c0,.08-.08.08-.08.16-.56,1.52-.88,2.16-2.4,2.16h-.24c-.48,0-1.28,0-1.36-.56l-2-15.2Zm1.2-5,10,.24L240.79,157Z"/><path class="cls-1" d="M257.75,209.35c0-18,.64-36.16,1.12-54.16.16-3.68,1.52-3.68,4.72-3.68h.8c7.36,0,12.08,4.8,12.08,11.84v.88c0,5.84-1.52,12.64-6.8,16.24a33.26,33.26,0,0,1,2.56,3.12c3.6,4.72,2.72,16.16,3.12,21.68,0,.48.48,4.16.48,4.64v.64c0,1.36-1.28,1.52-2.32,1.52h-.08c-.88,0-1.92,0-2.24-1.12-.08-2.64-.8-14.88-1-17.6-.32-3.92-1.12-9.28-6-9.28H263a45.6,45.6,0,0,0-.48,4.64c-.08.72-.48,18.48-.56,25.28,0,1.52.24,3.2-1.76,3.2a2.88,2.88,0,0,1-2.4-1.12Zm6.24-31c5.68,0,7.84-10.48,7.84-14.16s-1.76-8.56-6.32-8.56a1.87,1.87,0,0,0-2,2.08c.08,7-.56,12.8-.56,19.92C263,178.31,263.51,178.39,264,178.39Z"/><path class="cls-1" d="M310.63,155.59c.56-1.6,1-1.68,2.64-1.68,2.32,0,2.32,1,2.32,3.36,0,.24-.08,1.28-.08,1.44l-2.4,54.72c-.16,3.52-4.64,3.84-4.64,1.52Z"/><path class="cls-1" d="M323.59,153.35a2.21,2.21,0,0,1,2.24-2.32c1.6,0,2.32,1,2.4,3l.8,26.72c4.8-9.6,8.8-18.08,10.72-24.8.64-2.24.72-5.44,3.6-5.44,1.12,0,3.28.48,2.16,4l-13,29.92,15,27.76a2.36,2.36,0,0,1-2,3.6c-1,0-1.44,0-2.08-1-4.48-8.08-8.8-18.64-14.24-27v.64c0,3.68,1,16.8,1,26.88-.88,2.16-4.24,3-4.4-.16Z"/><path class="cls-1" d="M351.43,153.35a2.21,2.21,0,0,1,2.24-2.32c1.6,0,2.32,1,2.4,3l.8,26.72c4.8-9.6,8.8-18.08,10.72-24.8.64-2.24.72-5.44,3.6-5.44,1.12,0,3.28.48,2.16,4l-13,29.92,15,27.76a2.36,2.36,0,0,1-2,3.6c-1,0-1.44,0-2.08-1-4.48-8.08-8.8-18.64-14.24-27v.64c0,3.68,1,16.8,1,26.88-.88,2.16-4.24,3-4.4-.16Z"/><path class="cls-1" d="M381.83,158.07a3,3,0,0,1,2.8-2.8h12.64a4.41,4.41,0,0,1,2.16,1.6.72.72,0,0,1,.08.4c0,1.6-2.16,2.32-3.44,2.32h-9.6l.4,26.56,8.64-1.28h.4c3.76,0,2.32,3.68-.88,4.16l-8,1.2-.24,20.88c.72.08,3.44.08,4.16.08,5.36,0,9.28-1.84,9.52,1.84.16,2.72-17.76,2.4-17.76.88Z"/><path class="cls-1" d="M437.11,191.19v22.56c0,3.6-4.4,2.24-4.56,1.2,0-2.88.16-16.16.16-19,0-6.24.56-38.48.64-44.64a2.78,2.78,0,0,1,2.24-.64c1.12,0,1.76.72,2.48,1.68,0,7.68-.72,18.64-.72,26.8,0,1.12,0,6.24.08,7.28.64.72,1.2.56,1.92.56,3,0,6.08,0,9,.16.64-9,1-24.64.72-34.8V152c0-1.2,1-1.76,2.08-1.76a3.73,3.73,0,0,1,2.64,1.6c0,1.76-.24,6.88-.32,8.56-1.12,36.72.88,55.28-1.76,55.36-2.8.08-2.8-3.36-2.8-8.72,0-1.44-.4-14.4-.4-15.84Z"/><path class="cls-1" d="M475.35,211.59a18.56,18.56,0,0,1-1.92-.16c-9.84-1.2-10.56-25.52-11.36-53.52l-.16-3.92v-.4c0-1.76,4.24-1.68,4.8-.08,1.36,2.32-2.16,54.4,8.8,54.4,2.8,0,3.68-4.56,3.76-6.72.24-9.92.08-32.24-.32-47.68.4-1.28.88-1.44,2.32-1.44,1.28,0,2.4.24,2.48,1.6.4,14.08-.24,28.32.16,43C483.75,203.67,483.67,211.59,475.35,211.59Z"/><path class="cls-1" d="M491.91,209.35c0-18,.63-36.16,1.12-54.16.16-3.68,1.51-3.68,4.72-3.68h.79c7.37,0,12.09,4.8,12.09,11.84v.88c0,5.84-1.52,12.64-6.8,16.24a33.26,33.26,0,0,1,2.56,3.12c3.6,4.72,2.72,16.16,3.12,21.68,0,.48.48,4.16.48,4.64v.64c0,1.36-1.28,1.52-2.32,1.52h-.08c-.88,0-1.92,0-2.24-1.12-.08-2.64-.8-14.88-1-17.6-.32-3.92-1.12-9.28-6-9.28h-1.28a45.64,45.64,0,0,0-.49,4.64c-.08.72-.47,18.48-.55,25.28,0,1.52.24,3.2-1.76,3.2a2.87,2.87,0,0,1-2.4-1.12Zm6.24-31c5.68,0,7.84-10.48,7.84-14.16s-1.76-8.56-6.32-8.56a1.87,1.87,0,0,0-2,2.08c.08,7-.56,12.8-.56,19.92C497.11,178.31,497.67,178.39,498.15,178.39Z"/><path class="cls-1" d="M521.67,156.87c-5,.32-7.2.24-7.36-1.12.16-2.72.16-3.68,8.48-3.2h6.72c1.76.08,4.72.32,4.72,2.64a1.79,1.79,0,0,1-1.6,1.52h-6.72l1.52,50.8c0,.72-1.6,1.12-2.08,1.12s-2.08-.4-2.08-1.12Z"/><path class="cls-1" d="M541.91,155.59c.56-1.6,1-1.68,2.64-1.68,2.32,0,2.32,1,2.32,3.36,0,.24-.08,1.28-.08,1.44l-2.4,54.72c-.16,3.52-4.64,3.84-4.64,1.52Z"/><path class="cls-1" d="M551.83,184.39c0-10,1.2-30.48,14.64-31.2l.64-.08c3.12,0,8.88,2,8.88,5a2.76,2.76,0,0,1-.24,1c-1.6,3.84-4.32-1.76-9-2.4h-.4c-7.36,1-10,10.8-10,24.16v1.76l.16,8.72c.32,5.36,2,18.08,9.2,18.08h.32c5.28-.32,6.08-11.12,6.32-14.88a48.73,48.73,0,0,0,.56-8.48c-.24-5-9.12.4-9.36-3.84,0-1.84,2.24-2.24,3.6-2.24l1.44-.08c1.92-.08,8.8-.24,8.8,3v1.52c-.08,2.48-.72,11.36-.88,12.64-.72,7-2.32,15.92-10.88,16.32H565c-12.24,0-13.12-19.44-13.2-28Z"/><path class="cls-1" d="M610.39,157.59c-.16-3.2,4.24-5.12,5.92-.48l16.32,44.24c.08-3.52.72-23.2,1.2-31,.24-4.8-.08-9.68,1-14.16,0-.88.88-.88,2.08-.88,1.92.08,2.08.16,2,1.92-.24,8.32-1.44,16.64-1.76,25-.16,4.64-1,26.8-1,31.44-.56,1.68-3,.72-3.68-.64-.8-1.68-1.44-3.28-18.4-48.64l-.56,49.12c0,2.4-4.08,2.16-4.08.48Z"/><path class="cls-1" d="M658.71,151.83c14.32,1.6,12.24,35.68,11.44,46.32-.56,5.84-3.52,16-11.52,16-14.16,0-14.8-24.16-14.8-33.52C643.83,170.47,644.55,151.83,658.71,151.83Zm-10.32,28.48c0,23.44,4.32,29.84,10,29.84,7.84,0,7.92-20.32,7.92-25.36v-.32c0-6.16-1.68-28.56-9.28-28.56-6,0-8.56,13.36-8.56,17.36C648.39,175.83,648.39,178.07,648.39,180.31Z"/><path class="cls-1" d="M675.67,153.35a2.21,2.21,0,0,1,2.24-2.32c1.6,0,2.32,1,2.4,3l.8,26.72c4.8-9.6,8.8-18.08,10.72-24.8.64-2.24.72-5.44,3.6-5.44,1.12,0,3.28.48,2.16,4l-13,29.92,15,27.76a2.36,2.36,0,0,1-2,3.6c-1,0-1.44,0-2.08-1-4.48-8.08-8.8-18.64-14.24-27v.64c0,3.68,1,16.8,1,26.88-.88,2.16-4.24,3-4.4-.16Z"/><path class="cls-1" d="M709.91,211.91a2.71,2.71,0,0,1,3,2.72c0,2.48-1,5-1.6,7.28A1.17,1.17,0,0,1,710,223c-1.28,0-1.2-.88-1.28-1.84-.08-1.92-.8-5-.8-7.28C707.91,212.55,708.47,211.91,709.91,211.91Z"/><path class="cls-1" d="M157.15,297.11c3.2,1,.16,8,4.16,10.32h.48c4.48,0,5.76-6.16,5.76-9.44,0-4.4-.32-9.12-2.16-13.28-3.76-8.64-11.84-15.84-11.84-25.76,0-4.48,2.72-11.92,8.24-11.92,3.52,0,9.36,2.8,9.36,7,0,1.52-.48,2.4-2.08,2.4-3.12,0-2.16-4.8-6.56-4.8-4.08,0-4.4,5.68-4.4,8.48,0,8.08,6.8,13.76,10.4,20.48,3.28,6.16,5,15.12,3,21.2-1.28,4.16-4.88,9.84-9.76,9.84-5.92,0-7.76-7.36-7.76-12.16A2.72,2.72,0,0,1,157.15,297.11Z"/><path class="cls-1" d="M189.39,233a5.9,5.9,0,0,1,6.08,6.16c0,3.52-1.36,6.72-4.48,7.68l.16.48c4.64,18.32,6.8,37.12,9,56l.48,5.2c0,.08-.08.08-.08.16-.56,1.52-.88,2.16-2.4,2.16h-.24c-.48,0-1.28,0-1.36-.56l-2-15.2H182.67l-.48.48-1.36,9c-.16,1.2-.08,4.64-2.4,4.64-1,0-1.76-2.08-1.76-2.88,8.32-58,8.4-58.16,8.4-58.16a7.14,7.14,0,0,1,.48-1.6,5.41,5.41,0,0,1-3.84-5.36C181.71,236.23,184.19,233,189.39,233Zm-5.52,57.12,10,.24L188.51,253Zm3.92-46.24c2.8,0,4.4-1.84,4.4-4.56,0-1.52-.56-3.28-2.4-3.28a5,5,0,0,0-5,5.2C184.75,243,186.11,243.83,187.79,243.83Z"/><path class="cls-1" d="M233.55,253.59c-.16-3.2,4.24-5.12,5.92-.48l16.32,44.24c.08-3.52.72-23.2,1.2-31,.24-4.8-.08-9.68,1-14.16,0-.88.88-.88,2.08-.88,1.92.08,2.08.16,2,1.92-.24,8.32-1.44,16.64-1.76,25-.16,4.64-1,26.8-1,31.44-.56,1.68-3,.72-3.68-.64-.8-1.68-1.44-3.28-18.4-48.64l-.56,49.12c0,2.4-4.08,2.16-4.08.48Z"/><path class="cls-1" d="M283.63,307.59a18.56,18.56,0,0,1-1.92-.16c-9.84-1.2-10.56-25.52-11.36-53.52l-.16-3.92v-.4c0-1.76,4.24-1.68,4.8-.08,1.36,2.32-2.16,54.4,8.8,54.4,2.8,0,3.68-4.56,3.76-6.72.24-9.92.08-32.24-.32-47.68.4-1.28.88-1.44,2.32-1.44,1.28,0,2.4.24,2.48,1.6.4,14.08-.24,28.32.16,43C292,299.67,292,307.59,283.63,307.59Z"/><path class="cls-1" d="M328.75,287.19v22.56c0,3.6-4.4,2.24-4.56,1.2,0-2.88.16-16.16.16-19,0-6.24.56-38.48.64-44.64a2.78,2.78,0,0,1,2.24-.64c1.12,0,1.76.72,2.48,1.68,0,7.68-.72,18.64-.72,26.8,0,1.12,0,6.24.08,7.28.64.72,1.2.56,1.92.56,3,0,6.08,0,9,.16.64-9,1-24.64.72-34.8V248c0-1.2,1-1.76,2.08-1.76a3.73,3.73,0,0,1,2.64,1.6c0,1.76-.24,6.88-.32,8.56-1.12,36.72.88,55.28-1.76,55.36-2.8.08-2.8-3.36-2.8-8.72,0-1.44-.4-14.4-.4-15.84Z"/><path class="cls-1" d="M359.47,295l-.48.48-1.36,9c-.16,1.2-.08,4.64-2.4,4.64-1,0-1.76-2.08-1.76-2.88,8.32-58,8.4-58.16,8.4-58.16.4-1.52,1-3.76,3-3.76a3,3,0,0,1,2.48,1.2l.64,1.68c4.64,18.32,6.8,37.12,9,56l.48,5.2c0,.08-.08.08-.08.16-.56,1.52-.88,2.16-2.4,2.16h-.24c-.48,0-1.28,0-1.36-.56l-2-15.2Zm1.2-5,10,.24L365.31,253Z"/><path class="cls-1" d="M382.27,305.35c0-18,.64-36.16,1.12-54.16.16-3.68,1.52-3.68,4.72-3.68h.8c7.36,0,12.08,4.8,12.08,11.84v.88c0,5.84-1.52,12.64-6.8,16.24a33.26,33.26,0,0,1,2.56,3.12c3.6,4.72,2.72,16.16,3.12,21.68,0,.48.48,4.16.48,4.64v.64c0,1.36-1.28,1.52-2.32,1.52H398c-.88,0-1.92,0-2.24-1.12-.08-2.64-.8-14.88-1-17.6-.32-3.92-1.12-9.28-6-9.28h-1.28a45.6,45.6,0,0,0-.48,4.64c-.08.72-.48,18.48-.56,25.28,0,1.52.24,3.2-1.76,3.2a2.88,2.88,0,0,1-2.4-1.12Zm6.24-31c5.68,0,7.84-10.48,7.84-14.16s-1.76-8.56-6.32-8.56a1.87,1.87,0,0,0-2,2.08c.08,7-.56,12.8-.56,19.92C387.47,274.31,388,274.39,388.51,274.39Z"/><path class="cls-1" d="M433,277.27c0-6.32,1.44-18.56,8.4-21.92,4-1.92,14.4-1.12,14.4,5.28,0,1-.4,2-1.76,2-2.88,0-3.92-4.32-8-4.32h-.32c-7.44.4-8.72,11.6-8.72,17.6v1.6c.4,8,.4,13.92,2.08,21.44.8,3.76,3,7.76,7.6,7.76h.4c7.28-.4,7.52-9.92,7.28-14.48l-.64-11.84c-2.32,0-4.64.64-7.2.4-.72-.48-1-2.48-1-2.56,0-2.4,5.52-1.92,10.72-2,2.4.64,2.08,4.64,2.32,9.6v.8c.48,8.72,1.2,23.52-10.4,24.08a10.68,10.68,0,0,1-1.6,0C435.79,311.35,433,298.15,433,277.27Z"/><path class="cls-1" d="M468,277.43c0-2.48-.4-17-.56-20.8,0-.8-.48-7.84-.56-8.72v-.32c0-1.84,2.08-2.32,3.68-2.32,11,0,15,7.92,15,17.12,0,7.36-2.8,11.84-7.92,15.52C486.75,282,489,295,489,304c0,1.44-.88,2-2.32,2-1,0-1.36,0-1.76-1.28-.4-6-1.92-23-11.2-23-.08,0-.64.08-.8.08-.88,9-.16,18.16-.72,27.28a2.58,2.58,0,0,1-4.24,0C468,304.31,468,282.23,468,277.43Zm4.4-1.92c5.68-1.12,8.8-7.36,8.8-12.4,0-4.24-1.76-13-7.52-13-.32,0-2.8,0-2.8.64Z"/><path class="cls-1" d="M503.87,235a5.9,5.9,0,0,1,6.08,6.16c0,3.52-1.36,6.72-4.4,7.68a9.16,9.16,0,0,1,2,3.84c2,8,3.52,15.28,12.24,57.68,0,1.76-2.4,3.12-3.84.56l-2.88-14.4-10.8,1.6c-.64,3.76-1.2,10.88-1.36,14.24-.16,1.92-3.6,1.44-3.52,0l3.52-59.68a7.88,7.88,0,0,1,.88-3.6c-3.12-.4-5.6-2.4-5.6-5.84C496.19,238.23,498.67,235,503.87,235Zm-1.6,10.88c2.8,0,4.4-1.84,4.4-4.56,0-1.52-.56-3.28-2.4-3.28a5,5,0,0,0-5,5.2C499.23,245,500.59,245.83,502.27,245.83Zm.16,44.08c-.08.56-.16,3.68-.16,4.32l10-1.44-7.84-35.6C504.11,262.07,502.67,285,502.43,289.91Z"/><path class="cls-1" d="M518.11,252.15l-.08-.48c0-1.2,1.52-1.6,2.56-1.68,2.48,0,2.72,1.76,3.2,4.16,2.24,11.92,5,25.12,9.52,44.56l8.08-45.44a2.75,2.75,0,0,1,2.48-2.08c1.28,0,2.48.48,2.56,2.08l-9,45.84c-.4,1.28-2.16,11.68-3.68,11.68a.29.29,0,0,0-.24.08c-.8-.16-1.6,0-2.08-1.12C526.75,290.63,523.39,271.19,518.11,252.15Z"/><path class="cls-1" d="M555.55,301.11V285.27c0-11.44-1.12-18.8-1.12-30.24V251c12.8-1,14.24-.16,14.24,1.6,0,.56-.4,1.76-1,2H559c-.56,0-.56.4-.56.64,0,8.48.8,14.72,1.28,23.44,1.2.32,7.92.08,9.28.08,2.72.08,4.56,4.72.88,4.72H559.71l.16,18.72c1.92.48,12.08-1.52,12.08,2a1.93,1.93,0,0,1-1.52,2.08H570c-3,.24-14.32,1.12-14.4-1.2Z"/><path class="cls-1" d="M579.79,303.83c1.44.16,2.4,1.68,4,1.68,2.16,0,3.6-3.84,3.92-5.44,2.8-12.64,2.64-25.76,3.12-39.6a97.56,97.56,0,0,1,.48-10.8c.24-1.12.24-2.24,1.52-2.24,1.36.16,3.2.72,3.2,2.56-1.68,15.92-1.12,33-3,45.68-.8,5.84-2,13.92-9,13.92a5.67,5.67,0,0,1-1.12-.08c-2.16-.24-5.36-1.2-5.36-3.84v-.48C577.71,304,578.83,303.75,579.79,303.83Z"/><path class="cls-1" d="M605.22,277.43c0-2.48-.39-17-.55-20.8,0-.8-.48-7.84-.56-8.72v-.32c0-1.84,2.08-2.32,3.68-2.32,11,0,15,7.92,15,17.12,0,7.36-2.8,11.84-7.92,15.52C624,282,626.27,295,626.27,304c0,1.44-.88,2-2.32,2-1,0-1.36,0-1.76-1.28-.4-6-1.92-23-11.2-23-.08,0-.64.08-.8.08-.89,9-.16,18.16-.73,27.28a2.58,2.58,0,0,1-4.24,0C605.3,304.31,605.3,282.23,605.22,277.43Zm4.4-1.92c5.68-1.12,8.81-7.36,8.81-12.4,0-4.24-1.76-13-7.52-13-.32,0-2.8,0-2.8.64Z"/><path class="cls-1" d="M634,301.11V285.27c0-11.44-1.12-18.8-1.12-30.24V251c12.8-1,14.24-.16,14.24,1.6,0,.56-.4,1.76-1,2h-8.73c-.55,0-.55.4-.55.64,0,8.48.8,14.72,1.28,23.44,1.2.32,7.92.08,9.28.08,2.72.08,4.56,4.72.88,4.72H638.19l.16,18.72c1.92.48,12.08-1.52,12.08,2a1.93,1.93,0,0,1-1.52,2.08h-.4c-3,.24-14.32,1.12-14.4-1.2Z"/><path class="cls-1" d="M662.19,275.27c0-6.16-.08-21.68-.16-21.76l-6.41-.24c-2.56-.72-3.51-3.2.41-4.16,6.24.16,12.32,0,18.8.48,3.6.32,3.36,4.32,1,4.32l-8.73-.16c-.08.08-.39,25.44-.56,35.76,0,3.28-.31,9.44-.31,13.28v1c-.65,2.4-3.92,1.68-4.48-.56C661.87,297.59,662.19,281,662.19,275.27Z"/><path class="cls-1" d="M253.35,343.83c14.32,1.6,12.24,35.68,11.44,46.32-.56,5.84-3.52,16-11.52,16-14.16,0-14.8-24.16-14.8-33.52C238.47,362.47,239.19,343.83,253.35,343.83ZM243,372.31c0,23.44,4.32,29.84,10,29.84,7.84,0,7.92-20.32,7.92-25.36v-.32c0-6.16-1.68-28.56-9.28-28.56-6,0-8.56,13.36-8.56,17.36C243,367.83,243,370.07,243,372.31Z"/><path class="cls-1" d="M270.87,343.27c.48-.64,3-1.6,3.68-1a5.5,5.5,0,0,1,1.52,1.52l6.8,49.28c2.64-14.64,5.44-33.12,8-47.76,0-2.72,1.12-3.12,2.56-3.12a2.24,2.24,0,0,1,2.56,1.6c-3.44,13.2-5.44,27-7.68,40.4l-3.12,20.56c-.56,1.44-1.36,1.52-2.48,1.52-.88,0-1.76,0-2.08-1C276.39,385.27,274.71,363.67,270.87,343.27Z"/><path class="cls-1" d="M303.19,350.07a3,3,0,0,1,2.8-2.8h12.64a4.41,4.41,0,0,1,2.16,1.6.72.72,0,0,1,.08.4c0,1.6-2.16,2.32-3.44,2.32h-9.6l.4,26.56,8.64-1.28h.4c3.76,0,2.32,3.68-.88,4.16l-8,1.2-.24,20.88c.72.08,3.44.08,4.16.08,5.36,0,9.28-1.84,9.52,1.84.16,2.72-17.76,2.4-17.76.88Z"/><path class="cls-1" d="M329.91,401.35c0-18,.64-36.16,1.12-54.16.16-3.68,1.52-3.68,4.72-3.68h.8c7.36,0,12.08,4.8,12.08,11.84v.88c0,5.84-1.52,12.64-6.8,16.24a33.26,33.26,0,0,1,2.56,3.12c3.6,4.72,2.72,16.16,3.12,21.68,0,.48.48,4.16.48,4.64v.64c0,1.36-1.28,1.52-2.32,1.52h-.08c-.88,0-1.92,0-2.24-1.12-.08-2.64-.8-14.88-1-17.6-.32-3.92-1.12-9.28-6-9.28h-1.28a45.6,45.6,0,0,0-.48,4.64c-.08.72-.48,18.48-.56,25.28,0,1.52.24,3.2-1.76,3.2a2.88,2.88,0,0,1-2.4-1.12Zm6.24-31c5.68,0,7.84-10.48,7.84-14.16s-1.76-8.56-6.32-8.56a1.87,1.87,0,0,0-2,2.08c.08,7-.56,12.8-.56,19.92C335.11,370.31,335.67,370.39,336.15,370.39Z"/><path class="cls-1" d="M359.67,348.87c-5,.32-7.2.24-7.36-1.12.16-2.72.16-3.68,8.48-3.2h6.72c1.76.08,4.72.32,4.72,2.64a1.79,1.79,0,0,1-1.6,1.52h-6.72l1.52,50.8c0,.72-1.6,1.12-2.08,1.12s-2.08-.4-2.08-1.12Z"/><path class="cls-1" d="M380,391l-.48.48-1.36,9c-.16,1.2-.08,4.64-2.4,4.64-1,0-1.76-2.08-1.76-2.88,8.32-58,8.4-58.16,8.4-58.16.4-1.52,1-3.76,3-3.76a3,3,0,0,1,2.48,1.2l.64,1.68c4.64,18.32,6.8,37.12,9,56l.48,5.2c0,.08-.08.08-.08.16-.56,1.52-.88,2.16-2.4,2.16h-.24c-.48,0-1.28,0-1.36-.56l-2-15.2Zm1.2-5,10,.24L385.83,349Z"/><path class="cls-1" d="M401.59,376.39c0-10,1.2-30.48,14.64-31.2l.64-.08c3.12,0,8.88,2,8.88,5a2.76,2.76,0,0,1-.24,1c-1.6,3.84-4.32-1.76-9-2.4h-.4c-7.36,1-10,10.8-10,24.16v1.76l.16,8.72c.32,5.36,2,18.08,9.2,18.08h.32c5.28-.32,6.08-11.12,6.32-14.88a48.73,48.73,0,0,0,.56-8.48c-.24-5-9.12.4-9.36-3.84,0-1.84,2.24-2.24,3.6-2.24l1.44-.08c1.92-.08,8.8-.24,8.8,3v1.52c-.08,2.48-.72,11.36-.88,12.64-.72,7-2.32,15.92-10.88,16.32h-.64c-12.24,0-13.12-19.44-13.2-28Z"/><path class="cls-1" d="M435.19,350.07a3,3,0,0,1,2.8-2.8h12.64a4.41,4.41,0,0,1,2.16,1.6.72.72,0,0,1,.08.4c0,1.6-2.16,2.32-3.44,2.32h-9.6l.4,26.56,8.64-1.28h.4c3.76,0,2.32,3.68-.88,4.16l-8,1.2-.24,20.88c.72.08,3.44.08,4.16.08,5.36,0,9.28-1.84,9.52,1.84.16,2.72-17.76,2.4-17.76.88Z"/><path class="cls-1" d="M466.79,348.87c-5,.32-7.2.24-7.36-1.12.16-2.72.16-3.68,8.48-3.2h6.72c1.76.08,4.72.32,4.72,2.64a1.79,1.79,0,0,1-1.6,1.52H471l1.52,50.8c0,.72-1.6,1.12-2.08,1.12s-2.08-.4-2.08-1.12Z"/><path class="cls-1" d="M483.19,401.59a3.62,3.62,0,0,1,3.6,3.92c0,1.76-1.68,2-3.2,2-2,0-3.12-1.28-3.12-3.52C480.47,403,482.23,401.59,483.19,401.59Z"/><path class="cls-1" d="M522.15,406.23c.64-2.16,1.28-4.4,2-6.64a19.3,19.3,0,0,1-2.72-6.48c-1-4.8-9.36-47.12,10.72-47.12a9,9,0,0,1,6.24,2.8c.24-1.2.56-2.4.88-3.6a12.76,12.76,0,0,1,.48-2.4s.72-.08,1-.08c1.84,0,2.64,1,2.64,2.8a25.54,25.54,0,0,1-1.68,7.92c8.24,15.44,6.56,49.84-7,51-.32,0-.64.08-1,.08a12.24,12.24,0,0,1-6.4-1.6l-1.52,4.72c-.16.64-.56,1.36-1.36,1.36-1.68,0-2.4-.4-2.4-1.84C522.07,407,522.15,406.31,522.15,406.23Zm3.12-16.8a21.76,21.76,0,0,0,1,3.2c3.92-13.12,7.68-26.4,11-39.6a6.12,6.12,0,0,0-5-2.64h-.64C519.59,351.51,523.75,383.59,525.27,389.43ZM540,358.55l-.24,1c-3.6,12.56-7,25.52-10.8,38.16,1,1.28,2.24,2.32,3.6,2.4a3.8,3.8,0,0,0,1,0c5.36-.48,7.12-9.84,7.84-13.6C542.15,382.23,542.87,367.83,540,358.55Z"/><path class="cls-1" d="M548,348.15l-.08-.48c0-1.2,1.52-1.6,2.56-1.68,2.48,0,2.72,1.76,3.2,4.16,2.24,11.92,5,25.12,9.52,44.56l8.08-45.44a2.75,2.75,0,0,1,2.48-2.08c1.28,0,2.48.48,2.56,2.08l-9,45.84c-.4,1.28-2.16,11.68-3.68,11.68a.29.29,0,0,0-.24.08c-.8-.16-1.6,0-2.08-1.12C556.63,386.63,553.27,367.19,548,348.15Z"/><path class="cls-1" d="M586.39,343.75c1.12,0,2.48.16,2.72,1.6.08,1.2.48,6.88.48,8.08,0,16.56,1.76,26.08,1.76,42.72,0,1.12,0,2.48-1.52,2.48-2.56,0-2.64-3.12-2.72-5v-.4c-1.12-18.32-.8-29.6-2.8-47.84C584.79,344.15,585.11,343.75,586.39,343.75Zm2.72,58.8a3.62,3.62,0,0,1,3.6,3.92c0,1.76-1.68,2-3.2,2-2,0-3.12-1.28-3.12-3.52C586.39,403.91,588.15,402.55,589.11,402.55Z"/></svg>
