<svg id="Lag_1" data-name="Lag 1" xmlns="http://www.w3.org/2000/svg" width="1060" height="700" viewBox="0 0 1060 700"><defs><style>.cls-1{fill:#3aaefc;opacity:0.39;}</style></defs><title>Indstillinger_1</title><rect class="cls-1" x="12.5" y="16.5" width="1035" height="650" rx="12" ry="12"/><path d="M235.87,64.29l6.6,91.49a74.72,74.72,0,0,1,.75,7.95c-.15,2.4-2.55,3.3-5.1,3.3-3.3,0-3.9-2.85-4.35-5.7L230,95.48c-.75-10.79-2.4-21.59-2.1-32.39C228.07,59.34,235.57,60.69,235.87,64.29Z"/><path d="M260,66.39c-.3-6,8-9.6,11.1-.9l30.6,82.94c.15-6.6,1.35-43.5,2.25-58.19.45-9-.15-18.15,1.8-26.55,0-1.65,1.65-1.65,3.9-1.65,3.6.15,3.9.3,3.75,3.6-.46,15.6-2.71,31.19-3.3,46.79-.3,8.7-1.8,50.25-1.8,58.95-1.05,3.15-5.7,1.35-6.9-1.2-1.5-3.15-2.7-6.15-34.5-91.19l-1.05,92.09c0,4.5-7.65,4-7.65.9Z"/><path d="M328.57,146.33c.15-12.9.15-72.89,0-85.64v-.6c0-3.3,1.2-6.75,4.35-8.1h1.35c6,0,12.3,1.35,16.8,5.4,16,14.4,19,40.19,18.14,60.59-1.2,29-7.95,56.55-32.69,59.55-4.8.6-7.95-.15-7.95-5.7Zm8.55-29c0,13.35-.3,36.15,0,51.45,18.59-2.85,23.69-32.55,23.69-49.05,0-11.85-.75-58.19-21.59-58.19h-1.05C337.87,70,337.12,109.13,337.12,117.38Z"/><path d="M385.27,148c6,1.8.3,15,7.8,19.35h.9c8.4,0,10.8-11.55,10.8-17.7,0-8.25-.6-17.1-4-24.9-7.05-16.2-22.2-29.69-22.2-48.29,0-8.4,5.1-22.35,15.45-22.35,6.6,0,17.55,5.25,17.55,13,0,2.85-.9,4.5-3.9,4.5-5.85,0-4.05-9-12.3-9-7.65,0-8.25,10.65-8.25,15.9,0,15.15,12.75,25.79,19.5,38.39,6.15,11.55,9.3,28.35,5.7,39.75-2.4,7.8-9.15,18.45-18.3,18.45-11.1,0-14.55-13.8-14.55-22.8C379.42,149.78,382.87,147.23,385.27,148Z"/><path d="M433.27,65c-9.3.6-13.5.45-13.8-2.1.3-5.1.3-6.9,15.9-6H448c3.3.15,8.85.6,8.85,5a3.35,3.35,0,0,1-3,2.85h-12.6L444.07,160c0,1.35-3,2.1-3.9,2.1s-3.9-.75-3.9-2.1Z"/><path d="M471.22,62.64c1-3,1.8-3.15,4.95-3.15,4.35,0,4.35,1.95,4.35,6.3,0,.45-.15,2.4-.15,2.7l-4.5,102.59c-.3,6.6-8.7,7.2-8.7,2.85Z"/><path d="M499.42,175.28c-.15,0-1.95-77.4-1.95-87.59,0-2.85-1.8-25.8-2-28.65V58a2.89,2.89,0,0,1,1.05-2.7,16.61,16.61,0,0,1,2.85-.3c2.7,0,3.9-.15,4.8,3.15,1.35,5.85.75,9.45.9,15.3.75,30.59,1.05,61.64,2.85,92.54h1c6.3,0,12.3-2.1,18.75-2.1,2.4,0,5.1.6,5.1,3.6a3.15,3.15,0,0,1-3,3.3Z"/><path d="M547,175.28c-.15,0-2-77.4-2-87.59,0-2.85-1.8-25.8-1.95-28.65V58a2.89,2.89,0,0,1,1-2.7A16.61,16.61,0,0,1,547,55c2.7,0,3.9-.15,4.8,3.15,1.35,5.85.75,9.45.9,15.3.75,30.59,1.05,61.64,2.85,92.54h1.05c6.3,0,12.3-2.1,18.75-2.1,2.4,0,5.1.6,5.1,3.6a3.15,3.15,0,0,1-3,3.3Z"/><path d="M594.67,62.64c1.05-3,1.8-3.15,5-3.15,4.35,0,4.35,1.95,4.35,6.3,0,.45-.15,2.4-.15,2.7l-4.5,102.59c-.3,6.6-8.7,7.2-8.7,2.85Z"/><path d="M620.77,66.39c-.3-6,8-9.6,11.1-.9l30.6,82.94c.15-6.6,1.35-43.5,2.25-58.19.45-9-.15-18.15,1.8-26.55,0-1.65,1.65-1.65,3.9-1.65,3.6.15,3.9.3,3.75,3.6-.45,15.6-2.7,31.19-3.3,46.79-.3,8.7-1.8,50.25-1.8,58.95-1.05,3.15-5.7,1.35-6.9-1.2-1.5-3.15-2.7-6.15-34.5-91.19l-1,92.09c0,4.5-7.65,4-7.65.9Z"/><path d="M683.62,116.63c0-18.75,2.25-57.14,27.45-58.49l1.2-.15c5.85,0,16.65,3.75,16.65,9.45a5.18,5.18,0,0,1-.45,2c-3,7.2-8.1-3.3-16.8-4.5h-.75c-13.8,1.8-18.75,20.25-18.75,45.29v3.3l.3,16.35c.6,10,3.75,33.9,17.25,33.9h.6c9.9-.6,11.4-20.85,11.85-27.9.6-5.1,1.35-10.35,1.05-15.9-.45-9.45-17.1.75-17.55-7.2,0-3.45,4.2-4.2,6.75-4.2l2.7-.15c3.6-.15,16.5-.45,16.5,5.7v2.85c-.15,4.65-1.35,21.3-1.65,23.7-1.35,13.2-4.35,29.85-20.4,30.6h-1.2c-23,0-24.6-36.45-24.75-52.5Z"/><path d="M746.62,67.29A5.53,5.53,0,0,1,751.87,62h23.7c.9,0,3.9,2.25,4,3a1.35,1.35,0,0,1,.15.75c0,3-4,4.35-6.45,4.35h-18l.75,49.79,16.2-2.4H773c7.05,0,4.35,6.9-1.65,7.8l-15,2.25-.45,39.15c1.35.15,6.45.15,7.8.15,10,0,17.4-3.45,17.85,3.45.3,5.1-33.3,4.5-33.3,1.65Z"/><path d="M796.72,163.43c0-33.75,1.2-67.79,2.1-101.54.3-6.9,2.85-6.9,8.85-6.9h1.5c13.8,0,22.65,9,22.65,22.2v1.65c0,11-2.85,23.69-12.75,30.44a62.37,62.37,0,0,1,4.8,5.85c6.75,8.85,5.1,30.3,5.85,40.65,0,.9.9,7.8.9,8.7v1.2c0,2.55-2.4,2.85-4.35,2.85h-.15c-1.65,0-3.6,0-4.2-2.1-.15-5-1.5-27.9-1.8-33-.6-7.35-2.1-17.4-11.25-17.4h-2.4a85.51,85.51,0,0,0-.9,8.7c-.15,1.35-.9,34.65-1.05,47.4,0,2.85.45,6-3.3,6a5.4,5.4,0,0,1-4.5-2.1Zm11.7-58.05c10.65,0,14.7-19.64,14.7-26.54,0-7-3.3-16.05-11.85-16.05-2.25,0-3.75,1.35-3.75,3.9.15,13-1,24-1,37.34C806.47,105.23,807.52,105.38,808.42,105.38Z"/><path d="M107.36,298.83c.4-16.1,1.7-27.7,4.3-27.7a.6.6,0,0,1,.4.1c.5.5,2.8.8,3.4,3.3,1.8,7.3,4.5,20.6,10.4,29,.7-.6,4.5-7.2,6.5-10.8l.5-.8a122.17,122.17,0,0,0,8.6-18,2.88,2.88,0,0,1,2.9-1.8,5.48,5.48,0,0,1,3.4,1.5c-.7,22.2-.3,44.51-.8,66.71l-.1,4.8a3.59,3.59,0,0,1-3.2,2.4,3.74,3.74,0,0,1-2.3-1.4l.1-5.9c.4-18.1-.4-36.21.3-54.31-2.4,4.3-4.8,8.6-6.9,13.1-.9,1.5-5,9.7-5.9,11.7-.6,1.3-3.3,4.4-4.8,1-10-22.7-10.3-22.7-10.4-22.7-2.2,18.1-2.4,36.61-2.6,54.91a2.32,2.32,0,0,1-2.1,1.9,4.7,4.7,0,0,1-2.8-1.4Z"/><path d="M174.66,343.94a23.2,23.2,0,0,1-2.4-.2c-12.3-1.5-13.2-31.91-14.2-66.91l-.2-4.9v-.5c0-2.2,5.3-2.1,6-.1,1.7,2.9-2.7,68,11,68,3.5,0,4.6-5.7,4.7-8.4.3-12.4.1-40.31-.4-59.61.5-1.6,1.1-1.8,2.9-1.8,1.6,0,3,.3,3.1,2,.5,17.6-.3,35.4.2,53.81C185.16,334,185.06,343.94,174.66,343.94Z"/><path d="M199.86,330.84c4,1.2.2,10,5.2,12.9h.6c5.6,0,7.2-7.7,7.2-11.8,0-5.5-.4-11.4-2.7-16.61-4.7-10.8-14.8-19.8-14.8-32.2,0-5.6,3.4-14.9,10.3-14.9,4.4,0,11.7,3.5,11.7,8.7,0,1.9-.6,3-2.6,3-3.9,0-2.7-6-8.2-6-5.1,0-5.5,7.1-5.5,10.6,0,10.1,8.5,17.2,13,25.6,4.1,7.7,6.2,18.91,3.8,26.51-1.6,5.2-6.1,12.3-12.2,12.3-7.4,0-9.7-9.2-9.7-15.2A3.4,3.4,0,0,1,199.86,330.84Z"/><path d="M231.66,273.93c.7-2,1.2-2.1,3.3-2.1,2.9,0,2.9,1.3,2.9,4.2,0,.3-.1,1.6-.1,1.8l-3,68.41c-.2,4.4-5.8,4.8-5.8,1.9Z"/><path d="M247.86,271.13a2.76,2.76,0,0,1,2.8-2.9c2,0,2.9,1.2,3,3.8l1,33.4c6-12,11-22.6,13.4-31,.8-2.8.9-6.8,4.5-6.8,1.4,0,4.1.6,2.7,5L259.06,310l18.7,34.71a3,3,0,0,1-2.5,4.5c-1.3,0-1.8,0-2.6-1.3-5.6-10.1-11-23.3-17.8-33.71V315c0,4.6,1.3,21,1.3,33.6-1.1,2.7-5.3,3.8-5.5-.2Z"/><path d="M105.8,546.7c-.1,0-1.3-51.6-1.3-58.4,0-1.9-1.2-17.2-1.3-19.1v-.7a1.93,1.93,0,0,1,.7-1.8,11.08,11.08,0,0,1,1.9-.2c1.8,0,2.6-.1,3.2,2.1.9,3.9.5,6.3.6,10.2.5,20.4.7,41.1,1.9,61.7h.7c4.2,0,8.2-1.4,12.5-1.4,1.6,0,3.4.4,3.4,2.4a2.1,2.1,0,0,1-2,2.2Z"/><path d="M136.8,546.7c.3-7.5,1.5-33.4,1.5-37.4l-8.5-23.1c-.4-.9-3.2-8.2-3.5-9.1a5.25,5.25,0,0,1-.7-2.4c.1-1.1,1.1-1.7,2.4-1.7,1.7,0,3.4.5,4.2,2.1,3.1,8.9,5.3,19.1,9.1,27.6,1-.8,10.6-23.1,10.3-23.2.9-2.3.9-5.8,4.4-5.8,1.6.1,3,.3,3,1.9v.7c-4.1,11.3-11.6,22-14.6,33.4l-1.8,38.1c-.1,1.6-1.8,1.9-3.4,1.8H139c-.9-.1-2-.2-2.3-1.4C136.7,547.8,136.8,547.4,136.8,546.7Z"/><path d="M166.7,527.4c.1-8.6.1-48.6,0-57.1v-.4c0-2.2.8-4.5,2.9-5.4h.9c4,0,8.2.9,11.2,3.6,10.71,9.6,12.71,26.8,12.1,40.4-.8,19.3-5.3,37.7-21.8,39.7-3.2.4-5.3-.1-5.3-3.8Zm5.7-19.3c0,8.9-.2,24.1,0,34.3,12.4-1.9,15.81-21.7,15.81-32.7,0-7.9-.5-38.8-14.41-38.8h-.7C172.9,476.5,172.4,502.6,172.4,508.1Z"/><path d="M203.9,474.7a3.69,3.69,0,0,1,3.5-3.5h15.8a5.51,5.51,0,0,1,2.7,2,.9.9,0,0,1,.1.5c0,2-2.7,2.9-4.3,2.9h-12l.5,33.2,10.8-1.6h.5c4.7,0,2.9,4.6-1.1,5.2l-10,1.5-.3,26.1c.9.1,4.3.1,5.2.1,6.7,0,11.6-2.3,11.9,2.3.2,3.4-22.2,3-22.2,1.1Z"/><path d="M235.1,477c0-5.1,3.3-8.2,11.5-8.7,2.5,0,10.2-1.1,10.4,3,0,1.4-1.6,1.8-2.7,1.9-3-.1-13-1.3-13,4.1v.8c.4,6.5.9,14.5,1.6,20.2a34.48,34.48,0,0,0,5.6.1c1.6-.1,7.4-2.4,7.4,1.2,0,4.7-10.4,3.4-12.7,4.3-.8,10.9,1.8,21.8,1.9,34v.4c0,4.3-4.6,3.4-5.2.4-1.2-9.8-4.3-42-4.8-61.5Z"/><path d="M265.7,477c0-5.1,3.3-8.2,11.5-8.7,2.5,0,10.2-1.1,10.4,3,0,1.4-1.6,1.8-2.7,1.9-3-.1-13-1.3-13,4.1v.8c.4,6.5.9,14.5,1.6,20.2a34.48,34.48,0,0,0,5.6.1c1.6-.1,7.4-2.4,7.4,1.2,0,4.7-10.4,3.4-12.7,4.3-.8,10.9,1.8,21.8,1.9,34v.4c0,4.3-4.6,3.4-5.2.4-1.2-9.8-4.3-42-4.8-61.5Z"/><path d="M297.6,474.7a3.69,3.69,0,0,1,3.5-3.5h15.8a5.51,5.51,0,0,1,2.7,2,.9.9,0,0,1,.1.5c0,2-2.7,2.9-4.3,2.9h-12l.5,33.2,10.8-1.6h.5c4.7,0,2.9,4.6-1.1,5.2l-10,1.5-.3,26.1c.9.1,4.3.1,5.2.1,6.7,0,11.6-2.3,11.9,2.3.2,3.4-22.2,3-22.2,1.1Z"/><path d="M331,468.8a2.76,2.76,0,0,1,2.8-2.9c2,0,2.9,1.2,3,3.8l1,33.4c6-12,11-22.6,13.4-31,.8-2.8.9-6.8,4.5-6.8,1.4,0,4.1.6,2.7,5l-16.2,37.4,18.7,34.7a3,3,0,0,1-2.5,4.5c-1.3,0-1.8,0-2.6-1.3-5.6-10.1-11-23.3-17.8-33.7v.8c0,4.6,1.3,21,1.3,33.6-1.1,2.7-5.3,3.8-5.5-.2Z"/><path d="M375.8,473.2c-6.2.4-9,.3-9.2-1.4.2-3.4.2-4.6,10.6-4h8.4c2.2.1,5.9.4,5.9,3.3a2.23,2.23,0,0,1-2,1.9h-8.4l1.9,63.5c0,.9-2,1.4-2.6,1.4s-2.6-.5-2.6-1.4Z"/><path d="M396,474.7a3.69,3.69,0,0,1,3.5-3.5h15.8a5.51,5.51,0,0,1,2.7,2,.9.9,0,0,1,.1.5c0,2-2.7,2.9-4.3,2.9h-12l.5,33.2,10.8-1.6h.5c4.7,0,2.9,4.6-1.1,5.2l-10,1.5-.3,26.1c.9.1,4.3.1,5.2.1,6.7,0,11.6-2.3,11.9,2.3.2,3.4-22.2,3-22.2,1.1Z"/><path d="M429.4,538.8c0-22.5.8-45.2,1.4-67.7.2-4.6,1.9-4.6,5.9-4.6h1c9.2,0,15.1,6,15.1,14.8v1.1c0,7.3-1.89,15.8-8.5,20.3a41.58,41.58,0,0,1,3.2,3.9c4.5,5.9,3.41,20.2,3.91,27.1,0,.6.59,5.2.59,5.8v.8c0,1.7-1.59,1.9-2.9,1.9H449c-1.1,0-2.4,0-2.79-1.4-.11-3.3-1-18.6-1.21-22-.4-4.9-1.4-11.6-7.5-11.6h-1.6a57,57,0,0,0-.6,5.8c-.1.9-.6,23.1-.7,31.6,0,1.9.3,4-2.2,4a3.6,3.6,0,0,1-3-1.4Zm7.8-38.7c7.1,0,9.8-13.1,9.8-17.7s-2.2-10.7-7.9-10.7a2.34,2.34,0,0,0-2.5,2.6c.1,8.7-.7,16-.7,24.9C435.9,500,436.6,500.1,437.2,500.1Z"/></svg>
