<svg xmlns="http://www.w3.org/2000/svg" width="100" height="100" viewBox="0 0 100 100"><defs><style>.cls-1{isolation:isolate;}.cls-2{mix-blend-mode:multiply;}.cls-3{fill:#f9a0f9;}.cls-4{fill:#662d91;}</style></defs><title>Indstillinger</title><g class="cls-1"><g id="Lag_1" data-name="Lag 1"><g class="cls-2"><path class="cls-3" d="M54.17,33A18,18,0,1,1,35.83,51,18.18,18.18,0,0,1,54.17,33m0-14A32,32,0,1,0,86.5,51,32.17,32.17,0,0,0,54.17,19Z"/><path class="cls-3" d="M57.24,7.5H52.58A5.6,5.6,0,0,0,47,13.08v7.38a0,0,0,0,0,0,0H62.9a.09.09,0,0,0,.1-.1V13.26A5.77,5.77,0,0,0,57.24,7.5Z"/><path class="cls-3" d="M80.55,34.17l0,0,4.85-5.35a5.73,5.73,0,0,0-.38-8.08l-3.38-3.07A5.76,5.76,0,0,0,73.6,18l-4.89,5.39,11.8,10.72A.05.05,0,0,0,80.55,34.17Z"/><path class="cls-3" d="M46,81.5v7.28a5.73,5.73,0,0,0,5.72,5.72h4.56A5.73,5.73,0,0,0,62,88.78V81.56a.06.06,0,0,0-.06-.06Z"/><path class="cls-3" d="M27.45,68.83l0,0L22.56,74.2a5.73,5.73,0,0,0,.38,8.08l3.38,3.07A5.76,5.76,0,0,0,34.4,85l4.89-5.39L27.49,68.85A.05.05,0,0,0,27.45,68.83Z"/><path class="cls-3" d="M92.28,44.5H85V60.44a.06.06,0,0,0,.06.06h7.22A5.73,5.73,0,0,0,98,54.78V50.22A5.73,5.73,0,0,0,92.28,44.5Z"/><path class="cls-3" d="M24,44.56a.06.06,0,0,0-.06-.06H16.72A5.73,5.73,0,0,0,11,50.22v4.56a5.73,5.73,0,0,0,5.72,5.72H24Z"/><path class="cls-3" d="M27.05,34.12,39.26,23.88a.05.05,0,0,0,0-.08l-4.64-5.54a5.72,5.72,0,0,0-8.06-.7l-3.49,2.92a5.74,5.74,0,0,0-.71,8.06Z"/><path class="cls-3" d="M81,67.88,68.74,78.12a.05.05,0,0,0,0,.08l4.64,5.54a5.72,5.72,0,0,0,8.06.7l3.49-2.93a5.73,5.73,0,0,0,.71-8.05Z"/></g><path class="cls-4" d="M49.17,32A18,18,0,1,1,30.83,50,18.18,18.18,0,0,1,49.17,32m0-14A32,32,0,1,0,81.5,50,32.17,32.17,0,0,0,49.17,18Z"/><path class="cls-4" d="M52.24,6.5H47.58A5.6,5.6,0,0,0,42,12.08v7.38a0,0,0,0,0,0,0H57.9a.09.09,0,0,0,.1-.1V12.26A5.77,5.77,0,0,0,52.24,6.5Z"/><path class="cls-4" d="M75.55,33.17l0,0,4.85-5.35a5.73,5.73,0,0,0-.38-8.08l-3.38-3.07A5.76,5.76,0,0,0,68.6,17l-4.89,5.39,11.8,10.72A.05.05,0,0,0,75.55,33.17Z"/><path class="cls-4" d="M41,80.5v7.28a5.73,5.73,0,0,0,5.72,5.72h4.56A5.73,5.73,0,0,0,57,87.78V80.56a.06.06,0,0,0-.06-.06Z"/><path class="cls-4" d="M22.45,67.83l0,0L17.56,73.2a5.73,5.73,0,0,0,.38,8.08l3.38,3.07A5.76,5.76,0,0,0,29.4,84l4.89-5.39L22.49,67.85A.05.05,0,0,0,22.45,67.83Z"/><path class="cls-4" d="M87.28,43.5H80V59.44a.06.06,0,0,0,.06.06h7.22A5.73,5.73,0,0,0,93,53.78V49.22A5.73,5.73,0,0,0,87.28,43.5Z"/><path class="cls-4" d="M19,43.56a.06.06,0,0,0-.06-.06H11.72A5.73,5.73,0,0,0,6,49.22v4.56a5.73,5.73,0,0,0,5.72,5.72H19Z"/><path class="cls-4" d="M22.05,33.12,34.26,22.88a.05.05,0,0,0,0-.08l-4.64-5.54a5.72,5.72,0,0,0-8.06-.7l-3.49,2.92a5.74,5.74,0,0,0-.71,8.06Z"/><path class="cls-4" d="M76,66.88,63.74,77.12a.05.05,0,0,0,0,.08l4.64,5.54a5.72,5.72,0,0,0,8.06.7l3.49-2.93a5.73,5.73,0,0,0,.71-8.05Z"/></g></g></svg>
