<svg id="Lag_1" data-name="Lag 1" xmlns="http://www.w3.org/2000/svg" width="830" height="500" viewBox="0 0 830 500"><defs><style>.cls-1{fill:#3aaefc;opacity:0.39;}.cls-2{fill:#654b9d;}</style></defs><title>Instruktioner</title><rect class="cls-1" x="26.11" y="23.5" width="787.06" height="462" rx="12" ry="12"/><path class="cls-2" d="M195.45,99.55l2.42,33.55a27.15,27.15,0,0,1,.27,2.91c0,.88-.93,1.21-1.87,1.21-1.21,0-1.43-1-1.59-2.09L193.3,111c-.27-4-.88-7.92-.77-11.88C192.59,97.74,195.34,98.23,195.45,99.55Z"/><path class="cls-2" d="M220.8,100.32c-.11-2.2,2.91-3.52,4.07-.33l11.22,30.41c0-2.42.49-15.94.82-21.33.17-3.3,0-6.66.66-9.74,0-.6.61-.6,1.43-.6,1.32,0,1.43.11,1.38,1.32-.17,5.72-1,11.44-1.21,17.16-.11,3.18-.66,18.42-.66,21.61-.39,1.15-2.09.49-2.53-.44-.55-1.16-1-2.26-12.65-33.44l-.39,33.77c0,1.65-2.8,1.48-2.8.33Z"/><path class="cls-2" d="M264.91,130.24c2.2.66.11,5.5,2.86,7.09h.33c3.08,0,4-4.23,4-6.49a22.54,22.54,0,0,0-1.49-9.13c-2.58-5.93-8.14-10.88-8.14-17.7,0-3.08,1.87-8.2,5.67-8.2,2.42,0,6.43,1.93,6.43,4.79,0,1-.33,1.65-1.43,1.65-2.14,0-1.48-3.3-4.51-3.3-2.8,0-3,3.9-3,5.83,0,5.55,4.67,9.46,7.15,14.07,2.25,4.24,3.41,10.4,2.09,14.58-.88,2.86-3.36,6.76-6.71,6.76-4.07,0-5.34-5.06-5.34-8.36A1.87,1.87,0,0,1,264.91,130.24Z"/><path class="cls-2" d="M302.47,99.83c-3.41.22-5,.16-5.06-.77.11-1.87.11-2.53,5.83-2.2h4.62c1.21,0,3.25.22,3.25,1.81a1.23,1.23,0,0,1-1.1,1h-4.62l1,34.92c0,.49-1.1.77-1.43.77s-1.43-.28-1.43-.77Z"/><path class="cls-2" d="M333.11,135.9c0-12.37.44-24.85.77-37.23.11-2.53,1-2.53,3.24-2.53h.55c5.06,0,8.31,3.3,8.31,8.14v.61c0,4-1.05,8.69-4.68,11.16a22.18,22.18,0,0,1,1.76,2.15c2.48,3.24,1.87,11.1,2.15,14.9,0,.33.33,2.86.33,3.19v.44c0,.93-.88,1-1.6,1h-.05c-.61,0-1.32,0-1.54-.77-.06-1.81-.55-10.23-.66-12.1-.22-2.69-.77-6.38-4.13-6.38h-.88a31.65,31.65,0,0,0-.33,3.19c-.05.5-.33,12.71-.38,17.38,0,1,.16,2.2-1.21,2.2a2,2,0,0,1-1.65-.77Zm4.29-21.28c3.9,0,5.39-7.2,5.39-9.73S341.58,99,338.44,99a1.29,1.29,0,0,0-1.37,1.43c.05,4.79-.39,8.8-.39,13.69C336.68,114.57,337.07,114.62,337.4,114.62Z"/><path class="cls-2" d="M377.27,137.44a11.69,11.69,0,0,1-1.32-.11c-6.76-.82-7.26-17.54-7.81-36.79L368,97.85v-.28c0-1.21,2.92-1.15,3.3,0,.94,1.59-1.48,37.39,6.05,37.39,1.92,0,2.53-3.13,2.58-4.62.17-6.82.06-22.16-.21-32.77.27-.88.6-1,1.59-1s1.65.16,1.7,1.1c.28,9.68-.16,19.46.11,29.58C383,132,383,137.44,377.27,137.44Z"/><path class="cls-2" d="M405.16,97.41a1.52,1.52,0,0,1,1.54-1.6c1.09,0,1.59.66,1.64,2.09l.55,18.37c3.3-6.6,6.05-12.43,7.37-17,.44-1.54.5-3.74,2.48-3.74.77,0,2.25.33,1.48,2.75l-8.91,20.57,10.29,19.08a1.63,1.63,0,0,1-1.38,2.48c-.71,0-1,0-1.43-.72-3.08-5.55-6.05-12.81-9.79-18.53v.44c0,2.53.72,11.55.72,18.48-.6,1.48-2.92,2.09-3-.11Z"/><path class="cls-2" d="M448.88,99.83c-3.41.22-4.95.16-5.06-.77.11-1.87.11-2.53,5.83-2.2h4.62c1.21,0,3.24.22,3.24,1.81a1.22,1.22,0,0,1-1.1,1h-4.62l1,34.92c0,.49-1.1.77-1.43.77s-1.43-.28-1.43-.77Z"/><path class="cls-2" d="M481,99c.38-1.1.66-1.16,1.81-1.16,1.6,0,1.6.72,1.6,2.31,0,.17-.06.88-.06,1l-1.65,37.62c-.11,2.42-3.19,2.64-3.19,1Z"/><path class="cls-2" d="M516.64,96.36c9.84,1.1,8.41,24.53,7.86,31.84-.38,4-2.42,11-7.92,11-9.73,0-10.17-16.61-10.17-23C506.41,109.18,506.9,96.36,516.64,96.36Zm-7.1,19.58c0,16.11,3,20.51,6.88,20.51,5.39,0,5.44-14,5.44-17.43v-.22c0-4.23-1.15-19.63-6.38-19.63-4.12,0-5.88,9.18-5.88,11.93C509.54,112.86,509.54,114.4,509.54,115.94Z"/><path class="cls-2" d="M547.6,100.32c-.11-2.2,2.92-3.52,4.07-.33l11.22,30.41c.06-2.42.5-15.94.82-21.33.17-3.3-.05-6.66.67-9.74,0-.6.6-.6,1.42-.6,1.32,0,1.43.11,1.38,1.32-.17,5.72-1,11.44-1.21,17.16-.11,3.18-.66,18.42-.66,21.61-.39,1.15-2.09.49-2.53-.44-.55-1.16-1-2.26-12.65-33.44l-.38,33.77c0,1.65-2.81,1.48-2.81.33Z"/><path class="cls-2" d="M589.24,100.65a2,2,0,0,1,1.92-1.92h8.69a3,3,0,0,1,1.48,1.1.45.45,0,0,1,.06.27c0,1.1-1.49,1.6-2.37,1.6h-6.59L592.7,120l5.94-.88h.28c2.58,0,1.59,2.52-.61,2.85l-5.5.83-.16,14.35c.49.06,2.36.06,2.85.06,3.69,0,6.38-1.27,6.55,1.26.11,1.87-12.21,1.65-12.21.61Z"/><path class="cls-2" d="M624.11,135.9c0-12.37.44-24.85.77-37.23.11-2.53,1-2.53,3.24-2.53h.55c5.06,0,8.3,3.3,8.3,8.14v.61c0,4-1,8.69-4.67,11.16a22.18,22.18,0,0,1,1.76,2.15c2.47,3.24,1.87,11.1,2.14,14.9,0,.33.33,2.86.33,3.19v.44c0,.93-.88,1-1.59,1h-.06c-.6,0-1.32,0-1.54-.77-.05-1.81-.55-10.23-.66-12.1-.22-2.69-.76-6.38-4.12-6.38h-.88a31.65,31.65,0,0,0-.33,3.19c-.05.5-.33,12.71-.38,17.38,0,1,.16,2.2-1.21,2.2a2,2,0,0,1-1.65-.77Zm4.29-21.28c3.9,0,5.39-7.2,5.39-9.73S632.58,99,629.44,99a1.29,1.29,0,0,0-1.37,1.43c0,4.79-.39,8.8-.39,13.69C627.68,114.57,628.07,114.62,628.4,114.62Z"/><path class="cls-2" d="M644.35,108a2.49,2.49,0,0,1,2.47,2.7c0,1.21-1.15,1.37-2.2,1.37-1.37,0-2.14-.88-2.14-2.42C642.48,109,643.69,108,644.35,108Zm0,28.05a2.48,2.48,0,0,1,2.47,2.69c0,1.21-1.15,1.38-2.2,1.38-1.37,0-2.14-.88-2.14-2.42C642.48,137,643.69,136.07,644.35,136.07Z"/><path class="cls-2" d="M43.64,178.64c.22-8.85.94-15.23,2.37-15.23a.37.37,0,0,1,.22.05c.27.28,1.54.44,1.87,1.82,1,4,2.47,11.33,5.72,15.95a66.24,66.24,0,0,0,3.57-5.94l.28-.44a67.08,67.08,0,0,0,4.72-9.9,1.59,1.59,0,0,1,1.6-1,3,3,0,0,1,1.87.82c-.39,12.21-.16,24.47-.44,36.68l0,2.64a2,2,0,0,1-1.76,1.32,2.08,2.08,0,0,1-1.27-.77l0-3.24c.23-10-.21-19.91.17-29.86-1.32,2.36-2.64,4.73-3.79,7.2-.5.83-2.75,5.33-3.25,6.43-.33.72-1.81,2.42-2.64.55-5.5-12.48-5.66-12.48-5.72-12.48-1.21,10-1.32,20.13-1.43,30.19a1.27,1.27,0,0,1-1.15,1.05,2.61,2.61,0,0,1-1.54-.77Z"/><path class="cls-2" d="M75.49,194.81l-.33.33-.94,6.21c-.11.83,0,3.19-1.65,3.19-.71,0-1.21-1.43-1.21-2,5.72-39.87,5.78-40,5.78-40,.27-1,.66-2.58,2-2.58a2.06,2.06,0,0,1,1.71.82l.44,1.16c3.19,12.59,4.67,25.51,6.16,38.49l.33,3.58s-.06,0-.06.11c-.38,1-.6,1.48-1.65,1.48h-.16c-.33,0-.88,0-.94-.38l-1.37-10.45Zm.82-3.41,6.88.16L79.5,165.88Z"/><path class="cls-2" d="M92.32,165.83c-3.41.22-4.95.16-5.06-.77.11-1.87.11-2.53,5.83-2.2h4.62c1.21,0,3.24.22,3.24,1.81a1.22,1.22,0,0,1-1.1,1.05H95.23l1,34.92c0,.49-1.1.77-1.43.77s-1.43-.28-1.43-.77Z"/><path class="cls-2" d="M118.39,165c0,1.93-3.19,1.54-4,1.54h-.33c-5.34,0-7.7,11.06-7.7,17.27,0,7,.44,12,5.28,16.06,2.36,2,6-.06,6.82,1.43,1.1,1.92-.94,2.58-2.7,2.58-12.48-.27-14.41-16.83-11.88-27.55,1.32-5.72,4.73-13.36,11.88-13.36C117,163,118.39,163.74,118.39,165Z"/><path class="cls-2" d="M126.14,189.42v15.51c0,2.47-3,1.54-3.13.82,0-2,.11-11.11.11-13,0-4.29.38-26.45.44-30.69a1.91,1.91,0,0,1,1.54-.44c.77,0,1.21.5,1.7,1.16,0,5.28-.49,12.81-.49,18.42,0,.77,0,4.29,0,5,.44.5.83.39,1.32.39,2.09,0,4.18,0,6.22.11.44-6.21.66-16.94.49-23.92v-.28c0-.82.66-1.21,1.43-1.21a2.58,2.58,0,0,1,1.82,1.1c0,1.21-.17,4.73-.22,5.89-.77,25.24.6,38-1.21,38.05s-1.93-2.31-1.93-6c0-1-.27-9.9-.27-10.89Z"/><path class="cls-2" d="M162.11,196.24c2.2.66.11,5.5,2.86,7.09h.33c3.08,0,4-4.23,4-6.49a22.7,22.7,0,0,0-1.48-9.13c-2.59-5.93-8.14-10.88-8.14-17.7,0-3.08,1.87-8.2,5.66-8.2,2.42,0,6.44,1.93,6.44,4.79,0,1-.33,1.65-1.43,1.65-2.15,0-1.49-3.3-4.51-3.3-2.81,0-3,3.9-3,5.83,0,5.55,4.68,9.46,7.15,14.07,2.26,4.24,3.41,10.4,2.09,14.58-.88,2.86-3.35,6.76-6.71,6.76-4.07,0-5.33-5.06-5.33-8.36A1.86,1.86,0,0,1,162.11,196.24Z"/><path class="cls-2" d="M179.71,165.83c-3.41.22-5,.16-5.06-.77.11-1.87.11-2.53,5.83-2.2h4.62c1.21,0,3.25.22,3.25,1.81a1.23,1.23,0,0,1-1.1,1.05h-4.62l1,34.92c0,.49-1.1.77-1.43.77s-1.43-.28-1.43-.77Z"/><path class="cls-2" d="M187.63,202.51h.28c2.2.11.77,2,2.64,2,5.22,0,4.4-33.05,4.84-36.3.27-2.14-.33-3,1.37-3.68H197c2,.11,2.15,1.1,2.2,2.8l-.6,10c-1.05,21.83-1.71,29.7-8.25,29.7h-.44c-1.71-.11-3.74-1.27-3.74-3.36C186.2,202.78,186.81,202.51,187.63,202.51Z"/><path class="cls-2" d="M204.52,166.65a2,2,0,0,1,1.92-1.92h8.69a3,3,0,0,1,1.49,1.1.52.52,0,0,1,0,.27c0,1.1-1.48,1.6-2.36,1.6h-6.6L208,186l5.94-.88h.28c2.58,0,1.59,2.52-.61,2.85l-5.5.83-.16,14.35c.49.06,2.36.06,2.86.06,3.68,0,6.38-1.27,6.54,1.26.11,1.87-12.21,1.65-12.21.61Z"/><path class="cls-2" d="M222.89,201.9c0-12.37.44-24.85.77-37.23.11-2.53,1-2.53,3.24-2.53h.55c5.06,0,8.31,3.3,8.31,8.14v.61c0,4-1,8.69-4.68,11.16a22.18,22.18,0,0,1,1.76,2.15c2.48,3.24,1.87,11.1,2.15,14.9,0,.33.33,2.86.33,3.19v.44c0,.93-.88,1-1.6,1h-.05c-.61,0-1.32,0-1.54-.77-.06-1.81-.55-10.23-.66-12.1-.22-2.69-.77-6.38-4.13-6.38h-.88a31.65,31.65,0,0,0-.33,3.19c0,.5-.33,12.71-.38,17.38,0,1,.16,2.2-1.21,2.2a2,2,0,0,1-1.65-.77Zm4.29-21.28c3.9,0,5.39-7.2,5.39-9.73s-1.21-5.89-4.35-5.89a1.29,1.29,0,0,0-1.37,1.43c.05,4.79-.39,8.8-.39,13.69C226.46,180.57,226.85,180.62,227.18,180.62Z"/><path class="cls-2" d="M241.92,166.32c-.11-2.2,2.91-3.52,4.07-.33l11.22,30.41c.05-2.42.49-15.94.82-21.33.17-3.3,0-6.66.66-9.74,0-.6.6-.6,1.43-.6,1.32.05,1.43.11,1.38,1.32-.17,5.72-1,11.44-1.21,17.16-.11,3.18-.67,18.42-.67,21.61-.38,1.15-2.08.49-2.52-.44-.55-1.16-1-2.26-12.65-33.44l-.39,33.77c0,1.65-2.8,1.48-2.8.33Z"/><path class="cls-2" d="M267.05,166.65a2,2,0,0,1,1.93-1.92h8.69a3,3,0,0,1,1.48,1.1.45.45,0,0,1,.06.27c0,1.1-1.49,1.6-2.37,1.6h-6.6l.28,18.26,5.94-.88h.27c2.59,0,1.6,2.52-.6,2.85l-5.5.83-.17,14.35c.5.06,2.37.06,2.86.06,3.69,0,6.38-1.27,6.55,1.26.11,1.87-12.21,1.65-12.21.61Z"/><path class="cls-2" d="M286.08,166.32c-.11-2.2,2.92-3.52,4.07-.33l11.22,30.41c.06-2.42.5-15.94.83-21.33.16-3.3-.06-6.66.66-9.74,0-.6.6-.6,1.43-.6,1.32.05,1.42.11,1.37,1.32-.17,5.72-1,11.44-1.21,17.16-.11,3.18-.66,18.42-.66,21.61-.38,1.15-2.09.49-2.53-.44-.55-1.16-1-2.26-12.65-33.44l-.38,33.77c0,1.65-2.81,1.48-2.81.33Z"/><path class="cls-2" d="M313.69,196.24c2.2.66.11,5.5,2.86,7.09h.33c3.08,0,4-4.23,4-6.49a22.7,22.7,0,0,0-1.48-9.13c-2.59-5.93-8.14-10.88-8.14-17.7,0-3.08,1.87-8.2,5.66-8.2,2.42,0,6.44,1.93,6.44,4.79,0,1-.33,1.65-1.43,1.65-2.15,0-1.49-3.3-4.51-3.3-2.81,0-3,3.9-3,5.83,0,5.55,4.68,9.46,7.15,14.07,2.26,4.24,3.41,10.4,2.09,14.58-.88,2.86-3.35,6.76-6.71,6.76-4.07,0-5.33-5.06-5.33-8.36A1.86,1.86,0,0,1,313.69,196.24Z"/><path class="cls-2" d="M346.25,167.92c0-2.81,1.82-4.51,6.33-4.79,1.37,0,5.6-.6,5.71,1.65,0,.77-.87,1-1.48,1.05-1.65-.06-7.15-.72-7.15,2.25v.44c.22,3.58.5,8,.88,11.11a19.56,19.56,0,0,0,3.08.06c.88-.06,4.07-1.32,4.07.66,0,2.58-5.72,1.86-7,2.36-.44,6,1,12,1,18.7v.22c0,2.36-2.53,1.87-2.86.22-.66-5.39-2.36-23.1-2.64-33.82Z"/><path class="cls-2" d="M364.84,194.81l-.33.33-.93,6.21c-.11.83-.06,3.19-1.65,3.19-.72,0-1.21-1.43-1.21-2,5.72-39.87,5.77-40,5.77-40,.28-1,.66-2.58,2-2.58a2.05,2.05,0,0,1,1.7.82l.44,1.16c3.19,12.59,4.67,25.51,6.16,38.49l.33,3.58s-.06,0-.06.11c-.38,1-.6,1.48-1.65,1.48h-.16c-.33,0-.88,0-.94-.38L373,194.81Zm.83-3.41,6.87.16-3.68-25.68Z"/><path class="cls-2" d="M380.52,201.9c0-12.37.44-24.85.77-37.23.11-2.53,1-2.53,3.24-2.53h.55c5.06,0,8.3,3.3,8.3,8.14v.61c0,4-1,8.69-4.67,11.16a22.18,22.18,0,0,1,1.76,2.15c2.47,3.24,1.87,11.1,2.15,14.9,0,.33.32,2.86.32,3.19v.44c0,.93-.88,1-1.59,1h-.06c-.6,0-1.32,0-1.54-.77-.05-1.81-.54-10.23-.65-12.1-.22-2.69-.77-6.38-4.13-6.38h-.88a31.65,31.65,0,0,0-.33,3.19c-.05.5-.33,12.71-.38,17.38,0,1,.16,2.2-1.21,2.2a2,2,0,0,1-1.65-.77Zm4.29-21.28c3.9,0,5.39-7.2,5.39-9.73S389,165,385.85,165a1.29,1.29,0,0,0-1.37,1.43c0,4.79-.39,8.8-.39,13.69C384.09,180.57,384.48,180.62,384.81,180.62Z"/><path class="cls-2" d="M397.9,162c.33-.44,2.09-1.1,2.53-.66a3.68,3.68,0,0,1,1,1l4.68,33.88c1.81-10.07,3.73-22.77,5.49-32.83,0-1.87.77-2.15,1.76-2.15a1.53,1.53,0,0,1,1.76,1.1c-2.36,9.08-3.74,18.54-5.28,27.77l-2.14,14.14c-.38,1-.93,1-1.7,1-.61,0-1.21,0-1.43-.71C401.69,190.85,400.54,176,397.9,162Z"/><path class="cls-2" d="M420.12,166.65a2,2,0,0,1,1.92-1.92h8.69a3,3,0,0,1,1.48,1.1.45.45,0,0,1,.06.27c0,1.1-1.48,1.6-2.36,1.6h-6.6l.27,18.26,5.94-.88h.27c2.59,0,1.6,2.52-.6,2.85l-5.5.83-.16,14.35c.49.06,2.36.06,2.86.06,3.68,0,6.37-1.27,6.54,1.26.11,1.87-12.21,1.65-12.21.61Z"/><path class="cls-2" d="M472.91,171.71,467,186.34c-.11,1.1-2.69,1.21-3.13.71a3.19,3.19,0,0,1-.39-.66c-1.43-4.61-2.69-9.18-4.5-13.69-.94,10.34.22,20.9-1.1,31.18a2.69,2.69,0,0,1-1.71.39c-1.15,0-1.1-.28-1.1-1.32,0-1.76.5-2.92.39-37.62,0-1.65,2.53-2.91,3.19-1.1l6.7,18.37c1.6-1.81,6.38-17.27,7.59-19.3.55-1.1,1.76-.94,3.14,0,.05,0,.33,18.15.38,25.9.06,4.89.33,10,.33,15a1.75,1.75,0,0,1-1.7,1.87c-.88,0-1.1-.22-1.43-1.1C473.79,193.82,473.46,182.76,472.91,171.71Z"/><path class="cls-2" d="M482.26,166.65a2,2,0,0,1,1.93-1.92h8.69a3,3,0,0,1,1.48,1.1.45.45,0,0,1,.06.27c0,1.1-1.49,1.6-2.37,1.6h-6.6l.28,18.26,5.94-.88h.27c2.59,0,1.6,2.52-.6,2.85l-5.5.83-.17,14.35c.5.06,2.37.06,2.86.06,3.69,0,6.38-1.27,6.55,1.26.11,1.87-12.21,1.65-12.21.61Z"/><path class="cls-2" d="M498.49,195.63c.05-4.73.05-26.72,0-31.4V164a3.06,3.06,0,0,1,1.59-3h.5a9.14,9.14,0,0,1,6.16,2c5.88,5.28,7,14.74,6.65,22.22-.44,10.61-2.91,20.73-12,21.83-1.76.22-2.91,0-2.91-2.09ZM501.62,185c0,4.89-.1,13.25,0,18.86,6.82-1,8.69-11.93,8.69-18,0-4.34-.27-21.34-7.92-21.34H502C501.9,167.64,501.62,182,501.62,185Z"/><path class="cls-2" d="M539,162.91h.22c9.9.44,11.27,12.05,11.27,20.08,0,.82-.05,1.64-.05,2.36-.28,10.45-3.25,18.86-12.6,18.86a11.4,11.4,0,0,1-2.36-.22s0-6.16.11-8.69c.16-7,.44-13.69.71-20.84.06-.93.17-9,.22-10l.06-.33C536.6,163.19,538.14,162.91,539,162.91Zm-.61,38.88a4.34,4.34,0,0,0,.61.06c7,0,8.14-11.77,8.36-16.28.27-5.17,0-18.92-7.7-19.58Z"/><path class="cls-2" d="M556,166.65a2,2,0,0,1,1.93-1.92h8.69a3,3,0,0,1,1.48,1.1.45.45,0,0,1,.06.27c0,1.1-1.49,1.6-2.37,1.6h-6.6l.28,18.26,5.94-.88h.27c2.59,0,1.6,2.52-.6,2.85l-5.5.83-.17,14.35c.5.06,2.37.06,2.86.06,3.69,0,6.38-1.27,6.55,1.26.11,1.87-12.21,1.65-12.21.61Z"/><path class="cls-2" d="M577.69,165.83c-3.41.22-5,.16-5.06-.77.11-1.87.11-2.53,5.83-2.2h4.62c1.21,0,3.24.22,3.24,1.81a1.22,1.22,0,0,1-1.1,1.05H580.6l1,34.92c0,.49-1.1.77-1.43.77s-1.43-.28-1.43-.77Z"/><path class="cls-2" d="M608.32,201.9c0-12.37.44-24.85.77-37.23.11-2.53,1-2.53,3.25-2.53h.55c5.06,0,8.3,3.3,8.3,8.14v.61c0,4-1,8.69-4.67,11.16a23.76,23.76,0,0,1,1.76,2.15c2.47,3.24,1.87,11.1,2.14,14.9,0,.33.33,2.86.33,3.19v.44c0,.93-.88,1-1.59,1h-.06c-.6,0-1.32,0-1.54-.77,0-1.81-.55-10.23-.66-12.1-.22-2.69-.77-6.38-4.12-6.38h-.88a31.65,31.65,0,0,0-.33,3.19c-.06.5-.33,12.71-.39,17.38,0,1,.17,2.2-1.21,2.2a2,2,0,0,1-1.65-.77Zm4.29-21.28c3.91,0,5.39-7.2,5.39-9.73s-1.21-5.89-4.34-5.89a1.29,1.29,0,0,0-1.38,1.43c.06,4.79-.38,8.8-.38,13.69C611.9,180.57,612.28,180.62,612.61,180.62Z"/><path class="cls-2" d="M628.18,165c.38-1.1.66-1.16,1.81-1.16,1.6,0,1.6.72,1.6,2.31,0,.17-.06.88-.06,1l-1.65,37.62c-.11,2.42-3.19,2.64-3.19,1Z"/><path class="cls-2" d="M635,184.75c0-6.88.82-21,10.06-21.45l.44-.06c2.15,0,6.11,1.38,6.11,3.47a1.87,1.87,0,0,1-.17.71c-1.1,2.64-3-1.21-6.16-1.65H645c-5.06.66-6.88,7.43-6.88,16.61v1.21l.11,6c.22,3.69,1.38,12.43,6.33,12.43h.22c3.63-.22,4.18-7.64,4.34-10.23a33.41,33.41,0,0,0,.39-5.82c-.17-3.47-6.27.27-6.44-2.64,0-1.27,1.54-1.54,2.48-1.54l1-.06c1.32-.05,6.05-.16,6.05,2.09v1c-.06,1.71-.5,7.81-.61,8.69-.49,4.84-1.59,11-7.48,11.22h-.44c-8.41,0-9-13.36-9.07-19.25Z"/><path class="cls-2" d="M660.19,165.83c-3.41.22-5,.16-5.06-.77.11-1.87.11-2.53,5.83-2.2h4.62c1.21,0,3.24.22,3.24,1.81a1.22,1.22,0,0,1-1.1,1.05H663.1l1,34.92c0,.49-1.1.77-1.43.77s-1.43-.28-1.43-.77Z"/><path class="cls-2" d="M674.1,165c.39-1.1.66-1.16,1.82-1.16,1.59,0,1.59.72,1.59,2.31,0,.17,0,.88,0,1l-1.65,37.62c-.11,2.42-3.19,2.64-3.19,1Z"/><path class="cls-2" d="M680.93,184.75c0-6.88.82-21,10.06-21.45l.44-.06c2.14,0,6.1,1.38,6.1,3.47a1.84,1.84,0,0,1-.16.71c-1.1,2.64-3-1.21-6.16-1.65h-.28c-5,.66-6.87,7.43-6.87,16.61v1.21l.11,6c.22,3.69,1.37,12.43,6.32,12.43h.22c3.63-.22,4.18-7.64,4.35-10.23a33.43,33.43,0,0,0,.38-5.82c-.16-3.47-6.27.27-6.43-2.64,0-1.27,1.54-1.54,2.47-1.54l1-.06c1.32-.05,6-.16,6,2.09v1c0,1.71-.49,7.81-.6,8.69-.5,4.84-1.6,11-7.48,11.22H690c-8.41,0-9-13.36-9.07-19.25Z"/><path class="cls-2" d="M704,166.65a2,2,0,0,1,1.92-1.92h8.69a3,3,0,0,1,1.48,1.1.45.45,0,0,1,.06.27c0,1.1-1.49,1.6-2.37,1.6h-6.6l.28,18.26,5.94-.88h.27c2.59,0,1.6,2.52-.6,2.85l-5.5.83-.17,14.35c.5.06,2.37.06,2.86.06,3.69,0,6.38-1.27,6.55,1.26.11,1.87-12.21,1.65-12.21.61Z"/><path class="cls-2" d="M749.12,162.36c9.85,1.1,8.42,24.53,7.87,31.84-.39,4-2.42,11-7.92,11-9.74,0-10.18-16.61-10.18-23C738.89,175.18,739.39,162.36,749.12,162.36ZM742,181.94c0,16.11,3,20.51,6.87,20.51,5.39,0,5.45-14,5.45-17.43v-.22c0-4.23-1.16-19.63-6.38-19.63-4.13,0-5.89,9.18-5.89,11.93C742,178.86,742,180.4,742,181.94Z"/><path class="cls-2" d="M762.93,201.9c0-12.37.44-24.85.77-37.23.11-2.53,1-2.53,3.24-2.53h.55c5.06,0,8.31,3.3,8.31,8.14v.61c0,4-1,8.69-4.68,11.16a22.18,22.18,0,0,1,1.76,2.15c2.48,3.24,1.87,11.1,2.15,14.9,0,.33.33,2.86.33,3.19v.44c0,.93-.88,1-1.6,1h0c-.61,0-1.32,0-1.54-.77-.06-1.81-.55-10.23-.66-12.1-.22-2.69-.77-6.38-4.13-6.38h-.88a31.65,31.65,0,0,0-.33,3.19c0,.5-.33,12.71-.38,17.38,0,1,.16,2.2-1.21,2.2a2,2,0,0,1-1.65-.77Zm4.29-21.28c3.9,0,5.39-7.2,5.39-9.73S771.4,165,768.26,165a1.29,1.29,0,0,0-1.37,1.43c.05,4.79-.39,8.8-.39,13.69C766.5,180.57,766.89,180.62,767.22,180.62Z"/><path class="cls-2" d="M781.3,195.63c.05-4.73.05-26.72,0-31.4V164a3.06,3.06,0,0,1,1.59-3h.5a9.14,9.14,0,0,1,6.16,2c5.88,5.28,7,14.74,6.65,22.22-.44,10.61-2.91,20.73-12,21.83-1.76.22-2.91,0-2.91-2.09ZM784.43,185c0,4.89-.11,13.25,0,18.86,6.82-1,8.69-11.93,8.69-18,0-4.34-.27-21.34-7.92-21.34h-.38C784.71,167.64,784.43,182,784.43,185Z"/><path class="cls-2" d="M95.12,233.92c0-2.81,1.82-4.51,6.33-4.79,1.37,0,5.61-.6,5.72,1.65,0,.77-.88,1-1.49,1.05-1.65-.06-7.15-.72-7.15,2.25v.44c.22,3.58.5,8,.88,11.11a19.56,19.56,0,0,0,3.08.06c.88-.06,4.07-1.32,4.07.66,0,2.58-5.72,1.86-7,2.36-.44,6,1,12,1,18.7v.22c0,2.36-2.53,1.87-2.86.22-.66-5.39-2.36-23.1-2.64-33.82Z"/><path class="cls-2" d="M122.35,228.36c9.84,1.1,8.41,24.53,7.86,31.84-.38,4-2.42,11-7.92,11-9.73,0-10.17-16.61-10.17-23C112.12,241.18,112.61,228.36,122.35,228.36Zm-7.1,19.58c0,16.11,3,20.51,6.88,20.51,5.39,0,5.44-14,5.44-17.43v-.22c0-4.23-1.15-19.63-6.38-19.63-4.12,0-5.88,9.18-5.88,11.93C115.25,244.86,115.25,246.4,115.25,247.94Z"/><path class="cls-2" d="M136.15,267.9c0-12.37.44-24.85.77-37.23.11-2.53,1.05-2.53,3.25-2.53h.55c5.06,0,8.3,3.3,8.3,8.14v.61c0,4-1,8.69-4.67,11.16a23.76,23.76,0,0,1,1.76,2.15c2.47,3.24,1.87,11.1,2.14,14.9,0,.33.33,2.86.33,3.19v.44c0,.93-.88,1-1.59,1h-.06c-.6,0-1.32,0-1.54-.77,0-1.81-.55-10.23-.66-12.1-.22-2.69-.77-6.38-4.12-6.38h-.88a31.65,31.65,0,0,0-.33,3.19c-.06.5-.33,12.71-.39,17.38,0,1.05.17,2.2-1.21,2.2a2,2,0,0,1-1.65-.77Zm4.29-21.28c3.91,0,5.39-7.2,5.39-9.73s-1.21-5.89-4.34-5.89a1.29,1.29,0,0,0-1.38,1.43c.06,4.79-.38,8.8-.38,13.69C139.73,246.57,140.11,246.62,140.44,246.62Z"/><path class="cls-2" d="M175.15,260.81l-.33.33-.94,6.21c-.11.83,0,3.19-1.65,3.19-.71,0-1.21-1.43-1.21-2,5.72-39.87,5.78-40,5.78-40,.27-1,.66-2.58,2-2.58a2.06,2.06,0,0,1,1.71.82L181,228c3.19,12.59,4.67,25.51,6.15,38.49l.33,3.58c0,.05-.05.05-.05.11-.38,1-.6,1.48-1.65,1.48h-.16c-.33,0-.88,0-.94-.38l-1.37-10.45Zm.82-3.41,6.88.16-3.69-25.68Z"/><path class="cls-2" d="M192,231.83c-3.41.22-4.95.16-5.06-.77.11-1.87.11-2.53,5.83-2.2h4.62c1.21,0,3.24.22,3.24,1.81a1.22,1.22,0,0,1-1.1,1.05h-4.62l1.05,34.92c0,.49-1.1.77-1.43.77s-1.43-.28-1.43-.77Z"/><path class="cls-2" d="M222.61,267.9c0-12.37.44-24.85.77-37.23.11-2.53,1.05-2.53,3.25-2.53h.55c5.06,0,8.3,3.3,8.3,8.14v.61c0,4-1,8.69-4.67,11.16a23.76,23.76,0,0,1,1.76,2.15c2.47,3.24,1.87,11.1,2.14,14.9,0,.33.33,2.86.33,3.19v.44c0,.93-.88,1-1.59,1h-.06c-.6,0-1.32,0-1.54-.77,0-1.81-.55-10.23-.66-12.1-.22-2.69-.77-6.38-4.12-6.38h-.88a31.65,31.65,0,0,0-.33,3.19c-.06.5-.33,12.71-.39,17.38,0,1.05.17,2.2-1.21,2.2a2,2,0,0,1-1.65-.77Zm4.29-21.28c3.91,0,5.39-7.2,5.39-9.73S231.08,231,228,231a1.29,1.29,0,0,0-1.38,1.43c.06,4.79-.38,8.8-.38,13.69C226.19,246.57,226.57,246.62,226.9,246.62Z"/><path class="cls-2" d="M241,232.65a2,2,0,0,1,1.93-1.92h8.69a3,3,0,0,1,1.48,1.1.52.52,0,0,1,0,.27c0,1.1-1.48,1.6-2.36,1.6h-6.6l.28,18.26,5.94-.88h.27c2.59,0,1.6,2.52-.6,2.85l-5.5.83-.17,14.35c.5.06,2.37.06,2.86.06,3.69,0,6.38-1.27,6.54,1.26.12,1.87-12.2,1.65-12.2.61Z"/><path class="cls-2" d="M257.21,261.63c.05-4.73.05-26.72,0-31.4V230a3.06,3.06,0,0,1,1.59-3h.5a9.14,9.14,0,0,1,6.16,2c5.88,5.28,7,14.74,6.65,22.22-.44,10.61-2.91,20.73-12,21.83-1.76.22-2.91-.05-2.91-2.09ZM260.34,251c0,4.89-.11,13.25,0,18.86,6.82-1,8.69-11.93,8.69-18,0-4.34-.27-21.34-7.92-21.34h-.38C260.62,233.64,260.34,248,260.34,251Z"/><path class="cls-2" d="M277.67,261.63c.05-4.73.05-26.72,0-31.4V230a3.06,3.06,0,0,1,1.59-3h.5a9.14,9.14,0,0,1,6.16,2c5.88,5.28,7,14.74,6.65,22.22-.44,10.61-2.91,20.73-12,21.83-1.76.22-2.91-.05-2.91-2.09ZM280.8,251c0,4.89-.11,13.25,0,18.86,6.82-1,8.69-11.93,8.69-18,0-4.34-.27-21.34-7.92-21.34h-.38C281.08,233.64,280.8,248,280.8,251Z"/><path class="cls-2" d="M298.13,232.65a2,2,0,0,1,1.92-1.92h8.69a3,3,0,0,1,1.49,1.1.52.52,0,0,1,0,.27c0,1.1-1.48,1.6-2.36,1.6h-6.6l.27,18.26,5.94-.88h.28c2.58,0,1.59,2.52-.61,2.85l-5.5.83-.16,14.35c.49.06,2.36.06,2.86.06,3.68,0,6.38-1.27,6.54,1.26.11,1.87-12.21,1.65-12.21.61Z"/><path class="cls-2" d="M333,267.9c0-12.37.44-24.85.77-37.23.11-2.53,1-2.53,3.24-2.53h.55c5.06,0,8.31,3.3,8.31,8.14v.61c0,4-1.05,8.69-4.68,11.16A22.18,22.18,0,0,1,343,250.2c2.47,3.24,1.87,11.1,2.15,14.9,0,.33.32,2.86.32,3.19v.44c0,.93-.88,1-1.59,1h-.05c-.61,0-1.32,0-1.54-.77-.06-1.81-.55-10.23-.66-12.1-.22-2.69-.77-6.38-4.13-6.38h-.88a31.65,31.65,0,0,0-.33,3.19c-.05.5-.33,12.71-.38,17.38,0,1.05.16,2.2-1.21,2.2a2,2,0,0,1-1.65-.77Zm4.29-21.28c3.9,0,5.39-7.2,5.39-9.73s-1.21-5.89-4.35-5.89a1.29,1.29,0,0,0-1.37,1.43c.05,4.79-.39,8.8-.39,13.69C336.57,246.57,337,246.62,337.29,246.62Z"/><path class="cls-2" d="M351.37,232.65a2,2,0,0,1,1.92-1.92H362a3,3,0,0,1,1.48,1.1.45.45,0,0,1,.06.27c0,1.1-1.48,1.6-2.36,1.6h-6.6l.27,18.26,5.94-.88H361c2.59,0,1.6,2.52-.6,2.85l-5.5.83-.16,14.35c.49.06,2.36.06,2.86.06,3.68,0,6.37-1.27,6.54,1.26.11,1.87-12.21,1.65-12.21.61Z"/><path class="cls-2" d="M366.38,250.75c0-6.88.83-21,10.07-21.45l.43-.06c2.15,0,6.11,1.38,6.11,3.47a1.87,1.87,0,0,1-.17.71c-1.1,2.64-3-1.21-6.15-1.65h-.28c-5.06.66-6.87,7.43-6.87,16.61v1.21l.11,6C369.85,259.27,371,268,376,268h.22c3.63-.22,4.18-7.64,4.34-10.23a33.41,33.41,0,0,0,.39-5.82c-.17-3.47-6.27.27-6.43-2.64,0-1.27,1.54-1.54,2.47-1.54l1-.06c1.32-.05,6.05-.16,6.05,2.09v1c-.06,1.71-.5,7.81-.6,8.69-.5,4.84-1.6,10.95-7.48,11.22h-.44c-8.42,0-9-13.36-9.08-19.25Z"/><path class="cls-2" d="M390.14,232.32c-.11-2.2,2.92-3.52,4.07-.33l11.22,30.41c.05-2.42.49-15.94.82-21.33.17-3.3-.05-6.66.66-9.74,0-.6.61-.6,1.43-.6,1.32.05,1.43.11,1.38,1.32-.17,5.72-1,11.44-1.21,17.16-.11,3.18-.66,18.42-.66,21.61-.39,1.15-2.09.49-2.53-.44-.55-1.16-1-2.26-12.65-33.44l-.38,33.77c0,1.65-2.81,1.48-2.81.33Z"/><path class="cls-2" d="M426.93,233.86a11.2,11.2,0,0,1-3,7.54c6.27,3.9,8.75,8.57,8.75,15.94,0,7.87-4.35,14.58-13,14.58a2.23,2.23,0,0,1-1.92-.83c-.61-8.47-.61-16.88-1.43-26.83l-1.1-13.09V230C418.85,225.94,426.93,227.1,426.93,233.86Zm-7.64,6.44c2.81,0,4.67-3.19,4.67-6.22s-2.58-4.23-5.49-2.86Zm2.42,28.32c5.83,0,7.75-6,7.75-11.28,0-6.1-2.8-13.52-10-13.52,0,8.3.6,16.49,1.26,24.74A5.49,5.49,0,0,0,421.71,268.62Z"/><path class="cls-2" d="M444.48,269.44a11.33,11.33,0,0,1-1.32-.11c-6.76-.82-7.26-17.54-7.81-36.79l-.11-2.69v-.28c0-1.21,2.92-1.15,3.3,0,.93,1.59-1.48,37.39,6,37.39,1.92,0,2.53-3.13,2.58-4.62.17-6.82.06-22.16-.22-32.77.28-.88.61-1,1.6-1s1.65.16,1.7,1.1c.28,9.68-.16,19.46.11,29.58C450.25,264,450.2,269.44,444.48,269.44Z"/><path class="cls-2" d="M455.87,232.65a2,2,0,0,1,1.92-1.92h8.69a3,3,0,0,1,1.48,1.1.45.45,0,0,1,.06.27c0,1.1-1.49,1.6-2.37,1.6h-6.6l.28,18.26,5.94-.88h.27c2.59,0,1.6,2.52-.6,2.85l-5.5.83-.16,14.35c.49.06,2.36.06,2.85.06,3.69,0,6.38-1.27,6.55,1.26.11,1.87-12.21,1.65-12.21.61Z"/><path class="cls-2" d="M474.9,232.32c-.11-2.2,2.91-3.52,4.06-.33l11.22,30.41c.06-2.42.5-15.94.83-21.33.16-3.3-.06-6.66.66-9.74,0-.6.6-.6,1.43-.6,1.32.05,1.43.11,1.37,1.32-.16,5.72-1,11.44-1.21,17.16-.11,3.18-.66,18.42-.66,21.61-.38,1.15-2.09.49-2.53-.44-.55-1.16-1-2.26-12.65-33.44L477,270.71c0,1.65-2.8,1.48-2.8.33Z"/><path class="cls-2" d="M516.58,233.92c0-2.81,1.82-4.51,6.33-4.79,1.37,0,5.61-.6,5.72,1.65,0,.77-.88,1-1.49,1.05-1.65-.06-7.15-.72-7.15,2.25v.44c.22,3.58.5,8,.88,11.11a19.56,19.56,0,0,0,3.08.06c.88-.06,4.07-1.32,4.07.66,0,2.58-5.72,1.86-7,2.36-.44,6,1,12,1,18.7v.22c0,2.36-2.53,1.87-2.86.22-.66-5.39-2.36-23.1-2.64-33.82Z"/><path class="cls-2" d="M534.13,267.9c0-12.37.44-24.85.77-37.23.11-2.53,1-2.53,3.24-2.53h.55c5.06,0,8.31,3.3,8.31,8.14v.61c0,4-1,8.69-4.68,11.16a22.18,22.18,0,0,1,1.76,2.15c2.48,3.24,1.87,11.1,2.15,14.9,0,.33.33,2.86.33,3.19v.44c0,.93-.88,1-1.6,1h-.05c-.61,0-1.32,0-1.54-.77-.06-1.81-.55-10.23-.66-12.1-.22-2.69-.77-6.38-4.13-6.38h-.88a31.65,31.65,0,0,0-.33,3.19c0,.5-.33,12.71-.38,17.38,0,1.05.16,2.2-1.21,2.2a2,2,0,0,1-1.65-.77Zm4.29-21.28c3.9,0,5.39-7.2,5.39-9.73S542.6,231,539.46,231a1.29,1.29,0,0,0-1.37,1.43c0,4.79-.39,8.8-.39,13.69C537.7,246.57,538.09,246.62,538.42,246.62Z"/><path class="cls-2" d="M556.62,260.81l-.33.33-.93,6.21c-.11.83-.06,3.19-1.65,3.19-.72,0-1.21-1.43-1.21-2,5.72-39.87,5.77-40,5.77-40,.28-1,.66-2.58,2-2.58a2.05,2.05,0,0,1,1.7.82l.44,1.16c3.19,12.59,4.68,25.51,6.16,38.49l.33,3.58c0,.05-.05.05-.05.11-.39,1-.61,1.48-1.65,1.48h-.17c-.33,0-.88,0-.93-.38l-1.38-10.45Zm.83-3.41,6.87.16-3.68-25.68Z"/><path class="cls-2" d="M591,250.75c0-6.88.82-21,10.06-21.45l.44-.06c2.15,0,6.1,1.38,6.1,3.47a1.84,1.84,0,0,1-.16.71c-1.1,2.64-3-1.21-6.16-1.65H601c-5.06.66-6.88,7.43-6.88,16.61v1.21l.11,6c.22,3.69,1.38,12.43,6.33,12.43h.22c3.63-.22,4.17-7.64,4.34-10.23a33.43,33.43,0,0,0,.38-5.82c-.16-3.47-6.26.27-6.43-2.64,0-1.27,1.54-1.54,2.48-1.54l1-.06c1.32-.05,6-.16,6,2.09v1c-.05,1.71-.49,7.81-.6,8.69-.49,4.84-1.6,10.95-7.48,11.22h-.44c-8.41,0-9-13.36-9.07-19.25Z"/><path class="cls-2" d="M614.1,267.9c0-12.37.44-24.85.77-37.23.11-2.53,1-2.53,3.24-2.53h.55c5.06,0,8.31,3.3,8.31,8.14v.61c0,4-1.05,8.69-4.68,11.16a22.18,22.18,0,0,1,1.76,2.15c2.48,3.24,1.87,11.1,2.15,14.9,0,.33.33,2.86.33,3.19v.44c0,.93-.88,1-1.6,1h0c-.61,0-1.32,0-1.54-.77-.06-1.81-.55-10.23-.66-12.1-.22-2.69-.77-6.38-4.13-6.38h-.88a31.65,31.65,0,0,0-.33,3.19c-.05.5-.33,12.71-.38,17.38,0,1.05.16,2.2-1.21,2.2a2,2,0,0,1-1.65-.77Zm4.29-21.28c3.9,0,5.39-7.2,5.39-9.73s-1.21-5.89-4.35-5.89a1.29,1.29,0,0,0-1.37,1.43c.05,4.79-.39,8.8-.39,13.69C617.67,246.57,618.06,246.62,618.39,246.62Z"/><path class="cls-2" d="M641.21,218.13a4.06,4.06,0,0,1,4.18,4.24c0,2.42-.93,4.62-3.08,5.28l.11.33c3.19,12.59,4.67,25.51,6.16,38.49l.33,3.58c0,.05-.06.05-.06.11-.38,1-.6,1.48-1.65,1.48H647c-.33,0-.88,0-.94-.38l-1.37-10.45h-8.14l-.33.33-.93,6.21c-.11.83-.06,3.19-1.65,3.19-.72,0-1.21-1.43-1.21-2,5.72-39.87,5.77-40,5.77-40a5.59,5.59,0,0,1,.33-1.1,3.72,3.72,0,0,1-2.64-3.68C635.93,220.39,637.64,218.13,641.21,218.13Zm-3.79,39.27,6.87.16-3.68-25.68Zm2.69-31.79a2.85,2.85,0,0,0,3-3.13c0-1-.38-2.26-1.64-2.26A3.45,3.45,0,0,0,638,223.8C638,225,639,225.61,640.11,225.61Z"/><path class="cls-2" d="M650,228c.33-.44,2.09-1.1,2.53-.66a3.85,3.85,0,0,1,1.05,1l4.67,33.88c1.82-10.07,3.74-22.77,5.5-32.83,0-1.87.77-2.15,1.76-2.15a1.54,1.54,0,0,1,1.76,1.1c-2.36,9.08-3.74,18.54-5.28,27.77l-2.14,14.14c-.39,1-.94,1-1.71,1-.6,0-1.21,0-1.43-.71C653.81,256.85,652.65,242,650,228Z"/><path class="cls-2" d="M672.23,232.65a2,2,0,0,1,1.93-1.92h8.68a3,3,0,0,1,1.49,1.1.52.52,0,0,1,0,.27c0,1.1-1.48,1.6-2.36,1.6h-6.6L675.7,252l5.93-.88h.28c2.58,0,1.59,2.52-.61,2.85l-5.49.83-.17,14.35c.5.06,2.36.06,2.86.06,3.68,0,6.38-1.27,6.54,1.26.11,1.87-12.2,1.65-12.2.61Z"/><path class="cls-2" d="M690,268.51h.27c2.2.11.77,2,2.64,2,5.23,0,4.4-33.05,4.84-36.3.28-2.14-.33-3,1.37-3.68h.23c2,.11,2.14,1.1,2.19,2.8l-.6,10c-1,21.83-1.7,29.7-8.25,29.7h-.44c-1.7-.11-3.74-1.27-3.74-3.36C688.57,268.78,689.17,268.51,690,268.51Z"/><path class="cls-2" d="M706.88,267.9c0-12.37.44-24.85.77-37.23.11-2.53,1.05-2.53,3.25-2.53h.55c5,0,8.3,3.3,8.3,8.14v.61c0,4-1,8.69-4.67,11.16a22.11,22.11,0,0,1,1.75,2.15c2.48,3.24,1.88,11.1,2.15,14.9,0,.33.33,2.86.33,3.19v.44c0,.93-.88,1-1.6,1h-.05c-.61,0-1.32,0-1.54-.77,0-1.81-.55-10.23-.66-12.1-.22-2.69-.77-6.38-4.12-6.38h-.88a31.65,31.65,0,0,0-.33,3.19c-.06.5-.33,12.71-.39,17.38,0,1.05.17,2.2-1.21,2.2a2,2,0,0,1-1.65-.77Zm4.29-21.28c3.91,0,5.39-7.2,5.39-9.73s-1.21-5.89-4.34-5.89a1.29,1.29,0,0,0-1.38,1.43c.06,4.79-.38,8.8-.38,13.69C710.46,246.57,710.84,246.62,711.17,246.62Z"/><path class="cls-2" d="M725.25,232.65a2,2,0,0,1,1.93-1.92h8.69a3,3,0,0,1,1.48,1.1.45.45,0,0,1,.06.27c0,1.1-1.49,1.6-2.37,1.6h-6.6l.28,18.26,5.94-.88h.27c2.58,0,1.6,2.52-.6,2.85l-5.5.83-.17,14.35c.5.06,2.37.06,2.86.06,3.69,0,6.38-1.27,6.54,1.26.11,1.87-12.2,1.65-12.2.61Z"/><path class="cls-2" d="M747,231.83c-3.41.22-5,.16-5.06-.77.11-1.87.11-2.53,5.83-2.2h4.62c1.21,0,3.24.22,3.24,1.81a1.22,1.22,0,0,1-1.1,1.05h-4.62l1.05,34.92c0,.49-1.1.77-1.43.77s-1.43-.28-1.43-.77Z"/><path class="cls-2" d="M758.25,268.07a2.49,2.49,0,0,1,2.48,2.69c0,1.21-1.16,1.38-2.2,1.38-1.38,0-2.15-.88-2.15-2.42C756.38,269,757.59,268.07,758.25,268.07Z"/><path class="cls-2" d="M85.25,331V320.1c0-7.86-.77-12.92-.77-20.79v-2.8c8.8-.72,9.79-.11,9.79,1.1,0,.38-.27,1.21-.66,1.37h-6c-.39,0-.39.28-.39.44,0,5.83.55,10.12.88,16.12.83.21,5.44,0,6.38,0,1.87.05,3.13,3.24.61,3.24h-7l.11,12.87c1.32.33,8.31-1,8.31,1.38a1.33,1.33,0,0,1-1,1.43h-.27c-2,.16-9.85.77-9.9-.83Z"/><path class="cls-2" d="M102,295.41a1.52,1.52,0,0,1,1.54-1.6c1.1,0,1.59.66,1.64,2.09l.56,18.37c3.29-6.6,6-12.43,7.36-17,.44-1.54.5-3.74,2.48-3.74.77,0,2.25.33,1.48,2.75l-8.91,20.57,10.29,19.08a1.63,1.63,0,0,1-1.38,2.48c-.71,0-1,0-1.43-.72-3.08-5.55-6-12.81-9.78-18.53v.44c0,2.53.71,11.55.71,18.48-.61,1.48-2.91,2.09-3-.11Z"/><path class="cls-2" d="M123.64,328.24c2.2.66.11,5.5,2.86,7.09h.33c3.08,0,4-4.23,4-6.49a22.54,22.54,0,0,0-1.49-9.13c-2.58-5.93-8.13-10.88-8.13-17.7,0-3.08,1.87-8.2,5.66-8.2,2.42,0,6.43,1.93,6.43,4.79,0,1-.33,1.65-1.43,1.65-2.14,0-1.48-3.3-4.5-3.3-2.81,0-3,3.9-3,5.83,0,5.55,4.67,9.46,7.15,14.07,2.26,4.24,3.41,10.4,2.09,14.58-.88,2.86-3.35,6.76-6.71,6.76-4.07,0-5.33-5.06-5.33-8.36A1.86,1.86,0,0,1,123.64,328.24Z"/><path class="cls-2" d="M139.65,298.65a2,2,0,0,1,1.92-1.92h8.69a3,3,0,0,1,1.48,1.1.45.45,0,0,1,.06.27c0,1.1-1.49,1.6-2.37,1.6h-6.59l.27,18.26,5.94-.88h.27c2.59,0,1.6,2.52-.6,2.85l-5.5.83-.16,14.35c.49.06,2.36.06,2.86.06,3.68,0,6.37-1.27,6.54,1.26.11,1.87-12.21,1.65-12.21.61Z"/><path class="cls-2" d="M175.94,303.71,170,318.34c-.11,1.1-2.69,1.21-3.13.71a2.81,2.81,0,0,1-.38-.66c-1.44-4.61-2.7-9.18-4.51-13.69-.94,10.34.22,20.9-1.1,31.18a2.69,2.69,0,0,1-1.71.39c-1.15,0-1.1-.28-1.1-1.32,0-1.76.5-2.92.39-37.62,0-1.65,2.53-2.91,3.19-1.1l6.71,18.37c1.59-1.81,6.37-17.27,7.58-19.3.55-1.1,1.76-.94,3.14,0,0,0,.33,18.15.38,25.9.06,4.89.33,10,.33,15a1.75,1.75,0,0,1-1.7,1.87c-.88,0-1.1-.22-1.43-1.1C176.82,325.82,176.49,314.76,175.94,303.71Z"/><path class="cls-2" d="M185.29,325.21c0-4.4.28-25,.39-29.36.28-.77,1.65-.66,2.31-.66,5.72,0,9.84,5.06,9.84,10.56,0,5.94-4.07,12.59-9.51,15.12,0,.88-.28,5.17-.28,6.05,0,1.87,0,10.34,0,12.15a2,2,0,0,1-1.7.72,1.55,1.55,0,0,1-1.05-.33Zm2.92-8a1.71,1.71,0,0,0,1.16-.38c3.18-2.92,5-6.27,5-10.67,0-2.86-2-8-5.82-8Z"/><path class="cls-2" d="M203.33,298.65a2,2,0,0,1,1.93-1.92H214a3,3,0,0,1,1.48,1.1.45.45,0,0,1,.06.27c0,1.1-1.49,1.6-2.37,1.6h-6.6L206.8,318l5.94-.88H213c2.59,0,1.6,2.52-.6,2.85l-5.5.83-.17,14.35c.5.06,2.37.06,2.86.06,3.69,0,6.38-1.27,6.55,1.26.11,1.87-12.21,1.65-12.21.61Z"/><path class="cls-2" d="M223.13,338.25s-.71-28.38-.71-32.12c0-1-.66-9.46-.71-10.5v-.39a1.07,1.07,0,0,1,.38-1,6.51,6.51,0,0,1,1-.11c1,0,1.43-.05,1.76,1.16a23.49,23.49,0,0,1,.33,5.61c.28,11.21.39,22.6,1.05,33.93h.38c2.31,0,4.51-.77,6.88-.77.88,0,1.87.22,1.87,1.32a1.16,1.16,0,0,1-1.1,1.21Z"/><path class="cls-2" d="M242.77,306a2.49,2.49,0,0,1,2.47,2.7c0,1.21-1.15,1.37-2.2,1.37-1.37,0-2.14-.88-2.14-2.42C240.9,307,242.11,306,242.77,306Zm0,28.05a2.48,2.48,0,0,1,2.47,2.69c0,1.21-1.15,1.38-2.2,1.38-1.37,0-2.14-.88-2.14-2.42C240.9,335,242.11,334.07,242.77,334.07Z"/><path class="cls-2" d="M268.18,295.46a2.17,2.17,0,0,1,1.37-.66c2,0,1.87,2.09,1.82,3.52v.33c-.11,5.5-.77,10.89-.88,16.39-.11,3.74-1.87,18.81,4,18.81,2.7,0,4.51-5.28,4.9-7a144.71,144.71,0,0,0,3.3-29.42v-1.21c0-.82,1.1-1.1,1.81-1.1a1.75,1.75,0,0,1,1.71,1.65l-.06.83a221.27,221.27,0,0,1-2.69,24.69l-.11.71c-.06.11-.06.33-.17.55-.66,4-2.25,13-8.36,13-7,0-7.53-7.48-7.53-12.27v-1c0-.33.05-7.42.11-10.06C267.57,307.34,267.57,301.4,268.18,295.46Z"/><path class="cls-2" d="M292.38,298.32c-.11-2.2,2.91-3.52,4.07-.33l11.22,30.41c.05-2.42.49-15.94.82-21.33.17-3.3-.05-6.66.66-9.74,0-.6.61-.6,1.43-.6,1.32,0,1.43.11,1.38,1.32-.17,5.72-1,11.44-1.21,17.16-.12,3.18-.66,18.42-.66,21.61-.39,1.15-2.09.49-2.53-.44-.55-1.16-1-2.26-12.65-33.44l-.39,33.77c0,1.65-2.8,1.48-2.8.33Z"/><path class="cls-2" d="M317.51,327.63c.06-4.73.06-26.72,0-31.4V296a3,3,0,0,1,1.6-3h.49a9.14,9.14,0,0,1,6.16,2c5.89,5.28,7,14.74,6.66,22.22-.44,10.61-2.92,20.73-12,21.83-1.76.22-2.92-.05-2.92-2.09ZM320.65,317c0,4.89-.11,13.25,0,18.86,6.82-1,8.69-11.93,8.69-18,0-4.34-.28-21.34-7.92-21.34H321C320.92,299.64,320.65,314,320.65,317Z"/><path class="cls-2" d="M338,298.65a2,2,0,0,1,1.93-1.92h8.69a3,3,0,0,1,1.48,1.1.52.52,0,0,1,.05.27c0,1.1-1.48,1.6-2.36,1.6h-6.6l.28,18.26,5.94-.88h.27c2.59,0,1.6,2.52-.61,2.85l-5.49.83-.17,14.35c.5.06,2.37.06,2.86.06,3.69,0,6.38-1.27,6.55,1.26.1,1.87-12.21,1.65-12.21.61Z"/><path class="cls-2" d="M356.34,333.9c0-12.37.44-24.85.77-37.23.11-2.53,1.05-2.53,3.25-2.53h.55c5.06,0,8.3,3.3,8.3,8.14v.61c0,4-1,8.69-4.67,11.16a22.11,22.11,0,0,1,1.75,2.15c2.48,3.24,1.88,11.1,2.15,14.9,0,.33.33,2.86.33,3.19v.44c0,.93-.88,1-1.59,1h-.06c-.6,0-1.32,0-1.54-.77-.05-1.81-.55-10.23-.66-12.1-.22-2.69-.77-6.38-4.12-6.38h-.88a31.65,31.65,0,0,0-.33,3.19c-.06.5-.33,12.71-.39,17.38,0,1.05.17,2.2-1.21,2.2a2,2,0,0,1-1.65-.77Zm4.29-21.28c3.91,0,5.39-7.2,5.39-9.73s-1.21-5.89-4.34-5.89a1.29,1.29,0,0,0-1.38,1.43c.06,4.79-.38,8.8-.38,13.69C359.92,312.57,360.3,312.62,360.63,312.62Z"/><path class="cls-2" d="M391.21,298.65a2,2,0,0,1,1.93-1.92h8.69a3,3,0,0,1,1.48,1.1.45.45,0,0,1,.06.27c0,1.1-1.49,1.6-2.37,1.6h-6.6l.28,18.26,5.94-.88h.27c2.58,0,1.59,2.52-.6,2.85l-5.5.83-.17,14.35c.5.06,2.37.06,2.86.06,3.69,0,6.38-1.27,6.55,1.26.1,1.87-12.21,1.65-12.21.61Z"/><path class="cls-2" d="M410.24,298.32c-.11-2.2,2.92-3.52,4.07-.33l11.22,30.41c.05-2.42.49-15.94.82-21.33.17-3.3-.05-6.66.66-9.74,0-.6.61-.6,1.43-.6,1.32,0,1.43.11,1.38,1.32-.17,5.72-1,11.44-1.21,17.16-.11,3.18-.66,18.42-.66,21.61-.39,1.15-2.09.49-2.53-.44-.55-1.16-1-2.26-12.65-33.44l-.38,33.77c0,1.65-2.81,1.48-2.81.33Z"/><path class="cls-2" d="M451.88,325.21c0-4.4.27-25,.38-29.36.28-.77,1.65-.66,2.31-.66,5.72,0,9.84,5.06,9.84,10.56,0,5.94-4.07,12.59-9.51,15.12-.06.88-.28,5.17-.28,6.05-.05,1.87-.05,10.34,0,12.15a2,2,0,0,1-1.7.72,1.48,1.48,0,0,1-1-.33Zm2.91-8a1.68,1.68,0,0,0,1.15-.38c3.19-2.92,5.06-6.27,5.06-10.67,0-2.86-2-8-5.83-8Z"/><path class="cls-2" d="M468.43,297c.39-1.1.66-1.16,1.82-1.16,1.59,0,1.59.72,1.59,2.31,0,.17,0,.88,0,1l-1.66,37.62c-.1,2.42-3.18,2.64-3.18,1Z"/><path class="cls-2" d="M478,298.32c-.11-2.2,2.91-3.52,4.07-.33l11.22,30.41c0-2.42.49-15.94.82-21.33.17-3.3-.05-6.66.66-9.74,0-.6.61-.6,1.43-.6,1.32,0,1.43.11,1.38,1.32-.17,5.72-1,11.44-1.21,17.16-.11,3.18-.66,18.42-.66,21.61-.39,1.15-2.09.49-2.53-.44-.55-1.16-1-2.26-12.65-33.44l-.39,33.77c0,1.65-2.8,1.48-2.8.33Z"/><path class="cls-2" d="M503.13,295.41a1.52,1.52,0,0,1,1.54-1.6c1.1,0,1.6.66,1.65,2.09l.56,18.37c3.29-6.6,6-12.43,7.36-17,.44-1.54.5-3.74,2.48-3.74.77,0,2.25.33,1.48,2.75l-8.91,20.57,10.29,19.08a1.63,1.63,0,0,1-1.38,2.48c-.71,0-1,0-1.43-.72-3.08-5.55-6-12.81-9.79-18.53v.44c0,2.53.72,11.55.72,18.48-.61,1.48-2.91,2.09-3-.11Z"/><path class="cls-2" d="M544.27,328.24c2.2.66.11,5.5,2.86,7.09h.33c3.08,0,4-4.23,4-6.49a22.7,22.7,0,0,0-1.48-9.13c-2.59-5.93-8.14-10.88-8.14-17.7,0-3.08,1.87-8.2,5.66-8.2,2.42,0,6.44,1.93,6.44,4.79,0,1-.33,1.65-1.43,1.65-2.15,0-1.49-3.3-4.51-3.3-2.81,0-3,3.9-3,5.83,0,5.55,4.68,9.46,7.15,14.07,2.26,4.24,3.41,10.4,2.09,14.58-.88,2.86-3.35,6.76-6.71,6.76-4.07,0-5.33-5.06-5.33-8.36A1.86,1.86,0,0,1,544.27,328.24Z"/><path class="cls-2" d="M561.87,297.83c-3.41.22-5,.16-5.06-.77.11-1.87.11-2.53,5.83-2.2h4.62c1.21.05,3.25.22,3.25,1.81a1.23,1.23,0,0,1-1.1,1.05h-4.62l1,34.92c0,.49-1.1.77-1.43.77s-1.43-.28-1.43-.77Z"/><path class="cls-2" d="M569.79,334.51h.28c2.2.11.77,2,2.64,2,5.22,0,4.4-33.05,4.84-36.3.27-2.14-.33-3,1.37-3.68h.22c2,.11,2.15,1.1,2.2,2.8l-.6,10c-1,21.83-1.71,29.7-8.25,29.7h-.44c-1.7-.11-3.74-1.27-3.74-3.36C568.37,334.78,569,334.51,569.79,334.51Z"/><path class="cls-2" d="M586.68,298.65a2,2,0,0,1,1.92-1.92h8.69a3,3,0,0,1,1.49,1.1.52.52,0,0,1,.05.27c0,1.1-1.48,1.6-2.36,1.6h-6.6l.27,18.26,5.94-.88h.28c2.58,0,1.59,2.52-.61,2.85l-5.5.83-.16,14.35c.49.06,2.36.06,2.86.06,3.68,0,6.38-1.27,6.54,1.26.11,1.87-12.21,1.65-12.21.61Z"/><path class="cls-2" d="M605.05,333.9c0-12.37.44-24.85.77-37.23.11-2.53,1-2.53,3.24-2.53h.55c5.06,0,8.31,3.3,8.31,8.14v.61c0,4-1,8.69-4.68,11.16A22.18,22.18,0,0,1,615,316.2c2.48,3.24,1.87,11.1,2.15,14.9,0,.33.33,2.86.33,3.19v.44c0,.93-.88,1-1.6,1h0c-.61,0-1.32,0-1.54-.77-.06-1.81-.55-10.23-.66-12.1-.22-2.69-.77-6.38-4.13-6.38h-.88a31.65,31.65,0,0,0-.33,3.19c0,.5-.33,12.71-.38,17.38,0,1.05.16,2.2-1.21,2.2a2,2,0,0,1-1.65-.77Zm4.29-21.28c3.9,0,5.39-7.2,5.39-9.73s-1.21-5.89-4.35-5.89a1.29,1.29,0,0,0-1.37,1.43c0,4.79-.39,8.8-.39,13.69C608.62,312.57,609,312.62,609.34,312.62Z"/><path class="cls-2" d="M624.08,298.32c-.11-2.2,2.91-3.52,4.07-.33l11.22,30.41c0-2.42.49-15.94.82-21.33.17-3.3-.05-6.66.66-9.74,0-.6.61-.6,1.43-.6,1.32,0,1.43.11,1.38,1.32-.17,5.72-1,11.44-1.21,17.16-.11,3.18-.66,18.42-.66,21.61-.39,1.15-2.09.49-2.53-.44-.55-1.16-1-2.26-12.65-33.44l-.39,33.77c0,1.65-2.8,1.48-2.8.33Z"/><path class="cls-2" d="M649.21,298.65a2,2,0,0,1,1.93-1.92h8.69a3,3,0,0,1,1.48,1.1.45.45,0,0,1,.06.27c0,1.1-1.49,1.6-2.37,1.6h-6.6l.28,18.26,5.94-.88h.27c2.59,0,1.6,2.52-.6,2.85l-5.5.83-.17,14.35c.5.06,2.37.06,2.86.06,3.69,0,6.38-1.27,6.55,1.26.11,1.87-12.21,1.65-12.21.61Z"/><path class="cls-2" d="M686.56,328.24c2.2.66.11,5.5,2.86,7.09h.33c3.08,0,4-4.23,4-6.49a22.54,22.54,0,0,0-1.49-9.13c-2.58-5.93-8.14-10.88-8.14-17.7,0-3.08,1.87-8.2,5.67-8.2,2.42,0,6.43,1.93,6.43,4.79,0,1-.33,1.65-1.43,1.65-2.14,0-1.48-3.3-4.51-3.3-2.8,0-3,3.9-3,5.83,0,5.55,4.67,9.46,7.15,14.07,2.25,4.24,3.41,10.4,2.09,14.58-.88,2.86-3.36,6.76-6.71,6.76-4.07,0-5.34-5.06-5.34-8.36A1.87,1.87,0,0,1,686.56,328.24Z"/><path class="cls-2" d="M700.42,295.41a1.52,1.52,0,0,1,1.54-1.6c1.1,0,1.59.66,1.65,2.09l.55,18.37c3.3-6.6,6.05-12.43,7.37-17,.44-1.54.49-3.74,2.47-3.74.77,0,2.26.33,1.49,2.75l-8.91,20.57,10.28,19.08a1.62,1.62,0,0,1-1.37,2.48c-.72,0-1,0-1.43-.72-3.08-5.55-6-12.81-9.79-18.53v.44c0,2.53.71,11.55.71,18.48-.6,1.48-2.91,2.09-3-.11Z"/><path class="cls-2" d="M725,326.81l-.33.33-.93,6.21c-.11.83-.06,3.19-1.65,3.19-.72,0-1.21-1.43-1.21-2,5.72-39.87,5.77-40,5.77-40,.28-1,.66-2.58,2-2.58a2.05,2.05,0,0,1,1.7.82l.44,1.16c3.19,12.59,4.68,25.51,6.16,38.49l.33,3.58c0,.05-.05.05-.05.11-.39,1-.61,1.48-1.65,1.48h-.17c-.33,0-.88,0-.93-.38l-1.38-10.45Zm.83-3.41,6.87.16L729,297.88Z"/><path class="cls-2" d="M742.55,338.25c-.06,0-.72-28.38-.72-32.12,0-1-.66-9.46-.71-10.5v-.39a1.07,1.07,0,0,1,.38-1,6.77,6.77,0,0,1,1-.11c1,0,1.43-.05,1.76,1.16a24.57,24.57,0,0,1,.33,5.61c.27,11.21.38,22.6,1,33.93h.39c2.31,0,4.51-.77,6.87-.77.88,0,1.87.22,1.87,1.32a1.16,1.16,0,0,1-1.1,1.21Z"/><path class="cls-2" d="M237.14,393.63c.05-4.73.05-26.72,0-31.4V362a3.06,3.06,0,0,1,1.59-3h.5a9.14,9.14,0,0,1,6.16,2c5.88,5.28,7,14.74,6.65,22.22-.44,10.61-2.91,20.73-12,21.83-1.76.22-2.91-.05-2.91-2.09ZM240.27,383c0,4.89-.11,13.25,0,18.86,6.82-1,8.69-11.93,8.69-18,0-4.34-.27-21.34-7.92-21.34h-.38C240.55,365.64,240.27,380,240.27,383Z"/><path class="cls-2" d="M257.6,364.65a2,2,0,0,1,1.92-1.92h8.69a3,3,0,0,1,1.49,1.1.52.52,0,0,1,.05.27c0,1.1-1.48,1.6-2.36,1.6h-6.6l.27,18.26,5.94-.88h.28c2.58,0,1.59,2.52-.61,2.85l-5.5.83L261,401.11c.49.06,2.36.06,2.86.06,3.68,0,6.38-1.27,6.54,1.26.11,1.87-12.21,1.65-12.21.61Z"/><path class="cls-2" d="M276,399.9c0-12.37.44-24.85.77-37.23.11-2.53,1-2.53,3.24-2.53h.55c5.06,0,8.3,3.3,8.3,8.14v.61c0,4-1,8.69-4.67,11.16a22.18,22.18,0,0,1,1.76,2.15c2.48,3.24,1.87,11.1,2.15,14.9,0,.33.33,2.86.33,3.19v.44c0,.93-.88,1-1.6,1h-.05c-.61,0-1.32,0-1.54-.77-.06-1.81-.55-10.23-.66-12.1-.22-2.69-.77-6.38-4.13-6.38h-.88a31.65,31.65,0,0,0-.33,3.19c0,.5-.33,12.71-.38,17.38,0,1.05.16,2.2-1.21,2.2a2,2,0,0,1-1.65-.77Zm4.29-21.28c3.9,0,5.39-7.2,5.39-9.73S284.44,363,281.3,363a1.29,1.29,0,0,0-1.37,1.43c.05,4.79-.39,8.8-.39,13.69C279.54,378.57,279.93,378.62,280.26,378.62Z"/><path class="cls-2" d="M313.31,394.24c2.2.66.11,5.5,2.86,7.09h.33c3.08,0,4-4.23,4-6.49a22.54,22.54,0,0,0-1.49-9.13c-2.58-5.93-8.13-10.88-8.13-17.7,0-3.08,1.87-8.2,5.66-8.2,2.42,0,6.43,1.93,6.43,4.79,0,1-.33,1.65-1.43,1.65-2.14,0-1.48-3.3-4.5-3.3-2.81,0-3,3.9-3,5.83,0,5.55,4.67,9.46,7.15,14.07,2.26,4.24,3.41,10.4,2.09,14.58-.88,2.86-3.35,6.76-6.71,6.76-4.07,0-5.33-5.06-5.33-8.36A1.86,1.86,0,0,1,313.31,394.24Z"/><path class="cls-2" d="M330.91,363.83c-3.41.22-5,.16-5.06-.77.11-1.87.11-2.53,5.83-2.2h4.62c1.21.05,3.24.22,3.24,1.81a1.22,1.22,0,0,1-1.09,1.05h-4.62l1,34.92c0,.49-1.1.77-1.43.77s-1.43-.28-1.43-.77Z"/><path class="cls-2" d="M349.5,350.13a4.06,4.06,0,0,1,4.18,4.24c0,2.42-.93,4.62-3.08,5.28l.11.33c3.19,12.59,4.68,25.51,6.16,38.49l.33,3.58c0,.05-.05.05-.05.11-.39,1-.61,1.48-1.65,1.48h-.17c-.33,0-.88,0-.93-.38L353,392.81h-8.14l-.33.33-.93,6.21c-.11.83-.06,3.19-1.65,3.19-.72,0-1.21-1.43-1.21-2,5.72-39.87,5.77-40,5.77-40a5.59,5.59,0,0,1,.33-1.1,3.72,3.72,0,0,1-2.64-3.68C344.22,352.39,345.93,350.13,349.5,350.13Zm-3.79,39.27,6.87.16-3.68-25.68Zm2.69-31.79a2.86,2.86,0,0,0,3-3.13c0-1.05-.39-2.26-1.65-2.26a3.45,3.45,0,0,0-3.47,3.58C346.31,357,347.25,357.61,348.4,357.61Z"/><path class="cls-2" d="M389.43,360.36c9.84,1.1,8.41,24.53,7.86,31.84-.38,4-2.42,11-7.91,11-9.74,0-10.18-16.61-10.18-23C379.2,373.18,379.7,360.36,389.43,360.36Zm-7.09,19.58c0,16.11,3,20.51,6.87,20.51,5.39,0,5.44-14,5.44-17.43v-.22c0-4.23-1.15-19.63-6.37-19.63-4.13,0-5.89,9.18-5.89,11.93C382.34,376.86,382.34,378.4,382.34,379.94Z"/><path class="cls-2" d="M403.24,399.9c0-12.37.44-24.85.77-37.23.11-2.53,1-2.53,3.24-2.53h.55c5.06,0,8.3,3.3,8.3,8.14v.61c0,4-1,8.69-4.67,11.16a22.18,22.18,0,0,1,1.76,2.15c2.47,3.24,1.87,11.1,2.14,14.9,0,.33.33,2.86.33,3.19v.44c0,.93-.88,1-1.59,1H414c-.6,0-1.31,0-1.54-.77-.05-1.81-.55-10.23-.66-12.1-.22-2.69-.77-6.38-4.12-6.38h-.88a31.65,31.65,0,0,0-.33,3.19c-.05.5-.33,12.71-.38,17.38,0,1.05.16,2.2-1.21,2.2a2,2,0,0,1-1.65-.77Zm4.29-21.28c3.9,0,5.38-7.2,5.38-9.73s-1.2-5.89-4.34-5.89a1.29,1.29,0,0,0-1.37,1.43c.05,4.79-.39,8.8-.39,13.69C406.81,378.57,407.2,378.62,407.53,378.62Z"/><path class="cls-2" d="M421.61,393.63c.05-4.73.05-26.72,0-31.4V362a3.06,3.06,0,0,1,1.59-3h.5a9.14,9.14,0,0,1,6.16,2c5.88,5.28,7,14.74,6.65,22.22-.44,10.61-2.92,20.73-12,21.83-1.76.22-2.91-.05-2.91-2.09ZM424.74,383c0,4.89-.11,13.25,0,18.86,6.82-1,8.69-11.93,8.69-18,0-4.34-.28-21.34-7.92-21.34h-.39C425,365.64,424.74,380,424.74,383Z"/><path class="cls-2" d="M442.07,364.65a2,2,0,0,1,1.92-1.92h8.69a3,3,0,0,1,1.48,1.1.45.45,0,0,1,.06.27c0,1.1-1.49,1.6-2.37,1.6h-6.6l.28,18.26,5.94-.88h.27c2.59,0,1.6,2.52-.6,2.85l-5.5.83-.17,14.35c.5.06,2.37.06,2.86.06,3.69,0,6.38-1.27,6.55,1.26.11,1.87-12.21,1.65-12.21.61Z"/><path class="cls-2" d="M463.79,363.83c-3.41.22-5,.16-5.06-.77.11-1.87.11-2.53,5.83-2.2h4.62c1.21.05,3.24.22,3.24,1.81a1.22,1.22,0,0,1-1.1,1.05h-4.61l1,34.92c0,.49-1.1.77-1.43.77s-1.43-.28-1.43-.77Z"/><path class="cls-2" d="M494.43,362.07c0-.88.44-1.27,1.32-1.27.49,0,2,.28,2,1.05v18.59c0,.65-.55,1.7-1.32,1.7a1.58,1.58,0,0,1-1.37-.72C494.7,375.1,494.43,368.45,494.43,362.07Z"/><path class="cls-2" d="M503.28,391.21c0-4.4.27-25,.39-29.36.27-.77,1.64-.66,2.3-.66,5.72,0,9.85,5.06,9.85,10.56,0,5.94-4.07,12.59-9.52,15.12-.05.88-.27,5.17-.27,6.05-.06,1.87-.06,10.34,0,12.15a2,2,0,0,1-1.71.72,1.51,1.51,0,0,1-1-.33Zm2.91-8a1.71,1.71,0,0,0,1.16-.38c3.19-2.92,5.06-6.27,5.06-10.67,0-2.86-2-8-5.83-8Z"/><path class="cls-2" d="M519.83,363c.39-1.1.67-1.16,1.82-1.16,1.59,0,1.59.72,1.59,2.31,0,.17,0,.88,0,1l-1.65,37.62c-.11,2.42-3.19,2.64-3.19,1Z"/><path class="cls-2" d="M529.4,364.32c-.11-2.2,2.92-3.52,4.07-.33l11.22,30.41c.06-2.42.5-15.94.83-21.33.16-3.3-.06-6.66.66-9.74,0-.6.6-.6,1.43-.6,1.32,0,1.43.11,1.37,1.32-.16,5.72-1,11.44-1.21,17.16-.11,3.18-.66,18.42-.66,21.61-.38,1.15-2.09.49-2.53-.44-.55-1.16-1-2.26-12.65-33.44l-.38,33.77c0,1.65-2.81,1.48-2.81.33Z"/><path class="cls-2" d="M554.54,361.41a1.52,1.52,0,0,1,1.54-1.6c1.1,0,1.59.66,1.65,2.09l.55,18.37c3.3-6.6,6.05-12.43,7.37-17,.44-1.54.49-3.74,2.47-3.74.77,0,2.26.33,1.49,2.75L560.7,382.8,571,401.88a1.62,1.62,0,0,1-1.37,2.48c-.72,0-1,0-1.43-.72-3.08-5.55-6-12.81-9.79-18.53v.44c0,2.53.71,11.55.71,18.48-.6,1.48-2.91,2.09-3-.11Z"/><path class="cls-2" d="M574.56,362.07c0-.88.44-1.27,1.32-1.27.5,0,2,.28,2,1.05v18.59c0,.65-.55,1.7-1.33,1.7a1.58,1.58,0,0,1-1.37-.72C574.83,375.1,574.56,368.45,574.56,362.07Z"/><path class="cls-2" d="M585.28,400.07a2.49,2.49,0,0,1,2.48,2.69c0,1.21-1.16,1.38-2.2,1.38-1.38,0-2.14-.88-2.14-2.42C583.42,401,584.62,400.07,585.28,400.07Z"/></svg>
