<svg xmlns="http://www.w3.org/2000/svg" width="200" height="200" viewBox="0 0 200 200"><defs><style>.cls-1{isolation:isolate;}.cls-2{mix-blend-mode:multiply;}.cls-3{fill:#f9a0f9;}.cls-4{fill:#662d91;}.cls-5{fill:none;stroke:#fff;stroke-linecap:round;stroke-linejoin:round;stroke-width:11px;}.cls-6{fill:#fff;}</style></defs><title>musik_knap</title><g class="cls-1"><g id="Lag_1" data-name="Lag 1"><g class="cls-2"><circle class="cls-3" cx="109.5" cy="115.5" r="72.5"/></g><circle class="cls-4" cx="104.5" cy="107.5" r="72.5"/><line class="cls-5" x1="87.51" y1="81.01" x2="137.85" y2="65.91"/><line class="cls-5" x1="87.51" y1="134.71" x2="87.51" y2="81.01"/><line class="cls-5" x1="137.85" y1="120.02" x2="137.85" y2="66.33"/><path class="cls-6" d="M93,135c.93-5.56-11-8.49-18.63-4.85S62.52,140.86,65,145.94s10.57,6.27,18.2,2.63S92,141,93,135Z"/><path class="cls-6" d="M143,122c.93-5.56-11-8.49-18.63-4.85s-11.85,10.71-9.42,15.79,10.57,6.27,18.2,2.63S142,128,143,122Z"/></g></g></svg>
