<svg id="Lag_1" data-name="Lag 1" xmlns="http://www.w3.org/2000/svg" width="200" height="130" viewBox="0 0 200 130"><defs><style>.cls-1{fill:#e0cb4f;}.cls-2{fill:#ffeb57;}</style></defs><title>Point</title><polygon class="cls-1" points="133 17.88 147 46.24 178.29 50.78 155.65 72.86 160.99 104.03 153.5 103 133 89.31 105.78 103.62 98.5 103 110.35 72.86 87.71 50.78 119 46.24 126.5 17 133 17.88"/><polygon class="cls-2" points="126 16.88 140 45.24 171.29 49.78 148.65 71.86 153.99 103.03 126 88.31 98.01 103.03 103.35 71.86 80.71 49.78 112 45.24 126 16.88"/><path d="M40,101a3.19,3.19,0,0,1-2.9,2.7h-.4c-1.2,0-2.3-.4-2.3-1.7a8.73,8.73,0,0,1,.5-3.1c1.6-5.8,8.2-31.6,9.4-36.4l-13.8-30.3a9.68,9.68,0,0,0-.2-1.2c0-1.7,1.7-2,3.4-2,1.5,0,2.4.7,3.2,2.3,3,6.6,5.9,14,8.2,19.6l.5,1.2a3.75,3.75,0,0,0,.7,1.2c2.2-8,5.1-22.5,7.1-28.5.3-.8,1.3-.8,2.1-.8h.2c1.9-.1,3.6.2,3.7,2.4-2.7,10.4-6.5,24.1-9.5,35.1,1.2,3.5,7.4,18.8,8.8,22.1L66,99.09c.5,1.1.8,1.4.8,2.3,0,1.4-1.9,2.6-3.4,2.6a2.56,2.56,0,0,1-2.3-1.7c-12.6-29.7-13.2-31.8-13.8-32.1C45.15,80,42.35,91.29,40,101Z"/></svg>
