<svg id="Lag_1" data-name="Lag 1" xmlns="http://www.w3.org/2000/svg" width="500" height="300" viewBox="0 0 500 300"><defs><style>.cls-1{fill:#c483a2;}.cls-2{fill:#f39ac0;}.cls-3,.cls-4{fill:#fff;}.cls-3{opacity:0.7;}</style></defs><title>Spil_Igen</title><rect class="cls-1" x="39" y="18.5" width="415" height="264" rx="12" ry="12"/><rect class="cls-2" x="38" y="18.5" width="399" height="245" rx="12" ry="12"/><path class="cls-3" d="M411,42.5l-100-8c0-4-.6-3,6-3h97a12,12,0,0,1,12,12v62c0,6.6-1,9-6,10"/><path class="cls-4" d="M101.54,172.55c3.7.6,3,5.5,7,6.1,6.5,1.1,8-3.5,8.9-8.9,1.8-11.3-3.7-19.8-9.7-29.21-2.8-4.39-4.3-8.2-3.4-13.8,1.4-7.9,5.2-13.3,13.5-13.3a17,17,0,0,1,2.2.1c2.7.3,4.6.9,4.1,3.7-.9,4.9-11.5-3.4-13.8,10.6-1.1,6.41,1.5,9,4.9,14.81,5.3,9.2,9.9,17.4,8.1,28.2-1.4,8.2-4.8,13-12.9,13a19.27,19.27,0,0,1-2.4-.1c-3.5-.6-9.6-4-9.6-8.1,0-.2.1-.5.1-.7A3.13,3.13,0,0,1,101.54,172.55Z"/><path class="cls-4" d="M134.24,184.85c.1-11.6.5-65.61.7-77.31.9-1.2,3.3-2,4.7-2,12.9,0,19.2,10.8,19.2,22.8,0,14.31-6,22.31-17.8,29.21l-.7,6.1c-.2,3.3-.6,18.6-.7,21.8-.5,1.7-1,2.2-2.7,2.2-1.4,0-2.7-.6-2.7-2.4Zm6.1-38.3v4.3c1.1,0,3.2-1.4,3.4-1.6,6.7-5.3,8.3-11.6,8.3-19.71,0-6.2-.8-17.9-9.6-17.9-.6,0-1.1,0-1.4.8Z"/><path class="cls-4" d="M174.24,111.94l4.4,61a49.81,49.81,0,0,1,.5,5.3c-.1,1.6-1.7,2.2-3.4,2.2-2.2,0-2.6-1.9-2.9-3.8l-2.5-43.9c-.5-7.21-1.6-14.41-1.4-21.61C169,108.64,174,109.54,174.24,111.94Z"/><path class="cls-4" d="M191.13,105.94c1.6,0,2.9,2,3.3,3.5.8,22.6.7,45.51,2.7,68.21,3-.8,8.1-2.1,12-2.1,1.81,0,3.41.5,3.41,2.5a2.63,2.63,0,0,1-2,2.9c-3.41,1.2-7.91,1-11.41,2-1.3.3-2.7,1.3-4.3,1.3a3.75,3.75,0,0,1-3.1-2.7c-1.2-12-.7-24.9-1.3-36.7l-1.3-24.71v-12.7C189.63,106.34,190.23,105.94,191.13,105.94Z"/><path class="cls-4" d="M257.93,111.94l4.4,61a49.81,49.81,0,0,1,.5,5.3c-.1,1.6-1.7,2.2-3.4,2.2-2.2,0-2.6-1.9-2.9-3.8l-2.5-43.9c-.5-7.21-1.6-14.41-1.4-21.61C252.73,108.64,257.73,109.54,257.93,111.94Z"/><path class="cls-4" d="M272.83,143c0-7.91,1.8-23.21,10.5-27.41,5-2.4,18-1.4,18,6.6,0,1.2-.5,2.5-2.2,2.5-3.6,0-4.9-5.4-10-5.4h-.4c-9.3.5-10.9,14.51-10.9,22v2c.5,10,.5,17.4,2.6,26.8,1,4.7,3.7,9.7,9.5,9.7h.5c9.1-.5,9.4-12.4,9.1-18.1l-.8-14.8c-2.9,0-5.8.8-9,.5-.9-.6-1.2-3.1-1.2-3.2,0-3,6.9-2.4,13.4-2.5,3,.8,2.6,5.8,2.9,12v1c.6,10.9,1.5,29.4-13,30.1a13.35,13.35,0,0,1-2,0C276.33,185.55,272.83,169.05,272.83,143Z"/><path class="cls-4" d="M316.53,172.75V153c0-14.3-1.4-23.51-1.4-37.81V110c16-1.3,17.8-.2,17.8,2,0,.7-.5,2.2-1.2,2.5h-10.9c-.7,0-.7.5-.7.8,0,10.6,1,18.41,1.6,29.31,1.5.4,9.9.1,11.6.1,3.4.1,5.7,5.9,1.1,5.9h-12.7l.2,23.4c2.4.6,15.1-1.9,15.1,2.5a2.42,2.42,0,0,1-1.9,2.6h-.5c-3.7.3-17.9,1.4-18-1.5Z"/><path class="cls-4" d="M349.53,112.14c1.9-3.6,4.8-.4,5.8,1,6,17.2,10.1,34.71,17.4,52.61l1-14c1.1-12.6,1.2-23.5,1.1-36.11.4-1.7,2.2-2.5,3.8-2.5a3,3,0,0,1,2.8,1.3c-1.8,21.6-2.6,44.61-3.3,67.61l-.1,1.3c-.2.5-1.5,1.9-2.4,1.9a4.6,4.6,0,0,1-2.8-1.9c-6.2-18.7-13.2-37-19.2-55.81l-.7,57c-2.3,5.2-5.8,2.5-5.9-.5Z"/></svg>
