<svg id="Lag_1" data-name="Lag 1" xmlns="http://www.w3.org/2000/svg" width="1080" height="1944.35" viewBox="0 0 1080 1944.35"><defs><style>.cls-1{fill:#b7d3ea;}.cls-2,.cls-3,.cls-4{fill:#fff;}.cls-2{opacity:0.22;}.cls-3{opacity:0.8;}.cls-4{opacity:0.39;}</style></defs><title>Spilskærm</title><polygon class="cls-1" points="36.1 749.34 1102.32 749.34 1102.32 -31.79 -9.18 -31.79 -9.18 1944.21 1102.32 1944.21 1102.32 749.34 36.1 749.34"/><polygon class="cls-2" points="90.65 -10.05 99.38 7.64 118.91 10.48 104.78 24.26 108.12 43.7 90.65 34.52 73.18 43.7 76.52 24.26 62.39 10.48 81.92 7.64 90.65 -10.05"/><polygon class="cls-2" points="273.84 -10.05 282.57 7.64 302.1 10.48 287.97 24.26 291.31 43.7 273.84 34.52 256.37 43.7 259.71 24.26 245.58 10.48 265.11 7.64 273.84 -10.05"/><polygon class="cls-2" points="457.03 -10.05 465.77 7.64 485.29 10.48 471.16 24.26 474.5 43.7 457.03 34.52 439.56 43.7 442.9 24.26 428.77 10.48 448.3 7.64 457.03 -10.05"/><polygon class="cls-2" points="640.22 -10.05 648.96 7.64 668.49 10.48 654.36 24.26 657.69 43.7 640.22 34.52 622.76 43.7 626.09 24.26 611.96 10.48 631.49 7.64 640.22 -10.05"/><polygon class="cls-2" points="823.41 -10.05 832.15 7.64 851.68 10.48 837.55 24.26 840.88 43.7 823.41 34.52 805.95 43.7 809.28 24.26 795.15 10.48 814.68 7.64 823.41 -10.05"/><polygon class="cls-2" points="1006.61 -10.05 1015.34 7.64 1034.87 10.48 1020.74 24.26 1024.07 43.7 1006.61 34.52 989.14 43.7 992.48 24.26 978.35 10.48 997.87 7.64 1006.61 -10.05"/><polygon class="cls-2" points="182.25 109.33 190.98 127.03 210.51 129.87 196.38 143.64 199.71 163.09 182.25 153.91 164.78 163.09 168.11 143.64 153.98 129.87 173.51 127.03 182.25 109.33"/><polygon class="cls-2" points="365.44 109.33 374.17 127.03 393.7 129.87 379.57 143.64 382.9 163.09 365.44 153.91 347.97 163.09 351.31 143.64 337.17 129.87 356.7 127.03 365.44 109.33"/><polygon class="cls-2" points="548.63 109.33 557.36 127.03 576.89 129.87 562.76 143.64 566.1 163.09 548.63 153.91 531.16 163.09 534.5 143.64 520.37 129.87 539.89 127.03 548.63 109.33"/><polygon class="cls-2" points="731.82 109.33 740.55 127.03 760.08 129.87 745.95 143.64 749.29 163.09 731.82 153.91 714.35 163.09 717.69 143.64 703.56 129.87 723.09 127.03 731.82 109.33"/><polygon class="cls-2" points="915.01 109.33 923.75 127.03 943.27 129.87 929.14 143.64 932.48 163.09 915.01 153.91 897.54 163.09 900.88 143.64 886.75 129.87 906.28 127.03 915.01 109.33"/><polygon class="cls-2" points="1098.2 109.33 1106.94 127.03 1126.46 129.87 1112.33 143.64 1115.67 163.09 1098.2 153.91 1080.74 163.09 1084.07 143.64 1069.94 129.87 1089.47 127.03 1098.2 109.33"/><polygon class="cls-2" points="90.65 228.72 99.38 246.41 118.91 249.25 104.78 263.02 108.12 282.47 90.65 273.29 73.18 282.47 76.52 263.02 62.39 249.25 81.92 246.41 90.65 228.72"/><polygon class="cls-2" points="273.84 228.72 282.57 246.41 302.1 249.25 287.97 263.02 291.31 282.47 273.84 273.29 256.37 282.47 259.71 263.02 245.58 249.25 265.11 246.41 273.84 228.72"/><polygon class="cls-2" points="457.03 228.72 465.77 246.41 485.29 249.25 471.16 263.02 474.5 282.47 457.03 273.29 439.56 282.47 442.9 263.02 428.77 249.25 448.3 246.41 457.03 228.72"/><polygon class="cls-2" points="640.22 228.72 648.96 246.41 668.49 249.25 654.36 263.02 657.69 282.47 640.22 273.29 622.76 282.47 626.09 263.02 611.96 249.25 631.49 246.41 640.22 228.72"/><polygon class="cls-2" points="823.41 228.72 832.15 246.41 851.68 249.25 837.55 263.02 840.88 282.47 823.41 273.29 805.95 282.47 809.28 263.02 795.15 249.25 814.68 246.41 823.41 228.72"/><polygon class="cls-2" points="1006.61 228.72 1015.34 246.41 1034.87 249.25 1020.74 263.02 1024.07 282.47 1006.61 273.29 989.14 282.47 992.48 263.02 978.35 249.25 997.87 246.41 1006.61 228.72"/><polygon class="cls-2" points="191.51 360.45 200.24 378.14 219.77 380.98 205.64 394.76 208.97 414.2 191.51 405.02 174.04 414.2 177.38 394.76 163.25 380.98 182.77 378.14 191.51 360.45"/><polygon class="cls-2" points="374.7 360.45 383.43 378.14 402.96 380.98 388.83 394.76 392.17 414.2 374.7 405.02 357.23 414.2 360.57 394.76 346.44 380.98 365.96 378.14 374.7 360.45"/><polygon class="cls-2" points="557.89 360.45 566.62 378.14 586.15 380.98 572.02 394.76 575.36 414.2 557.89 405.02 540.42 414.2 543.76 394.76 529.63 380.98 549.16 378.14 557.89 360.45"/><polygon class="cls-2" points="741.08 360.45 749.82 378.14 769.34 380.98 755.21 394.76 758.55 414.2 741.08 405.02 723.62 414.2 726.95 394.76 712.82 380.98 732.35 378.14 741.08 360.45"/><polygon class="cls-2" points="924.27 360.45 933.01 378.14 952.54 380.98 938.4 394.76 941.74 414.2 924.27 405.02 906.81 414.2 910.14 394.76 896.01 380.98 915.54 378.14 924.27 360.45"/><polygon class="cls-2" points="1107.46 360.45 1116.2 378.14 1135.73 380.98 1121.6 394.76 1124.93 414.2 1107.46 405.02 1090 414.2 1093.33 394.76 1079.2 380.98 1098.73 378.14 1107.46 360.45"/><polygon class="cls-2" points="99.91 755.65 108.64 773.34 128.17 776.18 114.04 789.96 117.38 809.4 99.91 800.22 82.44 809.4 85.78 789.96 71.65 776.18 91.18 773.34 99.91 755.65"/><polygon class="cls-2" points="283.1 755.65 291.84 773.34 311.37 776.18 297.23 789.96 300.57 809.4 283.1 800.22 265.64 809.4 268.97 789.96 254.84 776.18 274.37 773.34 283.1 755.65"/><polygon class="cls-2" points="466.3 755.65 475.03 773.34 494.56 776.18 480.43 789.96 483.76 809.4 466.3 800.22 448.83 809.4 452.16 789.96 438.03 776.18 457.56 773.34 466.3 755.65"/><polygon class="cls-2" points="649.49 755.65 658.22 773.34 677.75 776.18 663.62 789.96 666.95 809.4 649.49 800.22 632.02 809.4 635.36 789.96 621.22 776.18 640.75 773.34 649.49 755.65"/><polygon class="cls-2" points="832.68 755.65 841.41 773.34 860.94 776.18 846.81 789.96 850.14 809.4 832.68 800.22 815.21 809.4 818.55 789.96 804.42 776.18 823.94 773.34 832.68 755.65"/><polygon class="cls-2" points="1015.87 755.65 1024.6 773.34 1044.13 776.18 1030 789.96 1033.34 809.4 1015.87 800.22 998.4 809.4 1001.74 789.96 987.61 776.18 1007.14 773.34 1015.87 755.65"/><polygon class="cls-2" points="191.51 899.73 200.24 917.43 219.77 920.26 205.64 934.04 208.97 953.49 191.51 944.31 174.04 953.49 177.38 934.04 163.25 920.26 182.77 917.43 191.51 899.73"/><polygon class="cls-2" points="374.7 899.73 383.43 917.43 402.96 920.26 388.83 934.04 392.17 953.49 374.7 944.31 357.23 953.49 360.57 934.04 346.44 920.26 365.96 917.43 374.7 899.73"/><polygon class="cls-2" points="557.89 899.73 566.62 917.43 586.15 920.26 572.02 934.04 575.36 953.49 557.89 944.31 540.42 953.49 543.76 934.04 529.63 920.26 549.16 917.43 557.89 899.73"/><polygon class="cls-2" points="741.08 899.73 749.82 917.43 769.34 920.26 755.21 934.04 758.55 953.49 741.08 944.31 723.62 953.49 726.95 934.04 712.82 920.26 732.35 917.43 741.08 899.73"/><polygon class="cls-2" points="924.27 899.73 933.01 917.43 952.54 920.26 938.4 934.04 941.74 953.49 924.27 944.31 906.81 953.49 910.14 934.04 896.01 920.26 915.54 917.43 924.27 899.73"/><polygon class="cls-2" points="1107.46 899.73 1116.2 917.43 1135.73 920.26 1121.6 934.04 1124.93 953.49 1107.46 944.31 1090 953.49 1093.33 934.04 1079.2 920.26 1098.73 917.43 1107.46 899.73"/><polygon class="cls-2" points="94.77 480.86 103.5 498.56 123.03 501.39 108.9 515.17 112.23 534.62 94.77 525.43 77.3 534.62 80.63 515.17 66.5 501.39 86.03 498.56 94.77 480.86"/><polygon class="cls-2" points="277.96 480.86 286.69 498.56 306.22 501.39 292.09 515.17 295.42 534.62 277.96 525.43 260.49 534.62 263.83 515.17 249.69 501.39 269.22 498.56 277.96 480.86"/><polygon class="cls-2" points="461.15 480.86 469.88 498.56 489.41 501.39 475.28 515.17 478.62 534.62 461.15 525.43 443.68 534.62 447.02 515.17 432.89 501.39 452.42 498.56 461.15 480.86"/><polygon class="cls-2" points="644.34 480.86 653.07 498.56 672.6 501.39 658.47 515.17 661.81 534.62 644.34 525.43 626.87 534.62 630.21 515.17 616.08 501.39 635.61 498.56 644.34 480.86"/><polygon class="cls-2" points="827.53 480.86 836.27 498.56 855.79 501.39 841.66 515.17 845 534.62 827.53 525.43 810.07 534.62 813.4 515.17 799.27 501.39 818.8 498.56 827.53 480.86"/><polygon class="cls-2" points="1010.72 480.86 1019.46 498.56 1038.99 501.39 1024.86 515.17 1028.19 534.62 1010.72 525.43 993.26 534.62 996.59 515.17 982.46 501.39 1001.99 498.56 1010.72 480.86"/><polygon class="cls-2" points="191.51 611.57 200.24 629.26 219.77 632.1 205.64 645.87 208.97 665.32 191.51 656.14 174.04 665.32 177.38 645.87 163.25 632.1 182.77 629.26 191.51 611.57"/><polygon class="cls-2" points="374.7 611.57 383.43 629.26 402.96 632.1 388.83 645.87 392.17 665.32 374.7 656.14 357.23 665.32 360.57 645.87 346.44 632.1 365.96 629.26 374.7 611.57"/><polygon class="cls-2" points="557.89 611.57 566.62 629.26 586.15 632.1 572.02 645.87 575.36 665.32 557.89 656.14 540.42 665.32 543.76 645.87 529.63 632.1 549.16 629.26 557.89 611.57"/><polygon class="cls-2" points="741.08 611.57 749.82 629.26 769.34 632.1 755.21 645.87 758.55 665.32 741.08 656.14 723.62 665.32 726.95 645.87 712.82 632.1 732.35 629.26 741.08 611.57"/><polygon class="cls-2" points="924.27 611.57 933.01 629.26 952.54 632.1 938.4 645.87 941.74 665.32 924.27 656.14 906.81 665.32 910.14 645.87 896.01 632.1 915.54 629.26 924.27 611.57"/><polygon class="cls-2" points="1107.46 611.57 1116.2 629.26 1135.73 632.1 1121.6 645.87 1124.93 665.32 1107.46 656.14 1090 665.32 1093.33 645.87 1079.2 632.1 1098.73 629.26 1107.46 611.57"/><polygon class="cls-2" points="62.86 1043.82 71.59 1061.51 91.12 1064.35 76.99 1078.12 80.33 1097.57 62.86 1088.39 45.39 1097.57 48.73 1078.12 34.6 1064.35 54.13 1061.51 62.86 1043.82"/><polygon class="cls-2" points="246.05 1043.82 254.79 1061.51 274.31 1064.35 260.18 1078.12 263.52 1097.57 246.05 1088.39 228.59 1097.57 231.92 1078.12 217.79 1064.35 237.32 1061.51 246.05 1043.82"/><polygon class="cls-2" points="429.25 1043.82 437.98 1061.51 457.51 1064.35 443.38 1078.12 446.71 1097.57 429.25 1088.39 411.78 1097.57 415.11 1078.12 400.98 1064.35 420.51 1061.51 429.25 1043.82"/><polygon class="cls-2" points="612.44 1043.82 621.17 1061.51 640.7 1064.35 626.57 1078.12 629.9 1097.57 612.44 1088.39 594.97 1097.57 598.3 1078.12 584.17 1064.35 603.7 1061.51 612.44 1043.82"/><polygon class="cls-2" points="795.63 1043.82 804.36 1061.51 823.89 1064.35 809.76 1078.12 813.1 1097.57 795.63 1088.39 778.16 1097.57 781.5 1078.12 767.37 1064.35 786.89 1061.51 795.63 1043.82"/><polygon class="cls-2" points="978.82 1043.82 987.55 1061.51 1007.08 1064.35 992.95 1078.12 996.29 1097.57 978.82 1088.39 961.35 1097.57 964.69 1078.12 950.56 1064.35 970.09 1061.51 978.82 1043.82"/><polygon class="cls-2" points="192.54 1187.9 201.27 1205.59 220.8 1208.43 206.67 1222.21 210 1241.65 192.54 1232.47 175.07 1241.65 178.41 1222.21 164.27 1208.43 183.8 1205.59 192.54 1187.9"/><polygon class="cls-2" points="375.73 1187.9 384.46 1205.59 403.99 1208.43 389.86 1222.21 393.19 1241.65 375.73 1232.47 358.26 1241.65 361.6 1222.21 347.47 1208.43 366.99 1205.59 375.73 1187.9"/><polygon class="cls-2" points="558.92 1187.9 567.65 1205.59 587.18 1208.43 573.05 1222.21 576.39 1241.65 558.92 1232.47 541.45 1241.65 544.79 1222.21 530.66 1208.43 550.19 1205.59 558.92 1187.9"/><polygon class="cls-2" points="742.11 1187.9 750.85 1205.59 770.37 1208.43 756.24 1222.21 759.58 1241.65 742.11 1232.47 724.64 1241.65 727.98 1222.21 713.85 1208.43 733.38 1205.59 742.11 1187.9"/><polygon class="cls-2" points="925.3 1187.9 934.04 1205.59 953.57 1208.43 939.43 1222.21 942.77 1241.65 925.3 1232.47 907.84 1241.65 911.17 1222.21 897.04 1208.43 916.57 1205.59 925.3 1187.9"/><polygon class="cls-2" points="100.94 1583.1 109.67 1600.79 129.2 1603.63 115.07 1617.41 118.41 1636.86 100.94 1627.67 83.47 1636.86 86.81 1617.41 72.68 1603.63 92.21 1600.79 100.94 1583.1"/><polygon class="cls-2" points="284.13 1583.1 292.87 1600.79 312.39 1603.63 298.26 1617.41 301.6 1636.86 284.13 1627.67 266.67 1636.86 270 1617.41 255.87 1603.63 275.4 1600.79 284.13 1583.1"/><polygon class="cls-2" points="467.32 1583.1 476.06 1600.79 495.59 1603.63 481.45 1617.41 484.79 1636.86 467.32 1627.67 449.86 1636.86 453.19 1617.41 439.06 1603.63 458.59 1600.79 467.32 1583.1"/><polygon class="cls-2" points="650.51 1583.1 659.25 1600.79 678.78 1603.63 664.65 1617.41 667.98 1636.86 650.51 1627.67 633.05 1636.86 636.38 1617.41 622.25 1603.63 641.78 1600.79 650.51 1583.1"/><polygon class="cls-2" points="833.71 1583.1 842.44 1600.79 861.97 1603.63 847.84 1617.41 851.17 1636.86 833.71 1627.67 816.24 1636.86 819.58 1617.41 805.45 1603.63 824.97 1600.79 833.71 1583.1"/><polygon class="cls-2" points="1016.9 1583.1 1025.63 1600.79 1045.16 1603.63 1031.03 1617.41 1034.37 1636.86 1016.9 1627.67 999.43 1636.86 1002.77 1617.41 988.64 1603.63 1008.16 1600.79 1016.9 1583.1"/><polygon class="cls-2" points="192.54 1727.18 201.27 1744.88 220.8 1747.71 206.67 1761.49 210 1780.94 192.54 1771.76 175.07 1780.94 178.41 1761.49 164.27 1747.71 183.8 1744.88 192.54 1727.18"/><polygon class="cls-2" points="375.73 1727.18 384.46 1744.88 403.99 1747.71 389.86 1761.49 393.19 1780.94 375.73 1771.76 358.26 1780.94 361.6 1761.49 347.47 1747.71 366.99 1744.88 375.73 1727.18"/><polygon class="cls-2" points="558.92 1727.18 567.65 1744.88 587.18 1747.71 573.05 1761.49 576.39 1780.94 558.92 1771.76 541.45 1780.94 544.79 1761.49 530.66 1747.71 550.19 1744.88 558.92 1727.18"/><polygon class="cls-2" points="742.11 1727.18 750.85 1744.88 770.37 1747.71 756.24 1761.49 759.58 1780.94 742.11 1771.76 724.64 1780.94 727.98 1761.49 713.85 1747.71 733.38 1744.88 742.11 1727.18"/><polygon class="cls-2" points="925.3 1727.18 934.04 1744.88 953.57 1747.71 939.43 1761.49 942.77 1780.94 925.3 1771.76 907.84 1780.94 911.17 1761.49 897.04 1747.71 916.57 1744.88 925.3 1727.18"/><polygon class="cls-2" points="89.62 1294.93 98.35 1312.63 117.88 1315.46 103.75 1329.24 107.09 1348.69 89.62 1339.51 72.15 1348.69 75.49 1329.24 61.36 1315.46 80.89 1312.63 89.62 1294.93"/><polygon class="cls-2" points="272.81 1294.93 281.55 1312.63 301.07 1315.46 286.94 1329.24 290.28 1348.69 272.81 1339.51 255.34 1348.69 258.68 1329.24 244.55 1315.46 264.08 1312.63 272.81 1294.93"/><polygon class="cls-2" points="456 1294.93 464.74 1312.63 484.26 1315.46 470.13 1329.24 473.47 1348.69 456 1339.51 438.54 1348.69 441.87 1329.24 427.74 1315.46 447.27 1312.63 456 1294.93"/><polygon class="cls-2" points="639.2 1294.93 647.93 1312.63 667.46 1315.46 653.33 1329.24 656.66 1348.69 639.2 1339.51 621.73 1348.69 625.06 1329.24 610.93 1315.46 630.46 1312.63 639.2 1294.93"/><polygon class="cls-2" points="822.39 1294.93 831.12 1312.63 850.65 1315.46 836.52 1329.24 839.85 1348.69 822.39 1339.51 804.92 1348.69 808.25 1329.24 794.12 1315.46 813.65 1312.63 822.39 1294.93"/><polygon class="cls-2" points="1005.58 1294.93 1014.31 1312.63 1033.84 1315.46 1019.71 1329.24 1023.04 1348.69 1005.58 1339.51 988.11 1348.69 991.45 1329.24 977.32 1315.46 996.84 1312.63 1005.58 1294.93"/><polygon class="cls-2" points="192.54 1439.02 201.27 1456.71 220.8 1459.55 206.67 1473.32 210 1492.77 192.54 1483.59 175.07 1492.77 178.41 1473.32 164.27 1459.55 183.8 1456.71 192.54 1439.02"/><polygon class="cls-2" points="375.73 1439.02 384.46 1456.71 403.99 1459.55 389.86 1473.32 393.19 1492.77 375.73 1483.59 358.26 1492.77 361.6 1473.32 347.47 1459.55 366.99 1456.71 375.73 1439.02"/><polygon class="cls-2" points="558.92 1439.02 567.65 1456.71 587.18 1459.55 573.05 1473.32 576.39 1492.77 558.92 1483.59 541.45 1492.77 544.79 1473.32 530.66 1459.55 550.19 1456.71 558.92 1439.02"/><polygon class="cls-2" points="742.11 1439.02 750.85 1456.71 770.37 1459.55 756.24 1473.32 759.58 1492.77 742.11 1483.59 724.64 1492.77 727.98 1473.32 713.85 1459.55 733.38 1456.71 742.11 1439.02"/><polygon class="cls-2" points="925.3 1439.02 934.04 1456.71 953.57 1459.55 939.43 1473.32 942.77 1492.77 925.3 1483.59 907.84 1492.77 911.17 1473.32 897.04 1459.55 916.57 1456.71 925.3 1439.02"/><polygon class="cls-2" points="63.89 1871.27 72.62 1888.96 92.15 1891.8 78.02 1905.57 81.36 1925.02 63.89 1915.84 46.42 1925.02 49.76 1905.57 35.63 1891.8 55.16 1888.96 63.89 1871.27"/><polygon class="cls-2" points="247.08 1871.27 255.82 1888.96 275.34 1891.8 261.21 1905.57 264.55 1925.02 247.08 1915.84 229.62 1925.02 232.95 1905.57 218.82 1891.8 238.35 1888.96 247.08 1871.27"/><polygon class="cls-2" points="430.27 1871.27 439.01 1888.96 458.54 1891.8 444.4 1905.57 447.74 1925.02 430.27 1915.84 412.81 1925.02 416.14 1905.57 402.01 1891.8 421.54 1888.96 430.27 1871.27"/><polygon class="cls-2" points="613.47 1871.27 622.2 1888.96 641.73 1891.8 627.6 1905.57 630.93 1925.02 613.47 1915.84 596 1925.02 599.33 1905.57 585.2 1891.8 604.73 1888.96 613.47 1871.27"/><polygon class="cls-2" points="796.66 1871.27 805.39 1888.96 824.92 1891.8 810.79 1905.57 814.12 1925.02 796.66 1915.84 779.19 1925.02 782.53 1905.57 768.39 1891.8 787.92 1888.96 796.66 1871.27"/><polygon class="cls-2" points="979.85 1871.27 988.58 1888.96 1008.11 1891.8 993.98 1905.57 997.32 1925.02 979.85 1915.84 962.38 1925.02 965.72 1905.57 951.59 1891.8 971.12 1888.96 979.85 1871.27"/><polygon class="cls-2" points="14.49 363.54 23.22 381.23 42.75 384.07 28.62 397.84 31.96 417.29 14.49 408.11 -2.98 417.29 0.36 397.84 -13.77 384.07 5.76 381.23 14.49 363.54"/><polygon class="cls-2" points="14.49 109.33 23.22 127.03 42.75 129.87 28.62 143.64 31.96 163.09 14.49 153.91 -2.98 163.09 0.36 143.64 -13.77 129.87 5.76 127.03 14.49 109.33"/><polygon class="cls-2" points="14.49 611.57 23.22 629.26 42.75 632.1 28.62 645.87 31.96 665.32 14.49 656.14 -2.98 665.32 0.36 645.87 -13.77 632.1 5.76 629.26 14.49 611.57"/><polygon class="cls-2" points="14.49 899.73 23.22 917.43 42.75 920.26 28.62 934.04 31.96 953.49 14.49 944.31 -2.98 953.49 0.36 934.04 -13.77 920.26 5.76 917.43 14.49 899.73"/><polygon class="cls-2" points="14.49 1187.9 23.22 1205.59 42.75 1208.43 28.62 1222.21 31.96 1241.65 14.49 1232.47 -2.98 1241.65 0.36 1222.21 -13.77 1208.43 5.76 1205.59 14.49 1187.9"/><polygon class="cls-2" points="14.49 1412.26 23.22 1429.95 42.75 1432.79 28.62 1446.56 31.96 1466.01 14.49 1456.83 -2.98 1466.01 0.36 1446.56 -13.77 1432.79 5.76 1429.95 14.49 1412.26"/><polygon class="cls-2" points="14.49 1727.18 23.22 1744.88 42.75 1747.71 28.62 1761.49 31.96 1780.94 14.49 1771.76 -2.98 1780.94 0.36 1761.49 -13.77 1747.71 5.76 1744.88 14.49 1727.18"/><path class="cls-3" d="M134.86,162.21h941a0,0,0,0,1,0,0v111a0,0,0,0,1,0,0H129.88a26.07,26.07,0,0,1-26.07-26.07V193.25A31,31,0,0,1,134.86,162.21Z"/><rect class="cls-4" x="19.82" y="1057.21" width="1035" height="650" rx="12" ry="12"/><path d="M693.77,256.65c.1-11.6.5-65.6.7-77.3.9-1.2,3.3-2,4.7-2,12.9,0,19.2,10.8,19.2,22.8,0,14.3-6,22.3-17.8,29.2l-.7,6.1c-.2,3.3-.6,18.6-.7,21.8-.5,1.7-1,2.2-2.7,2.2-1.4,0-2.7-.6-2.7-2.4Zm6.1-38.3v4.3c1.1,0,3.2-1.4,3.4-1.6,6.7-5.3,8.3-11.6,8.3-19.7,0-6.2-.8-17.9-9.6-17.9-.6,0-1.1,0-1.4.8Z"/><path d="M747,178c17.9,2,15.3,44.6,14.3,57.9-.7,7.3-4.4,20-14.4,20-17.7,0-18.5-30.2-18.5-41.9C728.37,201.25,729.27,178,747,178Zm-12.9,35.6c0,29.3,5.4,37.3,12.5,37.3,9.8,0,9.9-25.4,9.9-31.7v-.4c0-7.7-2.1-35.7-11.6-35.7-7.5,0-10.7,16.7-10.7,21.7C734.07,208,734.07,210.75,734.07,213.55Z"/><path d="M774.77,182.65c.7-2,1.2-2.1,3.3-2.1,2.9,0,2.9,1.3,2.9,4.2,0,.3-.1,1.6-.1,1.8l-3,68.4c-.2,4.4-5.8,4.8-5.8,1.9Z"/><path d="M792.17,185.15c-.2-4,5.3-6.4,7.4-.6l20.4,55.3c.1-4.4.9-29,1.5-38.8.3-6-.1-12.1,1.2-17.7,0-1.1,1.1-1.1,2.6-1.1,2.4.1,2.6.2,2.5,2.4-.3,10.4-1.8,20.8-2.2,31.2-.2,5.8-1.2,33.5-1.2,39.3-.7,2.1-3.8.9-4.6-.8-1-2.1-1.8-4.1-23-60.8l-.7,61.4c0,3-5.1,2.7-5.1.6Z"/><path d="M842.37,184.25c-6.2.4-9,.3-9.2-1.4.2-3.4.2-4.6,10.6-4h8.4c2.2.1,5.9.4,5.9,3.3a2.23,2.23,0,0,1-2,1.9h-8.4l1.9,63.5c0,.9-2,1.4-2.6,1.4s-2.6-.5-2.6-1.4Z"/><path d="M871.47,199.15c2.7,0,4.5,2.1,4.5,4.9,0,2.2-2.1,2.5-4,2.5-2.5,0-3.9-1.6-3.9-4.4C868.07,200.85,870.27,199.15,871.47,199.15Zm0,51c2.7,0,4.5,2.1,4.5,4.9,0,2.2-2.1,2.5-4,2.5-2.5,0-3.9-1.6-3.9-4.4C868.07,251.85,870.27,250.15,871.47,250.15Z"/></svg>
