<svg xmlns="http://www.w3.org/2000/svg" xmlns:xlink="http://www.w3.org/1999/xlink" width="1080" height="1920" viewBox="0 0 1080 1920"><defs><style>.cls-1{isolation:isolate;}.cls-2{fill:#9ddaec;}.cls-18,.cls-3{fill:#f2f2f2;stroke:#f2f2f2;}.cls-11,.cls-18,.cls-26,.cls-3,.cls-31{stroke-miterlimit:10;}.cls-29,.cls-3{opacity:0.5;}.cls-4{mix-blend-mode:multiply;}.cls-5{fill:#ffce00;}.cls-6{fill:#fae83f;}.cls-7{fill:#898989;}.cls-8{fill:#999;}.cls-27,.cls-31,.cls-9{fill:none;}.cls-9{stroke:#000;stroke-linecap:round;stroke-linejoin:round;}.cls-26,.cls-9{stroke-width:4px;}.cls-10,.cls-11{fill:#afafaf;}.cls-11{stroke:#afafaf;}.cls-12{fill:#ef5180;}.cls-13{fill:#f47f23;}.cls-14{fill:#9cc741;}.cls-15{fill:#46bea2;}.cls-16{fill:#3d81c2;}.cls-17{fill:#654b9d;}.cls-19{fill:#f39ac0;}.cls-20,.cls-32,.cls-34{fill:#fff;}.cls-21{fill:#efe92e;}.cls-22{fill:#bdd649;}.cls-23{fill:#8e56a1;}.cls-24{fill:#4cc1bb;}.cls-25{fill:#fcb61e;}.cls-26{fill:#fcee21;stroke:#ff7bac;}.cls-28{opacity:0.15;fill:url(#radial-gradient);}.cls-28,.cls-29,.cls-30,.cls-31{mix-blend-mode:screen;}.cls-29{fill:url(#radial-gradient-2);}.cls-30{fill:url(#radial-gradient-3);}.cls-31{stroke:#fff;stroke-width:2px;opacity:0.03;}.cls-32{opacity:0.76;}.cls-33{fill:#3a3777;}.cls-34{opacity:0.8;}</style><radialGradient id="radial-gradient" cx="179.88" cy="430.99" r="23.6" gradientUnits="userSpaceOnUse"><stop offset="0" stop-color="#200"/><stop offset="0.73" stop-color="#984023"/><stop offset="1" stop-color="#200"/></radialGradient><radialGradient id="radial-gradient-2" cx="179.88" cy="430.99" r="11.8" gradientUnits="userSpaceOnUse"><stop offset="0.15" stop-color="#fff"/><stop offset="0.21" stop-color="#e5d3d3"/><stop offset="0.29" stop-color="#c49c9e"/><stop offset="0.36" stop-color="#ad7477"/><stop offset="0.42" stop-color="#9e5c5f"/><stop offset="0.45" stop-color="#995356"/><stop offset="0.57" stop-color="#6b3335"/><stop offset="0.69" stop-color="#431718"/><stop offset="0.79" stop-color="#2b0606"/><stop offset="0.85" stop-color="#200"/><stop offset="0.86" stop-color="#260201"/><stop offset="0.86" stop-color="#330704"/><stop offset="0.87" stop-color="#471009"/><stop offset="0.88" stop-color="#641d0f"/><stop offset="0.89" stop-color="#8a2e18"/><stop offset="0.9" stop-color="#b74223"/><stop offset="0.9" stop-color="#d34e29"/><stop offset="0.9" stop-color="#c84927"/><stop offset="0.91" stop-color="#9c361c"/><stop offset="0.93" stop-color="#772514"/><stop offset="0.94" stop-color="#58180c"/><stop offset="0.95" stop-color="#400d07"/><stop offset="0.97" stop-color="#2f0603"/><stop offset="0.98" stop-color="#250101"/><stop offset="1" stop-color="#200"/></radialGradient><radialGradient id="radial-gradient-3" cx="179.88" cy="430.99" r="9.83" gradientUnits="userSpaceOnUse"><stop offset="0.15" stop-color="#fff"/><stop offset="0.28" stop-color="#c2c2c2"/><stop offset="0.43" stop-color="#888"/><stop offset="0.56" stop-color="#575757"/><stop offset="0.69" stop-color="#313131"/><stop offset="0.81" stop-color="#161616"/><stop offset="0.92" stop-color="#060606"/><stop offset="1"/></radialGradient></defs><title>Startskærm </title><g class="cls-1"><g id="Lag_1" data-name="Lag 1"><path class="cls-2" d="M-9.9.1v1920h1095V.1Z"/><ellipse class="cls-3" cx="513.1" cy="797.6" rx="741.5" ry="433"/><g class="cls-4"><polygon class="cls-5" points="290.97 244.42 251.58 218.39 191.27 322 215.45 337.98 178.56 423.1 256.57 331.02 245 323.38 290.97 244.42"/></g><polygon class="cls-6" points="291.97 253.42 252.58 227.39 192.27 331 216.45 346.98 179.56 432.1 257.57 340.02 246 332.38 291.97 253.42"/><g class="cls-4"><path class="cls-7" d="M459.72,173.61c4.64-37.6-33.39-74-84.94-81.17-3.91-.55-7.78-.89-11.6-1.08.06-.44.15-.86.21-1.3,4.95-40.14-27.68-77.82-72.89-84.15C248.5,0,210.43,23.28,201.28,58.8c-.19,0-2.83,19.83-3,19.8-51.55-7.23-96.38,11.56-103.16,66.49s21.35,88.61,72.9,95.83c16.92,2.37,41.74-1.18,56.46-7.66,13.17,21.31,36.61,54.95,65,58.93,46.46,6.51,88.34-21.41,94.59-62.61C424.1,226.88,455.88,204.69,459.72,173.61Z"/></g><path class="cls-8" d="M467.72,180.61c4.64-37.6-33.39-74-84.94-81.17-3.91-.55-7.78-.89-11.6-1.08.06-.44.15-.86.21-1.3,4.95-40.14-27.68-77.82-72.89-84.15C256.5,7,218.43,30.28,209.28,65.8c-.19,0-2.83,19.83-3,19.8-51.55-7.23-96.38,11.56-103.16,66.49s21.35,88.61,72.9,95.83c16.92,2.37,41.74-1.18,56.46-7.66,13.17,21.31,36.61,54.95,65,58.93,46.46,6.51,88.34-21.41,94.59-62.61C432.1,233.88,463.88,211.69,467.72,180.61Z"/><path d="M250.78,186.41c-3.18,8.74-12.41,13.09-20.61,9.71s-12.29-13.22-9.11-22"/><path d="M336.75,189.91c1.22,9.29-4.85,17.87-13.57,19.17s-16.77-5.17-18-14.46"/><path class="cls-9" d="M259.7,220.26c5.38-7.9,10.29-9.49,18.68-6.66s7.42,5.73,8.94,16"/><g class="cls-4"><path class="cls-10" d="M596.12,618.42c247.8,25.37,428.77,247.61,403.41,495.41l30,3.07c27-264.33-166-501.38-430.31-528.44s-501.38,166-528.43,430.3l30,3.07C126.07,774,348.31,593.06,596.12,618.42Z"/><path class="cls-10" d="M596.27,616.92C347.64,591.48,124.66,773.05,99.21,1021.68l30,3.07c23.76-232.12,231.92-401.62,464-377.86s401.62,231.92,377.86,464l30,3.07C1026.47,865.35,844.9,642.37,596.27,616.92Z"/><path class="cls-10" d="M593.36,645.39c-232.94-23.85-441.85,146.27-465.69,379.2l30,3.07C179.78,811.24,373.87,653.2,590.29,675.35S964.75,891.59,942.6,1108l30,3.06C996.4,878.14,826.29,669.23,593.36,645.39Z"/><path class="cls-10" d="M590.44,673.85C373.2,651.61,178.37,810.26,156.13,1027.51l30,3.06c20.54-200.72,200.55-347.3,401.28-326.76s347.3,200.56,326.76,401.28l30,3.07C966.33,890.92,807.69,696.09,590.44,673.85Z"/><path class="cls-10" d="M587.53,702.31C386,681.68,205.23,828.87,184.6,1030.42l30,3.07c18.94-185,184.88-320.16,369.9-301.22s320.15,184.88,301.22,369.91l30,3.07C936.27,903.7,789.08,722.94,587.53,702.31Z"/><path class="cls-10" d="M584.62,730.78c-185.86-19-352.54,116.7-371.56,302.55l30,3.07c17.33-169.34,169.2-293,338.53-275.66s293,169.19,275.66,338.53l30,3.06C906.2,916.48,770.47,749.8,584.62,730.78Z"/><path class="cls-10" d="M790.66,872a310.12,310.12,0,0,0-549.14,164.29l30,3.06C287.23,885.43,424.75,773.45,578.64,789.2S844.5,942.47,828.75,1096.35l30,3.07A309.36,309.36,0,0,0,790.66,872Z"/><path class="cls-11" d="M953.58,1082c1.1-5.2,6.89-38.07,6.89-43.6,0-43.09-25.76-64.25-68.84-64.25a78,78,0,0,0-78,78,126,126,0,0,0,1.32,18.69,123.35,123.35,0,0,0-25.42-2.63c-50,0-90.63,29.28-90.63,65.4s40.58,65.4,90.63,65.4c28.56,0,54-9.54,70.64-24.44,14.15,32.81,55.5,56.56,104.32,56.56,60.51,0,108.39-38.27,92.37-80.31C1038.48,1102.6,1012.47,1083.33,953.58,1082Z"/><path class="cls-11" d="M275.79,1017.3c1-4.91,6.49-35.9,6.49-41.11,0-40.63-24.29-60.59-64.92-60.59a73.57,73.57,0,0,0-73.57,73.57,118.46,118.46,0,0,0,1.25,17.62,116.57,116.57,0,0,0-24-2.47c-47.2,0-85.47,27.61-85.47,61.67s38.27,61.67,85.47,61.67c26.93,0,50.94-9,66.61-23C201,1135.55,240,1158,286.05,1158c57.06,0,102.21-36.09,87.11-75.73C355.85,1036.78,331.31,1018.6,275.79,1017.3Z"/><path class="cls-10" d="M608.57,651.91a37,37,0,0,1-73.79-4.76"/><ellipse class="cls-10" cx="455.63" cy="600.37" rx="28.03" ry="27.77"/><circle class="cls-10" cx="458.95" cy="585.23" r="7.19"/><circle class="cls-10" cx="468.67" cy="592.09" r="7.19"/><ellipse class="cls-10" cx="677.63" cy="607.37" rx="28.03" ry="27.77"/><circle class="cls-10" cx="680.95" cy="592.23" r="7.19"/><circle class="cls-10" cx="690.67" cy="599.09" r="7.19"/></g><path class="cls-12" d="M578.12,604.42c247.8,25.37,428.77,247.61,403.41,495.41l30,3.07c27-264.33-166-501.38-430.31-528.44s-501.38,166-528.43,430.3l30,3.07C108.07,760,330.31,579.06,578.12,604.42Z"/><path class="cls-13" d="M578.27,602.92C329.64,577.48,106.66,759.05,81.21,1007.68l30,3.07c23.76-232.12,231.92-401.62,464-377.86s401.62,231.92,377.86,464l30,3.07C1008.47,851.35,826.9,628.37,578.27,602.92Z"/><path class="cls-6" d="M575.36,631.39c-232.94-23.85-441.85,146.27-465.69,379.2l30,3.07C161.78,797.24,355.87,639.2,572.29,661.35S946.75,877.59,924.6,1094l30,3.06C978.4,864.14,808.29,655.23,575.36,631.39Z"/><path class="cls-14" d="M572.44,659.85C355.2,637.61,160.37,796.26,138.13,1013.51l30,3.06c20.54-200.72,200.55-347.3,401.28-326.76s347.3,200.56,326.76,401.28l30,3.07C948.33,876.92,789.69,682.09,572.44,659.85Z"/><path class="cls-15" d="M569.53,688.31C368,667.68,187.23,814.87,166.6,1016.42l30,3.07c18.94-185,184.88-320.16,369.9-301.22s320.15,184.88,301.22,369.91l30,3.07C918.27,889.7,771.08,708.94,569.53,688.31Z"/><path class="cls-16" d="M566.62,716.78c-185.86-19-352.54,116.7-371.56,302.55l30,3.07c17.33-169.34,169.2-293,338.53-275.66s293,169.19,275.66,338.53l30,3.06C888.2,902.48,752.47,735.8,566.62,716.78Z"/><path class="cls-17" d="M772.66,858a310.12,310.12,0,0,0-549.14,164.29l30,3.06C269.23,871.43,406.75,759.45,560.64,775.2S826.5,928.47,810.75,1082.35l30,3.07A309.36,309.36,0,0,0,772.66,858Z"/><path class="cls-18" d="M935.58,1068c1.1-5.2,6.89-38.07,6.89-43.6,0-43.09-25.76-64.25-68.84-64.25a78,78,0,0,0-78,78,126,126,0,0,0,1.32,18.69,123.35,123.35,0,0,0-25.42-2.63c-50,0-90.63,29.28-90.63,65.4s40.58,65.4,90.63,65.4c28.56,0,54-9.54,70.64-24.44,14.15,32.81,55.5,56.56,104.32,56.56,60.51,0,108.39-38.27,92.37-80.31C1020.48,1088.6,994.47,1069.33,935.58,1068Z"/><path class="cls-18" d="M257.79,1003.3c1-4.91,6.49-35.9,6.49-41.11,0-40.63-24.29-60.59-64.92-60.59a73.57,73.57,0,0,0-73.57,73.57A118.46,118.46,0,0,0,127,992.79a116.57,116.57,0,0,0-24-2.47c-47.2,0-85.47,27.61-85.47,61.67s38.27,61.67,85.47,61.67c26.93,0,50.94-9,66.61-23C183,1121.55,222,1144,268.05,1144c57.06,0,102.21-36.09,87.11-75.73C337.85,1022.78,313.31,1004.6,257.79,1003.3Z"/><path class="cls-19" d="M590.57,637.91a37,37,0,0,1-73.79-4.76"/><ellipse cx="437.63" cy="586.37" rx="28.03" ry="27.77"/><circle class="cls-20" cx="440.95" cy="571.23" r="7.19"/><circle class="cls-20" cx="450.67" cy="578.09" r="7.19"/><ellipse cx="659.63" cy="593.37" rx="28.03" ry="27.77"/><circle class="cls-20" cx="662.95" cy="578.23" r="7.19"/><circle class="cls-20" cx="672.67" cy="585.09" r="7.19"/><polygon class="cls-12" points="127.23 743.21 88.12 732.6 57.2 758.8 55.22 718.32 20.74 697.01 58.62 682.61 68.24 643.24 93.64 674.82 134.05 671.79 111.87 705.71 127.23 743.21"/><polygon class="cls-21" points="541.68 141.29 514.96 119.53 481.89 129.2 494.33 97.07 474.91 68.61 509.31 70.51 530.38 43.24 539.21 76.55 571.64 88.16 542.7 106.85 541.68 141.29"/><polygon class="cls-22" points="808.93 331.56 780.11 328.42 761.17 350.38 755.25 321.99 728.52 310.77 753.68 296.37 756.09 267.48 777.57 286.96 805.79 280.32 793.89 306.77 808.93 331.56"/><polygon class="cls-23" points="77.1 1357.95 104.08 1319.57 87.75 1275.6 132.59 1289.39 169.36 1260.28 170.1 1307.18 209.15 1333.16 164.77 1348.35 152.13 1393.52 123.97 1356.01 77.1 1357.95"/><polygon class="cls-24" points="500.19 997.74 479.87 991.38 463.1 1004.51 462.88 983.21 445.2 971.33 465.39 964.53 471.23 944.05 483.93 961.15 505.22 960.38 492.88 977.74 500.19 997.74"/><polygon class="cls-25" points="992.8 701.66 976.29 709.02 973 726.79 960.9 713.37 942.98 715.73 952 700.08 944.22 683.76 961.9 687.51 975.01 675.06 976.91 693.04 992.8 701.66"/><polygon class="cls-12" points="891.63 1482.46 854.24 1481.77 832.47 1512.17 821.57 1476.4 785.93 1465.09 816.59 1443.67 816.33 1406.28 846.17 1428.82 881.65 1417.01 869.44 1452.36 891.63 1482.46"/><polygon class="cls-25" points="287.85 1750.72 277.37 1780.98 296.36 1806.78 264.33 1806.16 245.66 1832.2 236.35 1801.55 205.83 1791.84 232.1 1773.51 231.9 1741.48 257.45 1760.81 287.85 1750.72"/><path class="cls-26" d="M89,436.06l6.6,91.5a74.72,74.72,0,0,1,.75,8c-.15,2.4-2.55,3.3-5.1,3.3-3.3,0-3.9-2.85-4.35-5.7l-3.75-65.85c-.75-10.8-2.4-21.6-2.1-32.4C81.19,431.11,88.69,432.46,89,436.06Z"/><path class="cls-26" d="M111.34,482.56c0-11.85,2.7-34.8,15.75-41.1,7.5-3.6,27-2.1,27,9.9,0,1.8-.75,3.75-3.3,3.75-5.4,0-7.35-8.1-15-8.1h-.6c-14,.75-16.35,21.75-16.35,33v3c.75,15,.75,26.1,3.9,40.2,1.5,7,5.55,14.55,14.25,14.55h.75c13.65-.75,14.1-18.6,13.65-27.15l-1.2-22.2c-4.35,0-8.7,1.2-13.5.75-1.35-.9-1.8-4.65-1.8-4.8,0-4.5,10.35-3.6,20.1-3.75,4.5,1.2,3.9,8.7,4.34,18v1.5c.91,16.35,2.25,44.1-19.49,45.15a20,20,0,0,1-3,0C116.59,546.46,111.34,521.71,111.34,482.56Z"/><path class="cls-26" d="M178.54,436.36c2.85-5.4,7.19-.6,8.69,1.5,9,25.8,15.15,52.05,26.1,78.9l1.5-21c1.65-18.9,1.8-35.25,1.65-54.15.6-2.55,3.3-3.75,5.7-3.75,1.8,0,3.3.45,4.2,1.95-2.7,32.4-3.9,66.9-4.95,101.4l-.15,1.95c-.3.75-2.25,2.85-3.6,2.85s-3.6-1.8-4.2-2.85c-9.3-28-19.8-55.5-28.79-83.7L183.63,545c-3.44,7.8-8.69,3.75-8.84-.75Z"/><path class="cls-26" d="M249.48,436.06l6.6,91.5a74.72,74.72,0,0,1,.75,8c-.15,2.4-2.55,3.3-5.1,3.3-3.3,0-3.9-2.85-4.35-5.7l-3.75-65.85c-.75-10.8-2.4-21.6-2.1-32.4C241.68,431.11,249.18,432.46,249.48,436.06Z"/><path class="cls-26" d="M277.83,478.81c0-11.55-.15-40.65-.3-40.8l-12-.45c-4.8-1.35-6.6-6,.75-7.8,11.7.3,23.1,0,35.25.9,6.75.6,6.3,8.1,2,8.1l-16.35-.3c-.15.15-.75,47.7-1.05,67.05,0,6.15-.6,17.7-.6,24.9v2c-1.2,4.5-7.35,3.15-8.4-1.05C277.23,520.66,277.83,489.61,277.83,478.81Z"/><path class="cls-26" d="M323.88,527.26v-29.7c0-21.45-2.1-35.25-2.1-56.7v-7.65c24-1.95,26.7-.3,26.7,3,0,1.05-.75,3.3-1.8,3.75H330.33c-1.05,0-1.05.75-1.05,1.2,0,15.9,1.5,27.6,2.4,43.95,2.25.6,14.85.15,17.4.15,5.1.15,8.55,8.85,1.65,8.85H331.68l.3,35.1c3.6.9,22.65-2.85,22.65,3.75,0,1.8-.9,3.6-2.85,3.9H351c-5.55.45-26.85,2.1-27-2.25Z"/><path class="cls-26" d="M431.13,478.81c0-11.55-.15-40.65-.3-40.8l-12-.45c-4.8-1.35-6.6-6,.75-7.8,11.7.3,23.1,0,35.25.9,6.75.6,6.3,8.1,1.95,8.1l-16.35-.3c-.15.15-.75,47.7-1.05,67.05,0,6.15-.6,17.7-.6,24.9v2c-1.2,4.5-7.35,3.15-8.4-1.05C430.53,520.66,431.13,489.61,431.13,478.81Z"/><path class="cls-26" d="M502.83,502.51a59.28,59.28,0,0,0-21.6-.75v38.85c0,1.35-2.85,2.1-3.75,2.1-1.8,0-3.75-1.05-4.05-3l-1.8-106.65c0-3.15.45-5.7,3.9-5.7.75,0,5.4.75,5.4,2.1l.15,64.05c5.55.75,17.55.45,22.35,1.05v-6.3c0-20.55-1.2-38.25-1.2-56.1,0-1.8.3-4.8,2.55-4.8s5.55,1.05,5.85,3.9l2,107.7a4.88,4.88,0,0,1-5.1,4.65h-.75c-1.05-.15-2.7-3-3-3.9A308.81,308.81,0,0,0,502.83,502.51Z"/><path class="cls-26" d="M529.68,527.26v-29.7c0-21.45-2.1-35.25-2.1-56.7v-7.65c24-1.95,26.7-.3,26.7,3,0,1.05-.75,3.3-1.8,3.75H536.13c-1,0-1,.75-1,1.2,0,15.9,1.5,27.6,2.4,43.95,2.25.6,14.85.15,17.4.15,5.1.15,8.55,8.85,1.65,8.85h-19l.3,35.1c3.6.9,22.65-2.85,22.65,3.75,0,1.8-.9,3.6-2.85,3.9h-.75c-5.55.45-26.85,2.1-27-2.25Z"/><path class="cls-26" d="M622.52,482.86c0-4.65-.75-31.95-1-39,0-1.5-.9-14.7-1.05-16.35v-.6c0-3.45,3.9-4.35,6.9-4.35,20.7,0,28,14.85,28,32.1,0,13.8-5.25,22.2-14.85,29.1,17.25,7.65,21.45,32.1,21.45,48.9,0,2.7-1.65,3.75-4.35,3.75-1.8,0-2.55,0-3.3-2.4-.75-11.25-3.6-43.05-21-43.05-.15,0-1.2.15-1.5.15-1.65,16.95-.3,34-1.35,51.15a4.84,4.84,0,0,1-8,0C622.67,533.26,622.67,491.86,622.52,482.86Zm8.25-3.6c10.65-2.1,16.5-13.8,16.5-23.25,0-7.95-3.3-24.45-14.1-24.45-.6,0-5.25,0-5.25,1.2Z"/><path class="cls-26" d="M684.32,436.36c.9-13.8,9.9-10.2,12.45,0,3.75,15,6.6,28.65,23,108.15,0,3.3-4.5,5.85-7.2,1l-5.4-27-20.25,3c-1.2,7.05-2.25,20.4-2.55,26.7-.3,3.6-6.75,2.7-6.6,0Zm2.85,69.9c-.15,1.05-.3,6.9-.3,8.1l18.75-2.7-14.7-66.75C690.32,454.06,687.62,497,687.17,506.26Z"/><path class="cls-26" d="M735.92,436.06l6.6,91.5a74.72,74.72,0,0,1,.75,8c-.15,2.4-2.55,3.3-5.1,3.3-3.3,0-3.9-2.85-4.35-5.7l-3.75-65.85c-.75-10.8-2.4-21.6-2.1-32.4C728.12,431.11,735.62,432.46,735.92,436.06Z"/><path class="cls-26" d="M762,436.36c2.85-5.4,7.2-.6,8.7,1.5,9,25.8,15.15,52.05,26.1,78.9l1.5-21c1.65-18.9,1.8-35.25,1.65-54.15.6-2.55,3.3-3.75,5.7-3.75,1.8,0,3.3.45,4.2,1.95-2.7,32.4-3.9,66.9-5,101.4l-.15,1.95c-.3.75-2.25,2.85-3.6,2.85s-3.6-1.8-4.2-2.85c-9.3-28-19.8-55.5-28.8-83.7l-1,85.5c-3.45,7.8-8.7,3.75-8.85-.75Z"/><path class="cls-26" d="M825.77,439.06a45.16,45.16,0,0,1-.9-10.35c0-2.7,3.15-4.2,5.7-4,14.25.9,27,6.9,27,22.5,0,10.35-.9,11.7-8.7,18.75,19.5,8.7,24.9,29.85,24.9,49.8,0,15.6-11.7,26.7-25.95,30.75l-3.75.9c-4.05.75-5.4.75-9.75-.9C828.47,543,828.17,452.56,825.77,439.06Zm7.8,14.4c0,1.35.6,7.5.75,8.55a15.43,15.43,0,0,0,2.55.15c7.5,0,12-6.45,12-13.35,0-9.75-5.7-15.6-15.6-15.6C833.27,436.36,833.42,450.46,833.57,453.46Zm1.8,23.1c1.2,22.5,2.85,41.55,3.9,63.15h.9c16.8,0,25.05-11,25.05-26.55,0-19.8-7.2-42-30-42C835.22,471.91,835.37,475.81,835.37,476.56Z"/><path class="cls-26" d="M905.57,431.41c33.3,0,37.8,106.65,4.8,109.5-.6,0-1.2.15-1.8.15-12.6,0-19.5-7.5-23.1-21.3C883.52,510.76,867.92,431.41,905.57,431.41Zm-12.9,81.45c1.2,4.95,6.15,19.2,13.65,19.95a7.12,7.12,0,0,0,1.8,0c10-.9,13.35-18.45,14.7-25.5,2.4-12,4.35-67.65-17-67.65h-1.2C882,441.76,889.82,501.91,892.67,512.86Z"/><path class="cls-26" d="M947,505.51c-2.25-23.85-7.05-48-11.7-71.4v-1.35c0-2.25.15-4.65,3.3-4.65,1.95,0,5.55.3,5.55,3.15.75,5.25,4.8,30.75,5.7,36.15,2.85,16.65,4.35,33.3,6.9,49.8,1.95-6.45,8.1-33.9,9-39.15.6-3.6,9.3-8.55,10.5-2.85l6.3,28.35c1.5,6,2.1,12.75,3.45,17.55,2.55-13.8,10.8-64.35,12.6-75.3.9-5.1.15-15.75,7.35-15.75,2.4,0,3.45,1.8,3.45,3.9a9.93,9.93,0,0,1-.15,2.25c-6.45,35.7-13.35,71-17.4,107.4-.75,1.95-2.25,3.9-4.35,3.9a4.61,4.61,0,0,1-3.45-1.8l-12.9-57.15-10.5,50.1c-.75,4.2.15,9-5.4,9-2.25,0-3.15-.6-4.35-3Z"/><polygon class="cls-12" points="1002.71 171.26 986.71 157.56 966.34 162.97 974.43 143.51 963 125.81 984 127.5 997.29 111.15 1002.18 131.65 1021.84 139.24 1003.86 150.22 1002.71 171.26"/><polygon class="cls-24" points="67.71 1820.83 21.08 1788.76 -31.78 1808.99 -15.69 1754.73 -51.26 1710.71 5.32 1709.25 36.19 1661.81 55.06 1715.17 109.72 1729.87 64.8 1764.31 67.71 1820.83"/><polygon class="cls-21" points="596.72 1844.96 579.26 1830.15 557.42 1837.02 565.81 1814.82 553.2 1795.34 575.85 1796.43 589.9 1777.53 595.5 1800.41 616.8 1808.2 597.61 1821.24 596.72 1844.96"/><line class="cls-27" x1="179.88" y1="430.99" x2="189.14" y2="438.3"/><circle class="cls-27" cx="179.88" cy="430.99" r="9.83"/><circle class="cls-27" cx="179.88" cy="430.99" r="11.8"/><polyline class="cls-27" points="179.88 431 146.04 443.7 179.88 431 213.71 418.29 179.88 431 167.17 397.16 179.88 431 192.58 464.83 179.88 431 162.39 429.81 179.88 431 197.36 432.18 179.88 431 181.06 413.51 179.88 431 178.69 448.48 179.88 431 144.81 384.57 179.88 431 214.95 477.42 179.88 431 226.3 395.93 179.88 431 133.45 466.06 179.88 431 177.1 431.47 179.88 431 182.65 430.52 179.88 431 179.4 428.22 179.88 431 180.35 433.77 179.88 431 162.5 423.42 179.88 431 197.25 438.57 179.88 431 187.45 413.62 179.88 431 172.3 448.37 179.88 431 173.09 430.13 179.88 431 186.66 431.86 179.88 431 180.74 424.21 179.88 431 179.01 437.78 179.88 431 158.22 416.21 179.88 431 201.54 445.78 179.88 431 194.66 409.33 179.88 431 165.09 452.66 179.88 431 144.65 426.16 179.88 431 215.1 435.83 179.88 431 184.71 395.77 179.88 431 175.04 466.22 179.88 431 161.88 416.06 179.88 431 197.87 445.93 179.88 431 194.81 413 179.88 431 164.94 448.99 179.88 431 144.02 449.27 179.88 431 215.73 412.72 179.88 431 161.6 395.14 179.88 431 198.15 466.85 179.88 431 168.15 428.19 179.88 431 191.61 433.8 179.88 431 182.68 419.26 179.88 431 177.07 442.73 179.88 431 151.41 442.73 179.88 431 208.34 419.26 179.88 431 168.14 402.53 179.88 431 191.61 459.46 179.88 431 122.63 444.68 179.88 431 237.12 417.31 179.88 431 166.19 373.75 179.88 431 193.56 488.24 179.88 431 160.32 421.11 179.88 431 199.43 440.88 179.88 431 189.76 411.44 179.88 431 169.99 450.55 179.88 431 149.34 407.59 179.88 431 210.41 454.4 179.88 431 203.28 400.46 179.88 431 156.47 461.53"/><circle class="cls-28" cx="179.88" cy="430.99" r="23.6"/><circle class="cls-29" cx="179.88" cy="430.99" r="11.8"/><circle class="cls-30" cx="179.88" cy="430.99" r="9.83"/><polyline class="cls-31" points="179.88 431 146.04 443.7 179.88 431 213.71 418.29 179.88 431 167.17 397.16 179.88 431 192.58 464.83 179.88 431 162.39 429.81 179.88 431 197.36 432.18 179.88 431 181.06 413.51 179.88 431 178.69 448.48 179.88 431 144.81 384.57 179.88 431 214.95 477.42 179.88 431 226.3 395.93 179.88 431 133.45 466.06 179.88 431 177.1 431.47 179.88 431 182.65 430.52 179.88 431 179.4 428.22 179.88 431 180.35 433.77 179.88 431 162.5 423.42 179.88 431 197.25 438.57 179.88 431 187.45 413.62 179.88 431 172.3 448.37 179.88 431 173.09 430.13 179.88 431 186.66 431.86 179.88 431 180.74 424.21 179.88 431 179.01 437.78 179.88 431 158.22 416.21 179.88 431 201.54 445.78 179.88 431 194.66 409.33 179.88 431 165.09 452.66 179.88 431 144.65 426.16 179.88 431 215.1 435.83 179.88 431 184.71 395.77 179.88 431 175.04 466.22 179.88 431 161.88 416.06 179.88 431 197.87 445.93 179.88 431 194.81 413 179.88 431 164.94 448.99 179.88 431 144.02 449.27 179.88 431 215.73 412.72 179.88 431 161.6 395.14 179.88 431 198.15 466.85 179.88 431 168.15 428.19 179.88 431 191.61 433.8 179.88 431 182.68 419.26 179.88 431 177.07 442.73 179.88 431 151.41 442.73 179.88 431 208.34 419.26 179.88 431 168.14 402.53 179.88 431 191.61 459.46 179.88 431 122.63 444.68 179.88 431 237.12 417.31 179.88 431 166.19 373.75 179.88 431 193.56 488.24 179.88 431 160.32 421.11 179.88 431 199.43 440.88 179.88 431 189.76 411.44 179.88 431 169.99 450.55 179.88 431 149.34 407.59 179.88 431 210.41 454.4 179.88 431 203.28 400.46 179.88 431 156.47 461.53"/><polygon class="cls-20" points="179.1 434.1 177.1 438.1 181.1 442.1 176.1 439.1 175.1 443.1 175.1 439.1 170.1 439.1 175.1 438.1 172.1 431.1 176.1 437.1 179.1 434.1"/><polygon class="cls-20" points="192.59 432.6 187.8 434 190.21 440.8 186 433.9 182.41 436.2 184.8 433 178.79 428.5 185.4 432.2 185.98 423.9 187.19 432.3 192.59 432.6"/><polygon class="cls-32" points="184.68 425.54 179.8 429.82 182.98 437.39 177.9 430.61 174.37 435.44 176.56 430.06 169.84 427.32 177.11 428.72 176.92 417.67 179 427.93 184.68 425.54"/><polygon class="cls-20" points="192.77 437.88 191.29 438.54 191.49 440.59 190.78 438.59 189.57 439.49 190.5 438.36 189.09 437.21 190.73 438.08 191.5 435.43 191.24 438.03 192.77 437.88"/><polygon class="cls-20" points="172.77 427.88 171.29 428.54 171.49 430.59 170.78 428.59 169.57 429.49 170.5 428.36 169.09 427.21 170.73 428.08 171.5 425.43 171.24 428.03 172.77 427.88"/><polygon class="cls-20" points="186.2 441.66 185.69 443.2 187.33 444.43 185.38 443.61 185.23 445.1 185.02 443.66 183.22 443.92 184.97 443.3 183.53 440.94 185.28 442.89 186.2 441.66"/><polygon class="cls-32" points="181.76 429.28 177.43 437.94 186.09 446.6 175.27 440.1 173.1 448.76 173.1 440.1 162.27 440.1 173.1 437.94 166.6 422.78 175.27 435.77 181.76 429.28"/><polygon class="cls-32" points="196.1 445.1 194.1 449.1 198.1 453.1 193.1 450.1 192.1 454.1 192.1 450.1 187.1 450.1 192.1 449.1 189.1 442.1 193.1 448.1 196.1 445.1"/><polygon class="cls-32" points="163.1 415.1 161.1 419.1 165.1 423.1 160.1 420.1 159.1 424.1 159.1 420.1 154.1 420.1 159.1 419.1 156.1 412.1 160.1 418.1 163.1 415.1"/><polygon class="cls-33" points="1178.91 1895.13 1044.41 1873.84 950.62 1972.57 929.31 1838.07 806.43 1779.38 927.76 1717.55 945.61 1582.55 1041.9 1678.84 1175.81 1654.1 1114 1775.43 1178.91 1895.13"/><path class="cls-34" d="M840.15,156.1h245a0,0,0,0,1,0,0v111a0,0,0,0,1,0,0H835.17A26.07,26.07,0,0,1,809.1,241V187.15A31,31,0,0,1,840.15,156.1Z"/></g></g></svg>
