<svg id="Lag_1" data-name="Lag 1" xmlns="http://www.w3.org/2000/svg" width="500" height="350" viewBox="0 0 500 350"><defs><style>.cls-1{fill:#c483a2;}.cls-2{fill:#f39ac0;}.cls-3,.cls-4{fill:#fff;}.cls-3{opacity:0.7;}</style></defs><title>Start_Knap</title><rect class="cls-1" x="38.5" y="38" width="415" height="264" rx="12" ry="12"/><rect class="cls-2" x="37.5" y="38" width="399" height="245" rx="12" ry="12"/><path class="cls-3" d="M410.5,62l-100-8c0-4-.6-3,6-3h97a12,12,0,0,1,12,12v62c0,6.6-1,9-6,10"/><path class="cls-4" d="M122.09,212.85c5.55.9,4.5,8.25,10.5,9.15,9.75,1.65,12-5.25,13.35-13.35,2.69-17-5.55-29.7-14.55-43.8-4.2-6.6-6.45-12.3-5.1-20.7,2.1-11.85,7.8-20,20.25-20a25.5,25.5,0,0,1,3.3.15c4,.45,6.9,1.35,6.15,5.55-1.36,7.35-17.25-5.1-20.7,15.9-1.65,9.6,2.25,13.5,7.35,22.2,8,13.8,14.84,26.1,12.15,42.3-2.1,12.3-7.2,19.5-19.35,19.5a28.9,28.9,0,0,1-3.6-.15c-5.25-.9-14.4-6-14.4-12.15,0-.3.15-.75.15-1.05C117.74,214.65,120,212.85,122.09,212.85Z"/><path class="cls-4" d="M181.79,164.7c0-11.55-.15-40.65-.3-40.8l-12-.45c-4.8-1.35-6.6-6,.75-7.8,11.7.3,23.1,0,35.25.9,6.74.6,6.3,8.1,1.95,8.1l-16.35-.3c-.15.15-.75,47.7-1.05,67.05,0,6.15-.6,17.7-.6,24.9v1.95c-1.2,4.5-7.35,3.15-8.4-1.05C181.19,206.55,181.79,175.5,181.79,164.7Z"/><path class="cls-4" d="M227.39,122.25c.9-13.8,9.9-10.2,12.45,0,3.75,15,6.6,28.65,23,108.15,0,3.3-4.5,5.85-7.2,1l-5.4-27-20.25,3c-1.2,7.05-2.25,20.4-2.55,26.7-.3,3.6-6.75,2.7-6.6,0Zm2.85,69.9c-.15,1-.3,6.9-.3,8.1l18.75-2.7L234,130.8C233.39,140,230.69,182.85,230.24,192.15Z"/><path class="cls-4" d="M276.44,168.75c0-4.65-.75-31.95-1.05-39,0-1.5-.9-14.7-1.05-16.35v-.6c0-3.45,3.9-4.35,6.9-4.35,20.7,0,28.05,14.85,28.05,32.1,0,13.8-5.25,22.2-14.85,29.1,17.25,7.65,21.45,32.1,21.45,48.9,0,2.7-1.65,3.75-4.35,3.75-1.8,0-2.55,0-3.3-2.4-.75-11.25-3.6-43.05-21-43.05-.15,0-1.2.15-1.5.15-1.65,16.95-.3,34.05-1.35,51.15a4.84,4.84,0,0,1-7.95,0C276.59,219.15,276.59,177.75,276.44,168.75Zm8.25-3.6c10.65-2.1,16.5-13.8,16.5-23.25,0-8-3.3-24.45-14.1-24.45-.6,0-5.25,0-5.25,1.2Z"/><path class="cls-4" d="M333.89,164.7c0-11.55-.15-40.65-.3-40.8l-12-.45c-4.8-1.35-6.6-6,.75-7.8,11.7.3,23.1,0,35.25.9,6.75.6,6.3,8.1,2,8.1l-16.35-.3c-.15.15-.75,47.7-1.05,67.05,0,6.15-.6,17.7-.6,24.9v1.95c-1.2,4.5-7.35,3.15-8.4-1.05C333.29,206.55,333.89,175.5,333.89,164.7Z"/></svg>
