<svg id="Lag_1" data-name="Lag 1" xmlns="http://www.w3.org/2000/svg" width="700" height="700" viewBox="0 0 700 700"><defs><style>.cls-1{fill:#ffeb57;}.cls-2{fill:#c98bea;}</style></defs><title>Stjerne4</title><polygon class="cls-1" points="349.57 14.5 442.52 202.84 650.36 233.04 499.96 379.63 535.47 586.63 349.57 488.9 163.67 586.63 199.18 379.63 48.78 233.04 256.62 202.84 349.57 14.5"/><path class="cls-2" d="M303.22,624a9,9,0,0,1,5.28,2.79,6.67,6.67,0,0,1,1.59,4.22,6.38,6.38,0,0,1-1.11,3.59,8.36,8.36,0,0,1-3.68,2.79v23.26a8.42,8.42,0,0,1-1.92,5.42,38.56,38.56,0,0,1-4,4.3l-1.28,1.12A30.37,30.37,0,0,1,286,678.91a46.28,46.28,0,0,1-14.54,2.31q-12,0-20.86-4.87A49.42,49.42,0,0,1,235.7,664a54.2,54.2,0,0,1-11.91-33,44.22,44.22,0,0,1,1.2-9.75,55.07,55.07,0,0,1,3.6-10.55,53.85,53.85,0,0,1,6-10.06,35.61,35.61,0,0,1,8.23-8,112.27,112.27,0,0,1,17.74-9.1,49.57,49.57,0,0,1,18.7-3.68,52,52,0,0,1,6.79.56,41.76,41.76,0,0,1,7.83,1.84,21.36,21.36,0,0,1,6.48,3.43,6.6,6.6,0,0,1,2.71,5.36,6.23,6.23,0,0,1-2.15,4.71,7.61,7.61,0,0,1-5.36,2,16,16,0,0,1-3.35-.38,23.74,23.74,0,0,1-3.68-1.15l-4.81-1.54a14.86,14.86,0,0,0-4.49-.77,24.28,24.28,0,0,0-2.65.16,14.23,14.23,0,0,0-2.8.64q-6.09,1.92-12.19,4.47a43.24,43.24,0,0,0-11.06,6.69,32.53,32.53,0,0,0-8.1,10.29q-3.12,6.13-3.12,15.23a38.05,38.05,0,0,0,2.56,14,37.32,37.32,0,0,0,6.82,11.32,32.3,32.3,0,0,0,9.85,7.58,26,26,0,0,0,11.71,2.79,26.7,26.7,0,0,0,10.1-2,27.4,27.4,0,0,0,9.14-6.15V638.07q-5.6.16-11.27.16H266.94q-4.15-.63-6.07-2.52a6,6,0,0,1-1.92-4.43,7.13,7.13,0,0,1,2.08-4.82c1.38-1.53,3.57-2.29,6.55-2.29h17.58q5.91,0,10.95-.08t6.79-.08Z"/><path class="cls-2" d="M387.12,588.05a8.77,8.77,0,0,1,3-5.19,7.73,7.73,0,0,1,4.88-1.68,8.43,8.43,0,0,1,4.87,1.6,7.91,7.91,0,0,1,3.12,4.79q-.17,9.75-.56,20.7t-1.52,21.33q-1.12,10.39-3,19.66A67.1,67.1,0,0,1,393,664.92a20.6,20.6,0,0,1-5.36,6.47,35.43,35.43,0,0,1-7.59,4.72A40.42,40.42,0,0,1,371.3,679a44.08,44.08,0,0,1-8.79,1,42.15,42.15,0,0,1-10-1.19,37.52,37.52,0,0,1-9.11-3.52,27.2,27.2,0,0,1-7.35-5.83,24,24,0,0,1-4.71-8.15,80.21,80.21,0,0,1-4.48-21q-1-11.43-1-23.25,0-3.84.08-7.67c.06-2.56.08-5.06.08-7.52q0-3.35.08-6.63c.06-2.18.08-4.34.08-6.47a8.66,8.66,0,0,1,2.93-5A7.59,7.59,0,0,1,334,582a8.55,8.55,0,0,1,4.82,1.52,7.55,7.55,0,0,1,3.09,4.71v6c0,2.19-.06,4.45-.16,6.8q-.17,4-.24,8.87c-.06,3.25-.08,6.31-.08,9.18q0,6.56.24,13a114,114,0,0,0,1,12,65.9,65.9,0,0,0,2.09,9.74,14,14,0,0,0,3.52,6.32,16.58,16.58,0,0,0,7.14,4.55,26,26,0,0,0,7.62,1.2,19.72,19.72,0,0,0,8.66-2,24.23,24.23,0,0,0,7.86-6.31q2.24-2.88,3.61-9.75a139.51,139.51,0,0,0,2.08-15.58q.72-8.72,1-18t.48-16.78c0-1.49.06-3.06.16-4.72S387.12,589.54,387.12,588.05Z"/><path class="cls-2" d="M475,664.44a11,11,0,0,1,5,3.08,6.43,6.43,0,0,1,1.67,4.19,5.82,5.82,0,0,1-1.83,4.11,10.69,10.69,0,0,1-5.52,2.69q-6.08.15-12.22.24t-12.23.08q-5.43.15-12,.16t-12.15.31q-7.2-.79-8-7.35,0-10.55.08-20.77T418,630.4q.15-10.54.16-20.93V588.53a8.73,8.73,0,0,1,2.87-4.87,7.43,7.43,0,0,1,4.8-1.68,8.19,8.19,0,0,1,4.87,1.52,9.33,9.33,0,0,1,3.28,4.56q0,9.93-.08,19.7t-.08,19.37q-.17,9.78-.16,19v19q5-.32,9.83-.24c3.25.06,6.52,0,9.83-.08,3.51,0,7.08,0,10.71-.08S471.29,664.55,475,664.44Z"/></svg>
