<svg id="Lag_1" data-name="Lag 1" xmlns="http://www.w3.org/2000/svg" width="700" height="700" viewBox="0 0 700 700"><defs><style>.cls-1{fill:#ffeb57;}</style></defs><title>Stjerne5</title><polygon class="cls-1" points="349.57 14.5 442.52 202.84 650.36 233.04 499.96 379.63 535.47 586.63 349.57 488.9 163.67 586.63 199.18 379.63 48.78 233.04 256.62 202.84 349.57 14.5"/><path class="cls-1" d="M239.92,678.83c-2.77-.22-4.79-1-6.06-2.48a6.77,6.77,0,0,1-1.91-4.56,7.56,7.56,0,0,1,.79-3l-.16.32V602a1.18,1.18,0,0,1-.73.08,2.58,2.58,0,0,0-.73-.08,8.14,8.14,0,0,1-5.53-1.83,5.81,5.81,0,0,1-2.12-4.56q0-3.51,3.92-6.71a37.69,37.69,0,0,1,9.51-5.51,71.39,71.39,0,0,1,11.59-3.68,47.49,47.49,0,0,1,10.14-1.36,36.1,36.1,0,0,1,13.51,2.4,34,34,0,0,1,10.23,6.23,27.71,27.71,0,0,1,6.47,8.47,20.57,20.57,0,0,1,2.24,9,22.82,22.82,0,0,1-3.2,11.27,34.2,34.2,0,0,1-8.31,9.83A29.61,29.61,0,0,1,291,635.68a23.12,23.12,0,0,1,2.08,21.25,30.31,30.31,0,0,1-4.62,8,35.2,35.2,0,0,1-6.94,6.55,34,34,0,0,1-8.45,4.48,59.86,59.86,0,0,1-11.87,2.4q-6.3.63-12.52.64h-4.3c-1.39,0-2.82-.06-4.3-.16Zm8.17-59.46c1.49,0,2.93,0,4.31.08s2.82.14,4.32.24A23.45,23.45,0,0,0,262,618.5a30.9,30.9,0,0,0,6.15-2.8,18.8,18.8,0,0,0,5-4.32,9.1,9.1,0,0,0,2.07-5.91,10.16,10.16,0,0,0-1.59-5.75,12.81,12.81,0,0,0-4.16-3.92,22,22,0,0,0-5.59-2.32,24,24,0,0,0-6.08-.8,29.78,29.78,0,0,0-9.74,1.6ZM273.66,639a29.82,29.82,0,0,0-7.51-3.43,46.88,46.88,0,0,0-8.47-1.68c-1.5.21-3,.4-4.64.56s-3.25.24-4.95.24v30.2q3.51,0,8.79-.4a42.29,42.29,0,0,0,10.14-2,23.36,23.36,0,0,0,8.39-4.71,10.83,10.83,0,0,0,3.52-8.55,13.19,13.19,0,0,0-1.28-5.83A10.88,10.88,0,0,0,273.66,639Z"/><path class="cls-1" d="M366.35,664.44a11,11,0,0,1,5,3.08,6.39,6.39,0,0,1,1.68,4.19,5.79,5.79,0,0,1-1.84,4.11,10.61,10.61,0,0,1-5.51,2.69q-6.07.15-12.23.24t-12.22.08q-5.44.15-12,.16t-12.15.31q-7.19-.79-8-7.35,0-10.55.08-20.77t.08-20.78q.16-10.54.17-20.93V588.53a8.73,8.73,0,0,1,2.87-4.87,7.39,7.39,0,0,1,4.79-1.68A8.22,8.22,0,0,1,322,583.5a9.33,9.33,0,0,1,3.28,4.56q0,9.93-.08,19.7t-.08,19.37q-.17,9.78-.16,19v19c3.3-.21,6.57-.29,9.83-.24s6.52,0,9.82-.08c3.52,0,7.09,0,10.71-.08S362.62,664.55,366.35,664.44Z"/><path class="cls-1" d="M463,672.11a8.81,8.81,0,0,1-2.48,6,7.38,7.38,0,0,1-5.2,2,8.53,8.53,0,0,1-4.39-1.27,8.88,8.88,0,0,1-3.44-4,111.91,111.91,0,0,0-2.47-14.06q-1.68-6.87-4.08-14.07-10.23,0-20.3.16t-20.29.16h-.32q-1.92,6.72-3.6,12.87t-3,13.18a10.75,10.75,0,0,1-3.44,5.12,7.56,7.56,0,0,1-4.55,1.59,7.82,7.82,0,0,1-5.76-2.63c-1.7-1.76-2.24-4.08-1.6-6.95a429.35,429.35,0,0,1,11.51-42,303.45,303.45,0,0,1,16.78-40.43c-.75-.53-1.44-1-2.08-1.36a4.52,4.52,0,0,1-1.43-1.2h.15A18.31,18.31,0,0,1,399,564.88a18.7,18.7,0,0,1,4-5.92,18.21,18.21,0,0,1,6.07-4,20,20,0,0,1,7.67-1.44,18.36,18.36,0,0,1,7.35,1.52,20.29,20.29,0,0,1,6.15,4.07,19.34,19.34,0,0,1,4.16,5.92,17,17,0,0,1,0,14.06,20.61,20.61,0,0,1-4.24,6.07l-1.59,1.76a93.64,93.64,0,0,1,9.9,15.18q4.15,8,7.83,16.15c1,2,2,4.29,3,6.79s2.08,5,3,7.43c1.17,0,2.45,0,3.83-.08s2.67-.08,3.84-.08a10.63,10.63,0,0,1,4.95,3,6.08,6.08,0,0,1-.16,8.39,9.74,9.74,0,0,1-5.43,2.79h-1.92A139.31,139.31,0,0,1,463,672.11ZM426.12,612q-1.92-3.51-3.92-7t-3.91-6.23q-3.84,8.15-7.11,16.54t-6.32,17.5q8.16,0,15.5-.16t15.51-.16q-1.92-4.63-4-8.79t-4.15-8.79Zm-4-39.95a6.7,6.7,0,0,0-1.6-4.56,4.93,4.93,0,0,0-7.67,0,6.75,6.75,0,0,0-1.6,4.56,5.52,5.52,0,0,0,1.6,4.31h-.16a6.29,6.29,0,0,0,3.68,1.76h.8a7.36,7.36,0,0,0,1.68-.56,5.74,5.74,0,0,0,3.27-5.51Z"/></svg>
