<svg id="Lag_1" data-name="Lag 1" xmlns="http://www.w3.org/2000/svg" width="700" height="700" viewBox="0 0 700 700"><defs><style>.cls-1{fill:#7be864;}.cls-2{fill:#f7b94b;}</style></defs><title>Stjerne7</title><polygon class="cls-1" points="349.57 8.5 442.52 196.84 650.36 227.04 499.96 373.63 535.47 580.63 349.57 482.9 163.67 580.63 199.18 373.63 48.78 227.04 256.62 196.84 349.57 8.5"/><path class="cls-2" d="M208.47,603.49q1.92-6.56,7.83-6.55a6.32,6.32,0,0,1,1.76.16,78.81,78.81,0,0,1,12.62-4.4A53.9,53.9,0,0,1,244.11,591a45.2,45.2,0,0,1,8.95.88,28.19,28.19,0,0,1,8.47,3.28V595a30.73,30.73,0,0,1,8,5.75,39.84,39.84,0,0,1,6.07,7.83,38.81,38.81,0,0,1,3.92,9.11,35.26,35.26,0,0,1,1.36,9.59,30.9,30.9,0,0,1-5.12,17.26,42.15,42.15,0,0,1-13,13,39.15,39.15,0,0,1-18.14,5.67c-1.28.11-2.59.19-3.92.24s-2.58.08-3.75.08c-2.24,0-4.43-.08-6.55-.24s-4.16-.34-6.08-.56V676q0,7.2.16,13-.16,4.15-2.64,6.07a8.55,8.55,0,0,1-5.35,1.92,7.89,7.89,0,0,1-5-1.84,8,8,0,0,1-2.8-5.51V659.26l-.32-.16q-5.28-3-5.27-7.19a6.14,6.14,0,0,1,1.27-3.67,7.38,7.38,0,0,1,4.16-2.56ZM254,607.64A20.56,20.56,0,0,0,244,605.09a34.74,34.74,0,0,0-10.15,1.52,59.93,59.93,0,0,0-9.51,3.75v38.2a58.2,58.2,0,0,0,12,1.27A43.22,43.22,0,0,0,248.66,648a22.79,22.79,0,0,0,10.15-6,18.55,18.55,0,0,0,4.56-7.19,25.28,25.28,0,0,0,1.35-8.15,23.56,23.56,0,0,0-2.63-11.11A18.75,18.75,0,0,0,254,607.64Z"/><path class="cls-2" d="M323.86,677.8c1.17,0,2.18,0,3-.08s1.86-.13,3-.24h.64q4.64-.32,7.11,1.9a6.5,6.5,0,0,1,2.48,4.9,6.36,6.36,0,0,1-1.84,4.26,10.16,10.16,0,0,1-5.68,2.85c-1.91.1-3.89.16-5.91.16H299.56a10,10,0,0,1-5.91-2.69,6.38,6.38,0,0,1-1.92-4.42,6.2,6.2,0,0,1,2.08-4.66c1.38-1.32,3.46-2.08,6.23-2.3,1.6,0,3,0,4.08-.08a35.65,35.65,0,0,1,3.91.08v-67.6H299.4a10,10,0,0,1-5.91-2.68,6.57,6.57,0,0,1-1.92-4.59,6.06,6.06,0,0,1,2.08-4.5q2.07-2,6.23-2.29H333a10.91,10.91,0,0,1,5,3.08,6.21,6.21,0,0,1,1.68,4,6.11,6.11,0,0,1-1.84,4.19,10.19,10.19,0,0,1-5.51,2.76h-8.47Z"/><path class="cls-2" d="M419.26,598.85a8.75,8.75,0,0,1,3-5.19,7.72,7.72,0,0,1,4.87-1.68,8.51,8.51,0,0,1,4.88,1.6,7.94,7.94,0,0,1,3.12,4.8q0,22.53-.32,43.86t-1.6,44a6.57,6.57,0,0,0-.16,1.2v.72a9.54,9.54,0,0,1-3.2,4.56,7.2,7.2,0,0,1-4.31,1.51c-2.46,0-4.8-1.11-7-3.35L417.35,689q-5.44-9.11-11.11-17.58T394.57,655q-6-8-12.22-15.9t-12.63-15.9V650q0,8.31.08,17.25t.08,19.5q-.17,4.15-2.64,6.08a8.4,8.4,0,0,1-5.19,1.91,8.14,8.14,0,0,1-5.19-1.83,8,8,0,0,1-2.8-5.52q0-10.54-.08-21.33t-.08-21.82V600.93a8.72,8.72,0,0,1,2.88-4.87,7.61,7.61,0,0,1,5-1.68q2.4,0,6.07,2.4l5,5.75q12.3,14.7,23.65,28.85T418.3,661.5q.48-16.14.72-31.08t.24-31.41Z"/><path class="cls-2" d="M464.81,685.15a7.43,7.43,0,0,1-2.64,5.92A8.35,8.35,0,0,1,457,693a8.85,8.85,0,0,1-5.36-1.84,7.76,7.76,0,0,1-2.95-5.52q0-10.21.08-20.37t.08-20.54q0-10.23-.08-20.77t-.08-21.58a8.63,8.63,0,0,1,2.95-5,8,8,0,0,1,5-1.68,8.17,8.17,0,0,1,4.71,1.6,7.83,7.83,0,0,1,3.12,4.79v17.26q0,4.32-.08,7.83c-.06,2.35-.08,5.06-.08,8.15a56.58,56.58,0,0,0,15.5-11.42q6.87-7.11,12.47-14,1.76-2.55,3.83-5.27c1.39-1.81,2.93-3.62,4.64-5.44a10.22,10.22,0,0,1,6.71-2.71,7.75,7.75,0,0,1,5.35,1.92,6.12,6.12,0,0,1,2.16,4.79,12.66,12.66,0,0,1-.8,3.51q-2.55,3-5,5.76a64.11,64.11,0,0,0-4.32,5.43q-5.6,6.72-10.54,12.47a69,69,0,0,1-11.51,10.55l8,8.63q7,7.5,13.74,14.62t13.75,14.78q2.86,3.68,2.87,6.23a6,6,0,0,1-2.07,4.72,7.72,7.72,0,0,1-5.28,1.84,11.59,11.59,0,0,1-3.51-.56,7.19,7.19,0,0,1-3.2-2.16c-.54-.64-1.44-1.65-2.72-3s-2.77-3-4.47-4.79-3.6-3.81-5.68-6-4.18-4.4-6.31-6.64-4.18-4.42-6.15-6.55-3.81-4.07-5.51-5.83-3.15-3.28-4.32-4.56-2-2.23-2.56-2.87c-.85.32-1.65.58-2.39.8s-1.71.53-2.88,1c0,2.46,0,5.17.08,8.15s.1,6,.16,9.11.1,6.16.16,9.19S464.7,682.71,464.81,685.15Z"/></svg>
