<svg id="Lag_1" data-name="Lag 1" xmlns="http://www.w3.org/2000/svg" width="700" height="700" viewBox="0 0 700 700"><defs><style>.cls-1{fill:#7be864;}.cls-2{fill:#e55757;}</style></defs><title>Stjerne3</title><polygon class="cls-1" points="349.57 3.5 442.52 191.84 650.36 222.04 499.96 368.63 535.47 575.63 349.57 477.9 163.67 575.63 199.18 368.63 48.78 222.04 256.62 191.84 349.57 3.5"/><path class="cls-2" d="M252.22,624a9,9,0,0,1,5.28,2.79,6.67,6.67,0,0,1,1.59,4.22,6.38,6.38,0,0,1-1.11,3.59,8.36,8.36,0,0,1-3.68,2.79v23.26a8.42,8.42,0,0,1-1.92,5.42,38.56,38.56,0,0,1-4,4.3l-1.28,1.12A30.37,30.37,0,0,1,235,678.91a46.28,46.28,0,0,1-14.54,2.31q-12,0-20.86-4.87A49.42,49.42,0,0,1,184.7,664a54.2,54.2,0,0,1-11.91-33,44.22,44.22,0,0,1,1.2-9.75,55.07,55.07,0,0,1,3.6-10.55,53.85,53.85,0,0,1,6-10.06,35.61,35.61,0,0,1,8.23-8,112.27,112.27,0,0,1,17.74-9.1,49.57,49.57,0,0,1,18.7-3.68,52,52,0,0,1,6.79.56,41.76,41.76,0,0,1,7.83,1.84,21.36,21.36,0,0,1,6.48,3.43,6.6,6.6,0,0,1,2.71,5.36,6.23,6.23,0,0,1-2.15,4.71,7.61,7.61,0,0,1-5.36,2,16,16,0,0,1-3.35-.38,23.74,23.74,0,0,1-3.68-1.15l-4.81-1.54a14.86,14.86,0,0,0-4.49-.77,24.28,24.28,0,0,0-2.65.16,14.23,14.23,0,0,0-2.8.64q-6.09,1.92-12.19,4.47a43.24,43.24,0,0,0-11.06,6.69,32.53,32.53,0,0,0-8.1,10.29q-3.12,6.13-3.12,15.23a38.05,38.05,0,0,0,2.56,14,37.32,37.32,0,0,0,6.82,11.32,32.3,32.3,0,0,0,9.85,7.58,26,26,0,0,0,11.71,2.79,26.7,26.7,0,0,0,10.1-2,27.4,27.4,0,0,0,9.14-6.15V638.07q-5.59.16-11.27.16H215.94q-4.16-.63-6.07-2.52a6,6,0,0,1-1.92-4.43,7.13,7.13,0,0,1,2.08-4.82c1.38-1.53,3.57-2.29,6.55-2.29h17.58q5.91,0,11-.08t6.79-.08Z"/><path class="cls-2" d="M289,672.75q-.17,4.15-2.64,6.08a8.6,8.6,0,0,1-5.35,1.91,7.84,7.84,0,0,1-7.83-7.34V598.72a9.27,9.27,0,0,1-3.84-2.55,5.75,5.75,0,0,1-1.6-4,7.38,7.38,0,0,1,2.88-5.9,65.06,65.06,0,0,1,15.82-7.34A58.23,58.23,0,0,1,304,576.22a49.72,49.72,0,0,1,14.06,1.92,33.53,33.53,0,0,1,12,6.38,32.29,32.29,0,0,1,9.59,11.33,28.7,28.7,0,0,1,2.88,12.45,31.91,31.91,0,0,1-1.6,10,36.1,36.1,0,0,1-4.56,9.18,41.58,41.58,0,0,1-7.11,7.9,38.78,38.78,0,0,1-9.43,6l25.41,28.08a9.09,9.09,0,0,1,2.08,5.11,6.09,6.09,0,0,1-2.16,4.87,7.76,7.76,0,0,1-5.19,1.83,11.4,11.4,0,0,1-3.52-.56,7.27,7.27,0,0,1-3.19-2.15c-1-1.18-2.83-3.3-5.6-6.4s-5.8-6.39-9.11-9.9-6.36-6.82-9.18-9.91-4.67-5.17-5.52-6.24A99.75,99.75,0,0,1,289,647.5Zm31-77.67a22,22,0,0,0-7.91-3.75,36.05,36.05,0,0,0-8.71-1A40.14,40.14,0,0,0,289,592.84v40.44q5.43-.31,10.95-1a40.91,40.91,0,0,0,10.94-2.88,19.92,19.92,0,0,0,6.24-3.43,31.8,31.8,0,0,0,5.11-5.2,24.31,24.31,0,0,0,3.52-6.23A18.38,18.38,0,0,0,327,608a15.7,15.7,0,0,0-1.59-6.95A16.35,16.35,0,0,0,320,595.08Z"/><path class="cls-2" d="M423.38,572.55c2-3,4.53-4.48,7.51-4.48a8,8,0,0,1,5.2,1.92,6.33,6.33,0,0,1,2.31,5.12,6,6,0,0,1-.16,1.35,8.53,8.53,0,0,1-.48,1.52l-3.35,8.31a37,37,0,0,1,12,13.43,36.19,36.19,0,0,1,4,10.78,59.52,59.52,0,0,1,1.12,11.43q0,3.68-.32,7.35c-.21,2.46-.53,4.9-1,7.35a81.9,81.9,0,0,1-4.06,11.75,79.91,79.91,0,0,1-6.3,11.83,58.86,58.86,0,0,1-8.45,10.3,33.89,33.89,0,0,1-10.53,7,96.19,96.19,0,0,1-9.65,3.19,36.73,36.73,0,0,1-9.65,1.28c-1.49,0-2.87,0-4.15-.16a16.77,16.77,0,0,1-4.14-1c-.53,1.28-1.09,2.51-1.68,3.68s-1.14,2.4-1.67,3.67a8.51,8.51,0,0,1-3.43,3,9,9,0,0,1-3.59.8,7.68,7.68,0,0,1-5.18-1.84,6.82,6.82,0,0,1-2.15-5.51,7.77,7.77,0,0,1,.16-1.36,28.81,28.81,0,0,1,1.12-3.6l2.07-4.63a31.67,31.67,0,0,1-8.69-7.43,39.39,39.39,0,0,1-5.73-9.59,46.19,46.19,0,0,1-3.07-10.87,72.9,72.9,0,0,1-.89-11.26c0-1.5.06-3,.16-4.64s.27-3.14.48-4.63a58.37,58.37,0,0,1,3-10.79,82.74,82.74,0,0,1,5.27-11.43,70.67,70.67,0,0,1,7-10.39,41.75,41.75,0,0,1,8.23-7.83,45.22,45.22,0,0,1,12.06-5.59,46.69,46.69,0,0,1,13.35-1.92,41.84,41.84,0,0,1,10.06,1.12Zm-47.3,64.08a41.42,41.42,0,0,0,2.19,13.67,28.55,28.55,0,0,0,6.6,10.79L414.43,593a26.17,26.17,0,0,0-2.88-.47,24,24,0,0,0-10.7,1.19,31.93,31.93,0,0,0-7.35,3.76,34.71,34.71,0,0,0-7.42,7.91,53.76,53.76,0,0,0-5.45,10,61,61,0,0,0-3.38,10.79A50.39,50.39,0,0,0,376.08,636.63Zm58.65-2.07v-.16q.48-3.2.88-6.24a47.47,47.47,0,0,0,.4-6.07,42.91,42.91,0,0,0-.8-8.23,32.64,32.64,0,0,0-2.56-7.75,44.71,44.71,0,0,0-4.31-5.91l-29.41,67.44c.74.11,1.41.19,2,.24s1.25.08,2,.08a22.37,22.37,0,0,0,11.83-3.2,34.85,34.85,0,0,0,9.19-8.07,51.2,51.2,0,0,0,6.63-10.79A70.74,70.74,0,0,0,434.73,634.56Z"/><path class="cls-2" d="M530.78,584.85a8.74,8.74,0,0,1,3-5.19,7.73,7.73,0,0,1,4.88-1.68,8.48,8.48,0,0,1,4.87,1.6,7.94,7.94,0,0,1,3.12,4.8q0,22.53-.32,43.86t-1.6,44a6.57,6.57,0,0,0-.16,1.2v.72a9.54,9.54,0,0,1-3.2,4.56,7.2,7.2,0,0,1-4.31,1.51c-2.45,0-4.8-1.11-7-3.35L528.86,675q-5.45-9.11-11.11-17.58T506.08,641q-6-8-12.22-15.9t-12.63-15.9V636q0,8.31.08,17.25t.08,19.5q-.15,4.15-2.63,6.08a8.44,8.44,0,0,1-5.2,1.91,8.14,8.14,0,0,1-5.19-1.83,8,8,0,0,1-2.8-5.52q0-10.54-.08-21.33t-.08-21.82V586.93a8.72,8.72,0,0,1,2.88-4.87,7.61,7.61,0,0,1,4.95-1.68c1.6,0,3.62.8,6.08,2.4l4.95,5.75q12.3,14.7,23.65,28.85t21.9,30.12q.48-16.14.72-31.08t.24-31.41Z"/></svg>
