<svg id="Lag_1" data-name="Lag 1" xmlns="http://www.w3.org/2000/svg" width="700" height="700" viewBox="0 0 700 700"><defs><style>.cls-1{fill:#c98bea;}.cls-2{fill:#6fcdf7;}</style></defs><title>stjerne9</title><polygon class="cls-1" points="372.07 12.5 465.02 200.84 672.86 231.04 522.47 377.63 557.97 584.63 372.07 486.9 186.17 584.63 221.68 377.63 71.28 231.04 279.12 200.84 372.07 12.5"/><path class="cls-2" d="M255.38,673.44a11,11,0,0,1,5,3.08,6.39,6.39,0,0,1,1.68,4.19,5.83,5.83,0,0,1-1.84,4.11,10.65,10.65,0,0,1-5.51,2.69q-6.08.15-12.23.24t-12.23.08q-5.43.15-12,.16t-12.15.31q-7.18-.79-8-7.35,0-10.55.08-20.77t.08-20.78q.16-10.54.16-20.93V597.53a8.68,8.68,0,0,1,2.88-4.87,7.39,7.39,0,0,1,4.79-1.68A8.24,8.24,0,0,1,211,592.5a9.32,9.32,0,0,1,3.27,4.56q0,9.93-.08,19.7t-.08,19.37q-.17,9.78-.16,19v19q4.95-.32,9.83-.24t9.83-.08c3.52,0,7.08,0,10.71-.08S251.65,673.55,255.38,673.44Z"/><path class="cls-2" d="M305.56,672.8c1.18,0,2.19,0,3-.08s1.86-.13,3-.24h.64q4.64-.32,7.11,1.9a6.5,6.5,0,0,1,2.48,4.9,6.36,6.36,0,0,1-1.84,4.26,10.16,10.16,0,0,1-5.67,2.85c-1.92.1-3.9.16-5.92.16H281.27a10,10,0,0,1-5.91-2.69,6.38,6.38,0,0,1-1.92-4.42,6.2,6.2,0,0,1,2.08-4.66c1.38-1.32,3.46-2.08,6.23-2.3,1.6,0,3,0,4.08-.08a35.65,35.65,0,0,1,3.91.08v-67.6h-8.63a10,10,0,0,1-5.91-2.68,6.57,6.57,0,0,1-1.92-4.59,6.06,6.06,0,0,1,2.08-4.5q2.07-2,6.23-2.29h33.08a10.91,10.91,0,0,1,5,3.08,6.21,6.21,0,0,1,1.68,4,6.11,6.11,0,0,1-1.84,4.19,10.23,10.23,0,0,1-5.51,2.76h-8.48Z"/><path class="cls-2" d="M394.42,673.44a11,11,0,0,1,5,3.08,6.43,6.43,0,0,1,1.67,4.19,5.79,5.79,0,0,1-1.84,4.11,10.61,10.61,0,0,1-5.51,2.69q-6.07.15-12.22.24t-12.23.08q-5.43.15-12,.16t-12.14.31q-7.2-.79-8-7.35,0-10.55.08-20.77t.08-20.78q.15-10.54.16-20.93V597.53a8.73,8.73,0,0,1,2.87-4.87,7.41,7.41,0,0,1,4.8-1.68,8.21,8.21,0,0,1,4.87,1.52,9.33,9.33,0,0,1,3.28,4.56q0,9.93-.08,19.7t-.08,19.37q-.17,9.78-.16,19v19q5-.32,9.83-.24c3.25.06,6.52,0,9.83-.08,3.51,0,7.08,0,10.7-.08S390.69,673.55,394.42,673.44Z"/><path class="cls-2" d="M469.37,673.44a11,11,0,0,1,5,3.08,6.38,6.38,0,0,1,1.67,4.19,5.82,5.82,0,0,1-1.83,4.11,10.69,10.69,0,0,1-5.52,2.69q-6.08.15-12.22.24t-12.23.08q-5.43.15-12,.16t-12.15.31q-7.18-.79-8-7.35,0-10.55.08-20.77t.08-20.78q.15-10.54.16-20.93V597.53a8.68,8.68,0,0,1,2.88-4.87,7.39,7.39,0,0,1,4.79-1.68A8.19,8.19,0,0,1,425,592.5a9.33,9.33,0,0,1,3.28,4.56q0,9.93-.08,19.7t-.08,19.37q-.17,9.78-.16,19v19q4.95-.32,9.83-.24c3.25.06,6.52,0,9.83-.08,3.51,0,7.08,0,10.71-.08S465.64,673.55,469.37,673.44Z"/><path class="cls-2" d="M567.66,681.11a8.81,8.81,0,0,1-2.48,6,7.38,7.38,0,0,1-5.19,2,8.54,8.54,0,0,1-4.4-1.27,8.94,8.94,0,0,1-3.44-4,110.13,110.13,0,0,0-2.47-14.06,143.59,143.59,0,0,0-4.24-14.07q-10.07,0-20.13.16T505,656h-.32q-1.92,6.72-3.6,12.87T498,682.07a11.11,11.11,0,0,1-3.36,5.12,7.21,7.21,0,0,1-4.47,1.59,7.75,7.75,0,0,1-5.84-2.63c-1.65-1.76-2.15-4.08-1.52-6.95a436.84,436.84,0,0,1,12.47-44.59,295.34,295.34,0,0,1,18.54-43l-.16.16c.85-2.24,2.72-3.68,5.59-4.32h-.16a7.28,7.28,0,0,1,7.67,1.6,65,65,0,0,1,7.44,8.55q3.44,4.71,6.39,9.75t5.51,10.15c1.71,3.41,3.3,6.66,4.8,9.75,1,2,2,4.29,3,6.79s2.08,5,3,7.43c1.17,0,2.45,0,3.84-.08s2.66-.08,3.83-.08a10.63,10.63,0,0,1,5,3,6.09,6.09,0,0,1-.15,8.39,9.81,9.81,0,0,1-5.44,2.79h-1.92A138.5,138.5,0,0,1,567.66,681.11ZM530.74,621c-1.28-2.34-2.58-4.68-3.92-7s-2.63-4.42-3.91-6.23q-3.84,8.15-7.11,16.54t-6.48,17.5q8.16,0,15.59-.16t15.58-.16q-1.92-4.63-4-8.79t-4.15-8.79Z"/></svg>
