<svg id="Lag_1" data-name="Lag 1" xmlns="http://www.w3.org/2000/svg" width="700" height="700" viewBox="0 0 700 700"><defs><style>.cls-1{fill:#e55757;}.cls-2{fill:#ffeb57;}</style></defs><title>Stjerne6</title><polygon class="cls-1" points="349.57 14.5 442.52 202.84 650.36 233.04 499.96 379.63 535.47 586.63 349.57 488.9 163.67 586.63 199.18 379.63 48.78 233.04 256.62 202.84 349.57 14.5"/><path class="cls-2" d="M243.93,672.75c-.11,2.77-1,4.8-2.64,6.08a8.6,8.6,0,0,1-5.35,1.91,7.86,7.86,0,0,1-7.83-7.34V598.72a9.4,9.4,0,0,1-3.84-2.55,5.78,5.78,0,0,1-1.59-4,7.37,7.37,0,0,1,2.87-5.9,65.23,65.23,0,0,1,15.82-7.34A58.32,58.32,0,0,1,259,576.22,49.84,49.84,0,0,1,273,578.14a33.57,33.57,0,0,1,12,6.38,32.29,32.29,0,0,1,9.59,11.33,28.7,28.7,0,0,1,2.88,12.45,31.91,31.91,0,0,1-1.6,10,36.07,36.07,0,0,1-4.55,9.18,42.27,42.27,0,0,1-7.11,7.9,39.16,39.16,0,0,1-9.43,6l25.41,28.08a9.14,9.14,0,0,1,2.07,5.11,6.11,6.11,0,0,1-2.15,4.87,7.79,7.79,0,0,1-5.2,1.83,11.29,11.29,0,0,1-3.51-.56,7.24,7.24,0,0,1-3.2-2.15c-1-1.18-2.82-3.3-5.59-6.4s-5.81-6.39-9.11-9.9-6.37-6.82-9.19-9.91-4.66-5.17-5.52-6.24a99.62,99.62,0,0,1-14.86,1.44Zm31-77.67a22.08,22.08,0,0,0-7.92-3.75,36,36,0,0,0-8.71-1,40.18,40.18,0,0,0-14.38,2.55v40.44q5.43-.31,10.95-1a41.08,41.08,0,0,0,10.95-2.88,20,20,0,0,0,6.23-3.43,31.41,31.41,0,0,0,5.11-5.2,24.31,24.31,0,0,0,3.52-6.23A18.39,18.39,0,0,0,282,608a15.71,15.71,0,0,0-1.6-6.95A16.4,16.4,0,0,0,274.94,595.08Z"/><path class="cls-2" d="M378.33,572.55c2-3,4.53-4.48,7.52-4.48A8,8,0,0,1,391,570a6.33,6.33,0,0,1,2.32,5.12,6.69,6.69,0,0,1-.16,1.35,10.55,10.55,0,0,1-.48,1.52l-3.36,8.31a37,37,0,0,1,12,13.43,35.89,35.89,0,0,1,4,10.78,58.74,58.74,0,0,1,1.12,11.43q0,3.68-.32,7.35c-.21,2.46-.53,4.9-.95,7.35a82,82,0,0,1-4.07,11.75,79,79,0,0,1-6.3,11.83,58.42,58.42,0,0,1-8.45,10.3,33.66,33.66,0,0,1-10.53,7,95.36,95.36,0,0,1-9.65,3.19,36.68,36.68,0,0,1-9.65,1.28c-1.48,0-2.87,0-4.14-.16a16.74,16.74,0,0,1-4.15-1c-.53,1.28-1.09,2.51-1.67,3.68s-1.15,2.4-1.68,3.67a8.45,8.45,0,0,1-3.43,3,9,9,0,0,1-3.58.8,7.68,7.68,0,0,1-5.19-1.84,6.85,6.85,0,0,1-2.15-5.51,7.77,7.77,0,0,1,.16-1.36,28.81,28.81,0,0,1,1.12-3.6l2.08-4.63a31.71,31.71,0,0,1-8.7-7.43,39.39,39.39,0,0,1-5.73-9.59,46.67,46.67,0,0,1-3.07-10.87,72.88,72.88,0,0,1-.88-11.26c0-1.5.05-3,.16-4.64s.26-3.14.48-4.63a57.51,57.51,0,0,1,2.95-10.79,81.65,81.65,0,0,1,5.28-11.43,70.62,70.62,0,0,1,7-10.39,42,42,0,0,1,8.23-7.83,45.36,45.36,0,0,1,12.06-5.59,46.74,46.74,0,0,1,13.35-1.92,41.93,41.93,0,0,1,10.07,1.12ZM331,636.63a41.16,41.16,0,0,0,2.2,13.67,28.53,28.53,0,0,0,6.59,10.79L369.38,593a25.61,25.61,0,0,0-2.87-.47,24,24,0,0,0-10.71,1.19,31.93,31.93,0,0,0-7.35,3.76,34.9,34.9,0,0,0-7.41,7.91,53.23,53.23,0,0,0-5.46,10,61,61,0,0,0-3.37,10.79A49.76,49.76,0,0,0,331,636.63Zm58.65-2.07v-.16q.48-3.2.88-6.24a47.47,47.47,0,0,0,.4-6.07,42.91,42.91,0,0,0-.8-8.23,32.2,32.2,0,0,0-2.56-7.75,43.83,43.83,0,0,0-4.31-5.91l-29.41,67.44c.75.11,1.41.19,2,.24s1.25.08,2,.08a22.34,22.34,0,0,0,11.82-3.2,34.85,34.85,0,0,0,9.19-8.07,51.65,51.65,0,0,0,6.64-10.79A70.66,70.66,0,0,0,389.68,634.56Z"/><path class="cls-2" d="M435.07,681.06q-5.6-1-7.36-4.14l-.47-1a8.66,8.66,0,0,1-1.12-3.67V603a6.09,6.09,0,0,1-1.44.4,15.49,15.49,0,0,1-1.92.08A8.52,8.52,0,0,1,417,601.6a5.69,5.69,0,0,1-2.24-4.46q0-3.67,4.15-6.31a40.5,40.5,0,0,1,10-4.38A74.51,74.51,0,0,1,441,583.9a82.91,82.91,0,0,1,10.39-.8,54.88,54.88,0,0,1,21.09,3.83A45.94,45.94,0,0,1,488,597.22a44.28,44.28,0,0,1,9.67,15.07,49.62,49.62,0,0,1-.32,36.7,46.85,46.85,0,0,1-10.86,16.12,41.21,41.21,0,0,1-11.11,7.42A75.27,75.27,0,0,1,462.55,677a118.15,118.15,0,0,1-13.74,2.55q-7,.87-13.42,1.51Zm16.14-83.9a33.85,33.85,0,0,0-4.56.32l-4.71.64V666.2c2.88-.32,5.91-.72,9.11-1.2a84.47,84.47,0,0,0,9.27-1.92,46.22,46.22,0,0,0,8.39-3.11,21.36,21.36,0,0,0,6.63-5,36.57,36.57,0,0,0,7.43-12.22,40.56,40.56,0,0,0,2.48-14,33.79,33.79,0,0,0-2.16-12,27.84,27.84,0,0,0-6.47-10.07,32.27,32.27,0,0,0-10.71-7A38.25,38.25,0,0,0,451.21,597.16Z"/></svg>
