<svg xmlns="http://www.w3.org/2000/svg" width="200" height="130" viewBox="0 0 200 130"><defs><style>.cls-1{isolation:isolate;}.cls-2{mix-blend-mode:multiply;}.cls-3{fill:#f9a0f9;}.cls-4{fill:#662d91;}</style></defs><title>Tid</title><g class="cls-1"><g id="Lag_1" data-name="Lag 1"><g class="cls-2"><path class="cls-3" d="M29.28,44.55l.24-1.2c1.68-8.76,5.52-23,15.24-23C60,20.31,62.88,33.63,64.2,46.47c.47,4.8,1.55,18,1.55,18.84,0,1.56-1.08,19.32-1.55,25.2-.84,9.84-4.92,23.88-16.68,23.88-8.28,0-13-8.88-14.88-16-3.84-13.68-4.92-23.76-4.92-37.8C27.72,52.83,28,51.75,29.28,44.55ZM48,108.75c5.64,0,8.52-14.64,9.12-18.24l.72-6.24c.95-8.16.84-10.44.84-18.24a152.22,152.22,0,0,0-1.68-22C56.28,38,53.76,25.83,45.24,25.83,42,25.83,38,38.43,37.32,41A90.84,90.84,0,0,0,34.2,59.07c0,.12-.12,3-.12,4.08C34.08,70.11,36.48,108.75,48,108.75Z"/><path class="cls-3" d="M81.84,46.11c3.24,0,5.4,2.52,5.4,5.88,0,2.64-2.53,3-4.8,3-3,0-4.68-1.92-4.68-5.28C77.76,48.15,80.4,46.11,81.84,46.11Zm0,61.2c3.24,0,5.4,2.52,5.4,5.88,0,2.64-2.53,3-4.8,3-3,0-4.68-1.92-4.68-5.28C77.76,109.35,80.4,107.31,81.84,107.31Z"/><path class="cls-3" d="M102.59,106.47c2.64,0,4,2.64,6.72,2.64,12.6,0,15.84-16.92,14.4-26-3.36-21.36-19-21-19-25.56a2.82,2.82,0,0,1,.24-1c1.68-4,14.64-12.24,14.64-22.32,0-4.8-4.8-6.48-8.88-6.48a39.93,39.93,0,0,0-6.6,1c-1.68,0-4.08-3-4.08-4.56,0-3,5.16-3,7.68-3h.48c8.88,0,18.72,3.24,18.72,13.68,0,7.8-6.72,17.16-13.56,21.84A36.85,36.85,0,0,1,131,83.43c.12,1.2.24,2.52.24,3.84,0,12.6-7.68,28.2-21.84,28.2-3.72,0-10.2-1.2-10.2-6.12C99.23,107.55,100.79,106.47,102.59,106.47Z"/><path class="cls-3" d="M144.59,44.55l.24-1.2c1.68-8.76,5.52-23,15.24-23,15.24,0,18.12,13.32,19.44,26.16.48,4.8,1.56,18,1.56,18.84,0,1.56-1.08,19.32-1.56,25.2-.84,9.84-4.92,23.88-16.68,23.88-8.28,0-13-8.88-14.88-16C144.11,84.75,143,74.67,143,60.63,143,52.83,143.27,51.75,144.59,44.55Zm18.72,64.2c5.64,0,8.52-14.64,9.12-18.24l.72-6.24c1-8.16.84-10.44.84-18.24a152.22,152.22,0,0,0-1.68-22c-.72-6.12-3.24-18.24-11.76-18.24-3.24,0-7.2,12.6-7.92,15.12a90.84,90.84,0,0,0-3.12,18.12c0,.12-.12,3-.12,4.08C149.39,70.11,151.79,108.75,163.31,108.75Z"/></g><path class="cls-4" d="M22.28,43.55l.24-1.2c1.68-8.76,5.52-23,15.24-23C53,19.31,55.88,32.63,57.2,45.47c.47,4.8,1.55,18,1.55,18.84,0,1.56-1.08,19.32-1.55,25.2-.84,9.84-4.92,23.88-16.68,23.88-8.28,0-13-8.88-14.88-16-3.84-13.68-4.92-23.76-4.92-37.8C20.72,51.83,21,50.75,22.28,43.55ZM41,107.75c5.64,0,8.52-14.64,9.12-18.24l.72-6.24c.95-8.16.84-10.44.84-18.24a152.22,152.22,0,0,0-1.68-22C49.28,37,46.76,24.83,38.24,24.83,35,24.83,31,37.43,30.32,40A90.84,90.84,0,0,0,27.2,58.07c0,.12-.12,3-.12,4.08C27.08,69.11,29.48,107.75,41,107.75Z"/><path class="cls-4" d="M74.84,45.11c3.24,0,5.4,2.52,5.4,5.88,0,2.64-2.53,3-4.8,3-3,0-4.68-1.92-4.68-5.28C70.76,47.15,73.4,45.11,74.84,45.11Zm0,61.2c3.24,0,5.4,2.52,5.4,5.88,0,2.64-2.53,3-4.8,3-3,0-4.68-1.92-4.68-5.28C70.76,108.35,73.4,106.31,74.84,106.31Z"/><path class="cls-4" d="M95.59,105.47c2.64,0,4,2.64,6.72,2.64,12.6,0,15.84-16.92,14.4-26-3.36-21.36-19-21-19-25.56a2.82,2.82,0,0,1,.24-1c1.68-4,14.64-12.24,14.64-22.32,0-4.8-4.8-6.48-8.88-6.48a39.93,39.93,0,0,0-6.6,1c-1.68,0-4.08-3-4.08-4.56,0-3,5.16-3,7.68-3h.48c8.88,0,18.72,3.24,18.72,13.68,0,7.8-6.72,17.16-13.56,21.84A36.85,36.85,0,0,1,124,82.43c.12,1.2.24,2.52.24,3.84,0,12.6-7.68,28.2-21.84,28.2-3.72,0-10.2-1.2-10.2-6.12C92.23,106.55,93.79,105.47,95.59,105.47Z"/><path class="cls-4" d="M137.59,43.55l.24-1.2c1.68-8.76,5.52-23,15.24-23,15.24,0,18.12,13.32,19.44,26.16.48,4.8,1.56,18,1.56,18.84,0,1.56-1.08,19.32-1.56,25.2-.84,9.84-4.92,23.88-16.68,23.88-8.28,0-13-8.88-14.88-16C137.11,83.75,136,73.67,136,59.63,136,51.83,136.27,50.75,137.59,43.55Zm18.72,64.2c5.64,0,8.52-14.64,9.12-18.24l.72-6.24c1-8.16.84-10.44.84-18.24a152.22,152.22,0,0,0-1.68-22c-.72-6.12-3.24-18.24-11.76-18.24-3.24,0-7.2,12.6-7.92,15.12a90.84,90.84,0,0,0-3.12,18.12c0,.12-.12,3-.12,4.08C142.39,69.11,144.79,107.75,156.31,107.75Z"/></g></g></svg>
