<svg id="Lag_1" data-name="Lag 1" xmlns="http://www.w3.org/2000/svg" width="800" height="500" viewBox="0 0 800 500"><defs><style>.cls-1{fill:#88b564;}</style></defs><title>Vinder</title><path class="cls-1" d="M280.8,102.62h.32c14.4.64,16.4,17.52,16.4,29.2,0,1.2-.08,2.4-.08,3.44-.4,15.2-4.72,27.44-18.32,27.44a17.22,17.22,0,0,1-3.44-.32s.08-9,.16-12.64c.24-10.24.64-19.92,1-30.32.08-1.36.24-13,.32-14.56l.08-.48C277.36,103,279.6,102.62,280.8,102.62Zm-.88,56.56a6.93,6.93,0,0,0,.88.08c10.16,0,11.84-17.12,12.16-23.68.4-7.52.08-27.52-11.2-28.48Z"/><path class="cls-1" d="M306.88,103.42a3.16,3.16,0,0,1,2-1c2.88,0,2.72,3,2.64,5.12v.48c-.16,8-1.12,15.84-1.28,23.84-.16,5.44-2.72,27.36,5.84,27.36,3.92,0,6.56-7.68,7.12-10.16a210.11,210.11,0,0,0,4.8-42.8v-1.76c0-1.2,1.6-1.6,2.64-1.6a2.53,2.53,0,0,1,2.48,2.4l-.08,1.2a320.1,320.1,0,0,1-3.92,35.92l-.16,1a7.4,7.4,0,0,1-.24.8c-1,5.76-3.28,19-12.16,19-10.16,0-11-10.88-11-17.84V144c0-.48.08-10.8.16-14.64C306,120.7,306,112.06,306.88,103.42Z"/><path class="cls-1" d="M365.2,106.14l-.08-.48c0-1.2,1.52-1.6,2.56-1.68,2.48,0,2.72,1.76,3.2,4.16,2.24,11.92,5,25.12,9.52,44.56l8.08-45.44a2.75,2.75,0,0,1,2.48-2.08c1.28,0,2.48.48,2.56,2.08l-9,45.84c-.4,1.28-2.16,11.68-3.68,11.68a.29.29,0,0,0-.24.08c-.8-.16-1.6,0-2.08-1.12C373.84,144.62,370.48,125.18,365.2,106.14Z"/><path class="cls-1" d="M402.24,106.62c.47-7.36,5.27-5.44,6.64,0,2,8,3.52,15.28,12.24,57.68,0,1.76-2.41,3.12-3.84.56l-2.88-14.4-10.81,1.6c-.63,3.76-1.2,10.88-1.35,14.24-.16,1.92-3.61,1.44-3.53,0Zm1.51,37.28c-.08.56-.16,3.68-.16,4.32l10-1.44-7.84-35.6C405.43,116.06,404,138.94,403.75,143.9Z"/><path class="cls-1" d="M428,106.62c1.52-2.88,3.83-.32,4.64.8,4.8,13.76,8.08,27.76,13.92,42.08l.8-11.2c.88-10.08,1-18.8.88-28.88a3,3,0,0,1,3-2,2.36,2.36,0,0,1,2.24,1c-1.44,17.28-2.08,35.68-2.64,54.08l-.08,1c-.16.4-1.2,1.52-1.92,1.52a3.68,3.68,0,0,1-2.24-1.52c-5-15-10.56-29.6-15.36-44.64l-.57,45.6c-1.83,4.16-4.63,2-4.71-.4Z"/><path class="cls-1" d="M466.63,102.62H467c14.4.64,16.4,17.52,16.4,29.2,0,1.2-.08,2.4-.08,3.44-.4,15.2-4.72,27.44-18.32,27.44a17.22,17.22,0,0,1-3.44-.32s.08-9,.16-12.64c.24-10.24.64-19.92,1-30.32.08-1.36.24-13,.32-14.56l.08-.48C463.19,103,465.43,102.62,466.63,102.62Zm-.88,56.56a6.93,6.93,0,0,0,.88.08c10.16,0,11.84-17.12,12.16-23.68.4-7.52.08-27.52-11.2-28.48Z"/><path class="cls-1" d="M491.83,129.26c0-6.16-.08-21.68-.16-21.76l-6.4-.24c-2.56-.72-3.52-3.2.4-4.16,6.24.16,12.32,0,18.8.48,3.6.32,3.36,4.32,1,4.32l-8.72-.16c-.08.08-.4,25.44-.56,35.76,0,3.28-.32,9.44-.32,13.28v1c-.64,2.4-3.92,1.68-4.48-.56C491.51,151.58,491.83,135,491.83,129.26Z"/><path class="cls-1" d="M517.35,101.74c1.12,0,2.48.16,2.72,1.6.08,1.2.48,6.88.48,8.08,0,16.56,1.76,26.08,1.76,42.72,0,1.12,0,2.48-1.52,2.48-2.56,0-2.64-3.12-2.72-5v-.4c-1.12-18.32-.8-29.6-2.8-47.84C515.75,102.14,516.07,101.74,517.35,101.74Zm2.72,58.8a3.62,3.62,0,0,1,3.6,3.92c0,1.76-1.68,2-3.2,2-2,0-3.12-1.28-3.12-3.52C517.35,161.9,519.11,160.54,520.07,160.54Z"/><path class="cls-1" d="M88.76,227.42c0-2.48-.4-17-.56-20.8,0-.8-.48-7.84-.56-8.72v-.32c0-1.84,2.08-2.32,3.68-2.32,11,0,15,7.92,15,17.12,0,7.36-2.8,11.84-7.92,15.52C107.56,232,109.8,245,109.8,254c0,1.44-.88,2-2.32,2-1,0-1.36,0-1.76-1.28-.4-6-1.92-23-11.2-23-.08,0-.64.08-.8.08-.88,9-.16,18.16-.72,27.28a2.58,2.58,0,0,1-4.24,0C88.84,254.3,88.84,232.22,88.76,227.42Zm4.4-1.92c5.68-1.12,8.8-7.36,8.8-12.4,0-4.24-1.76-13-7.52-13-.32,0-2.8,0-2.8.64Z"/><path class="cls-1" d="M117.56,251.1V235.26c0-11.44-1.12-18.8-1.12-30.24v-4.08c12.8-1,14.24-.16,14.24,1.6,0,.56-.4,1.76-1,2H121c-.56,0-.56.4-.56.64,0,8.48.8,14.72,1.28,23.44,1.2.32,7.92.08,9.28.08,2.72.08,4.56,4.72.88,4.72H121.72l.16,18.72c1.92.48,12.08-1.52,12.08,2a1.93,1.93,0,0,1-1.52,2.08H132c-3,.24-14.32,1.12-14.4-1.2Z"/><path class="cls-1" d="M142,227.26c0-6.32,1.44-18.56,8.4-21.92,4-1.92,14.4-1.12,14.4,5.28,0,1-.4,2-1.76,2-2.88,0-3.92-4.32-8-4.32h-.32c-7.44.4-8.72,11.6-8.72,17.6v1.6c.4,8,.4,13.92,2.08,21.44.8,3.76,3,7.76,7.6,7.76h.4c7.28-.4,7.52-9.92,7.28-14.48l-.64-11.84c-2.32,0-4.64.64-7.2.4-.72-.48-1-2.48-1-2.56,0-2.4,5.52-1.92,10.72-2,2.4.64,2.08,4.64,2.32,9.6v.8c.48,8.72,1.2,23.52-10.4,24.08a10.68,10.68,0,0,1-1.6,0C144.76,261.34,142,248.14,142,227.26Z"/><path class="cls-1" d="M177.8,202.62c1.52-2.88,3.84-.32,4.64.8,4.8,13.76,8.08,27.76,13.92,42.08l.8-11.2c.88-10.08,1-18.8.88-28.88a3,3,0,0,1,3-2,2.36,2.36,0,0,1,2.24,1c-1.44,17.28-2.08,35.68-2.64,54.08l-.08,1c-.16.4-1.2,1.52-1.92,1.52a3.68,3.68,0,0,1-2.24-1.52c-5-15-10.56-29.6-15.36-44.64l-.56,45.6c-1.84,4.16-4.64,2-4.72-.4Z"/><path class="cls-1" d="M211.8,204.06a24.08,24.08,0,0,1-.48-5.52c0-1.44,1.68-2.24,3-2.16,7.6.48,14.4,3.68,14.4,12,0,5.52-.48,6.24-4.64,10,10.4,4.64,13.28,15.92,13.28,26.56,0,8.32-6.24,14.24-13.84,16.4l-2,.48a7.44,7.44,0,0,1-5.2-.48C213.24,259.5,213.08,211.26,211.8,204.06Zm4.16,7.68c0,.72.32,4,.4,4.56a8.23,8.23,0,0,0,1.36.08c4,0,6.4-3.44,6.4-7.12,0-5.2-3-8.32-8.32-8.32C215.8,202.62,215.88,210.14,216,211.74Zm1,12.32c.64,12,1.52,22.16,2.08,33.68h.48c9,0,13.36-5.84,13.36-14.16,0-10.56-3.84-22.4-16-22.4C216.84,221.58,216.92,223.66,216.92,224.06Z"/><path class="cls-1" d="M246.76,199.42a3.16,3.16,0,0,1,2-1c2.88,0,2.72,3,2.64,5.12v.48c-.16,8-1.12,15.84-1.28,23.84-.16,5.44-2.72,27.36,5.84,27.36,3.92,0,6.56-7.68,7.12-10.16a210.11,210.11,0,0,0,4.8-42.8v-1.76c0-1.2,1.6-1.6,2.64-1.6a2.53,2.53,0,0,1,2.48,2.4l-.08,1.2A320.1,320.1,0,0,1,269,238.46l-.16,1a7.4,7.4,0,0,1-.24.8c-1,5.76-3.28,19-12.16,19-10.16,0-11-10.88-11-17.84V240c0-.48.08-10.8.16-14.64C245.88,216.7,245.88,208.06,246.76,199.42Z"/><path class="cls-1" d="M278.84,251.1V235.26c0-11.44-1.12-18.8-1.12-30.24v-4.08c12.8-1,14.24-.16,14.24,1.6,0,.56-.4,1.76-1,2h-8.72c-.56,0-.56.4-.56.64,0,8.48.8,14.72,1.28,23.44,1.2.32,7.92.08,9.28.08,2.72.08,4.56,4.72.88,4.72H283l.16,18.72c1.92.48,12.08-1.52,12.08,2a1.93,1.93,0,0,1-1.52,2.08h-.4c-3,.24-14.32,1.12-14.4-1.2Z"/><path class="cls-1" d="M305.24,202.62c1.52-2.88,3.84-.32,4.64.8,4.8,13.76,8.08,27.76,13.92,42.08l.8-11.2c.88-10.08,1-18.8.88-28.88a3,3,0,0,1,3-2,2.36,2.36,0,0,1,2.24,1c-1.44,17.28-2.08,35.68-2.64,54.08l-.08,1c-.16.4-1.2,1.52-1.92,1.52a3.68,3.68,0,0,1-2.24-1.52c-5-15-10.56-29.6-15.36-44.64l-.56,45.6c-1.84,4.16-4.64,2-4.72-.4Z"/><path class="cls-1" d="M342.36,247.1c3.19,1,.15,8,4.16,10.32H347c4.48,0,5.75-6.16,5.75-9.44,0-4.4-.31-9.12-2.15-13.28-3.77-8.64-11.85-15.84-11.85-25.76,0-4.48,2.72-11.92,8.25-11.92,3.52,0,9.36,2.8,9.36,7,0,1.52-.48,2.4-2.08,2.4-3.12,0-2.16-4.8-6.57-4.8-4.08,0-4.39,5.68-4.39,8.48,0,8.08,6.8,13.76,10.39,20.48,3.29,6.16,5,15.12,3.05,21.2-1.28,4.16-4.88,9.84-9.76,9.84-5.92,0-7.76-7.36-7.76-12.16A2.72,2.72,0,0,1,342.36,247.1Z"/><path class="cls-1" d="M391.15,231.74c-.4-10.08-1.52-22.56-1.52-31.84,0-2,5.76-1.84,8.08-2,3,0,7-1.2,7,3,0,.32,0,1.2-11,1.2l1,15.68,7.28-.08c1.2,0,2.08,1.6,2.08,2.56,0,2.16-7,1.28-9.12,1.6l.24,4.64c.56,11.52.48,14.88.48,26.4a1.85,1.85,0,0,1-1.84,2c-.72,0-2-.24-2.32-1C391.63,249.26,391.31,236.22,391.15,231.74Z"/><path class="cls-1" d="M414.11,202.62c.48-7.36,5.28-5.44,6.64,0,2,8,3.52,15.28,12.24,57.68,0,1.76-2.4,3.12-3.84.56l-2.88-14.4-10.8,1.6c-.64,3.76-1.2,10.88-1.36,14.24-.16,1.92-3.6,1.44-3.52,0Zm1.52,37.28c-.08.56-.16,3.68-.16,4.32l10-1.44-7.84-35.6C417.31,212.06,415.87,234.94,415.63,239.9Z"/><path class="cls-1" d="M440.27,227.42c0-2.48-.4-17-.56-20.8,0-.8-.48-7.84-.56-8.72v-.32c0-1.84,2.08-2.32,3.68-2.32,11,0,15,7.92,15,17.12,0,7.36-2.8,11.84-7.92,15.52C459.07,232,461.31,245,461.31,254c0,1.44-.88,2-2.32,2-1,0-1.36,0-1.76-1.28-.4-6-1.92-23-11.2-23-.08,0-.64.08-.8.08-.88,9-.16,18.16-.72,27.28a2.58,2.58,0,0,1-4.24,0C440.35,254.3,440.35,232.22,440.27,227.42Zm4.4-1.92c5.68-1.12,8.8-7.36,8.8-12.4,0-4.24-1.76-13-7.52-13-.32,0-2.8,0-2.8.64Z"/><path class="cls-1" d="M465.23,202.14l-.08-.48c0-1.2,1.52-1.6,2.56-1.68,2.48,0,2.72,1.76,3.2,4.16,2.24,11.92,5,25.12,9.52,44.56l8.08-45.44a2.75,2.75,0,0,1,2.48-2.08c1.28,0,2.48.48,2.56,2.08l-9,45.84c-.4,1.28-2.16,11.68-3.68,11.68a.29.29,0,0,0-.24.08c-.8-.16-1.6,0-2.08-1.12C473.87,240.62,470.51,221.18,465.23,202.14Z"/><path class="cls-1" d="M502.67,251.1V235.26c0-11.44-1.12-18.8-1.12-30.24v-4.08c12.8-1,14.24-.16,14.24,1.6,0,.56-.4,1.76-1,2h-8.72c-.56,0-.56.4-.56.64,0,8.48.8,14.72,1.28,23.44,1.2.32,7.92.08,9.28.08,2.72.08,4.56,4.72.88,4.72H506.83l.16,18.72c1.92.48,12.08-1.52,12.08,2a1.93,1.93,0,0,1-1.52,2.08h-.4c-3,.24-14.32,1.12-14.4-1.2Z"/><path class="cls-1" d="M528.19,227.42c0-2.48-.4-17-.56-20.8,0-.8-.48-7.84-.56-8.72v-.32c0-1.84,2.08-2.32,3.68-2.32,11,0,15,7.92,15,17.12,0,7.36-2.8,11.84-7.92,15.52C547,232,549.23,245,549.23,254c0,1.44-.88,2-2.32,2-1,0-1.36,0-1.76-1.28-.4-6-1.92-23-11.2-23-.08,0-.64.08-.8.08-.88,9-.16,18.16-.72,27.28a2.58,2.58,0,0,1-4.24,0C528.27,254.3,528.27,232.22,528.19,227.42Zm4.4-1.92c5.68-1.12,8.8-7.36,8.8-12.4,0-4.24-1.76-13-7.52-13-.32,0-2.8,0-2.8.64Z"/><path class="cls-1" d="M584,250.94c3,.48,2.4,4.4,5.6,4.88,5.2.88,6.4-2.8,7.12-7.12,1.44-9-3-15.84-7.76-23.36-2.24-3.52-3.44-6.56-2.72-11,1.12-6.32,4.16-10.64,10.8-10.64a13.56,13.56,0,0,1,1.76.08c2.16.24,3.68.72,3.28,3-.72,3.92-9.2-2.72-11,8.48-.88,5.12,1.2,7.2,3.92,11.84,4.24,7.36,7.92,13.92,6.48,22.56-1.12,6.56-3.84,10.4-10.32,10.4a15.41,15.41,0,0,1-1.92-.08c-2.8-.48-7.68-3.2-7.68-6.48,0-.16.08-.4.08-.56A2.51,2.51,0,0,1,584,250.94Z"/><path class="cls-1" d="M615.87,225.26c0-6.16-.08-21.68-.16-21.76l-6.4-.24c-2.56-.72-3.52-3.2.4-4.16,6.24.16,12.32,0,18.8.48,3.6.32,3.36,4.32,1,4.32l-8.72-.16c-.08.08-.4,25.44-.56,35.76,0,3.28-.32,9.44-.32,13.28v1c-.64,2.4-3.92,1.68-4.48-.56C615.55,247.58,615.87,231,615.87,225.26Z"/><path class="cls-1" d="M643.15,184.94a5.9,5.9,0,0,1,6.08,6.16c0,3.52-1.36,6.72-4.4,7.68a9.16,9.16,0,0,1,2,3.84c2,8,3.52,15.28,12.24,57.68,0,1.76-2.4,3.12-3.84.56l-2.88-14.4-10.8,1.6c-.64,3.76-1.2,10.88-1.36,14.24-.16,1.92-3.6,1.44-3.52,0l3.52-59.68a7.88,7.88,0,0,1,.88-3.6c-3.12-.4-5.6-2.4-5.6-5.84C635.47,188.22,638,184.94,643.15,184.94Zm-1.6,10.88c2.8,0,4.4-1.84,4.4-4.56,0-1.52-.56-3.28-2.4-3.28a5,5,0,0,0-5,5.2C638.51,194.94,639.87,195.82,641.55,195.82Zm.16,44.08c-.08.56-.16,3.68-.16,4.32l10-1.44-7.84-35.6C643.39,212.06,642,234.94,641.71,239.9Z"/><path class="cls-1" d="M666.35,227.42c0-2.48-.4-17-.56-20.8,0-.8-.48-7.84-.56-8.72v-.32c0-1.84,2.08-2.32,3.68-2.32,11,0,15,7.92,15,17.12,0,7.36-2.8,11.84-7.92,15.52C685.15,232,687.39,245,687.39,254c0,1.44-.88,2-2.32,2-1,0-1.36,0-1.76-1.28-.4-6-1.92-23-11.2-23-.08,0-.64.08-.8.08-.88,9-.16,18.16-.72,27.28a2.58,2.58,0,0,1-4.24,0C666.43,254.3,666.43,232.22,666.35,227.42Zm4.4-1.92c5.68-1.12,8.8-7.36,8.8-12.4,0-4.24-1.76-13-7.52-13-.32,0-2.8,0-2.8.64Z"/><path class="cls-1" d="M153.88,298.46l3.52,48.8a39.85,39.85,0,0,1,.4,4.24c-.08,1.28-1.36,1.76-2.72,1.76-1.76,0-2.08-1.52-2.32-3l-2-35.12c-.4-5.76-1.28-11.52-1.12-17.28C149.72,295.82,153.72,296.54,153.88,298.46Z"/><path class="cls-1" d="M191.32,327.74c-.4-10.08-1.52-22.56-1.52-31.84,0-2,5.76-1.84,8.08-2,3,0,7-1.2,7,3,0,.32,0,1.2-11,1.2l1,15.68,7.28-.08c1.2,0,2.08,1.6,2.08,2.56,0,2.16-7,1.28-9.12,1.6l.24,4.64c.56,11.52.48,14.88.48,26.4a1.85,1.85,0,0,1-1.84,2c-.72,0-2-.24-2.32-1C191.8,345.26,191.48,332.22,191.32,327.74Z"/><path class="cls-1" d="M214.28,295.42a3.16,3.16,0,0,1,2-1c2.88,0,2.72,3,2.64,5.12v.48c-.16,8-1.12,15.84-1.28,23.84-.16,5.44-2.72,27.36,5.84,27.36,3.92,0,6.56-7.68,7.12-10.16a210.11,210.11,0,0,0,4.8-42.8v-1.76c0-1.2,1.6-1.6,2.64-1.6a2.53,2.53,0,0,1,2.48,2.4l-.08,1.2a320.1,320.1,0,0,1-3.92,35.92l-.16,1a7.4,7.4,0,0,1-.24.8c-1,5.76-3.28,19-12.16,19-10.16,0-11-10.88-11-17.84V336c0-.48.08-10.8.16-14.64C213.4,312.7,213.4,304.06,214.28,295.42Z"/><path class="cls-1" d="M250.12,293.66c1.28,0,2.32,1.6,2.64,2.8.64,18.08.56,36.4,2.16,54.56a42,42,0,0,1,9.6-1.68c1.44,0,2.72.4,2.72,2a2.1,2.1,0,0,1-1.6,2.32c-2.72,1-6.32.8-9.12,1.6-1,.24-2.16,1-3.44,1a3,3,0,0,1-2.48-2.16c-1-9.6-.56-19.92-1-29.36l-1-19.76V294.86C248.92,294,249.4,293.66,250.12,293.66Z"/><path class="cls-1" d="M280.36,294.62h.32c14.4.64,16.4,17.52,16.4,29.2,0,1.2-.08,2.4-.08,3.44-.4,15.2-4.72,27.44-18.32,27.44a17.22,17.22,0,0,1-3.44-.32s.08-9,.16-12.64c.24-10.24.64-19.92,1-30.32.08-1.36.24-13,.32-14.56l.08-.48C276.92,295,279.16,294.62,280.36,294.62Zm-.88,56.56a6.93,6.93,0,0,0,.88.08c10.16,0,11.84-17.12,12.16-23.68.4-7.52.08-27.52-11.2-28.48Z"/><path class="cls-1" d="M305.56,321.26c0-6.16-.08-21.68-.16-21.76l-6.4-.24c-2.56-.72-3.52-3.2.4-4.16,6.24.16,12.32,0,18.8.48,3.6.32,3.36,4.32,1,4.32l-8.72-.16c-.08.08-.4,25.44-.56,35.76,0,3.28-.32,9.44-.32,13.28v1c-.64,2.4-3.92,1.68-4.48-.56C305.24,343.58,305.56,327,305.56,321.26Z"/><path class="cls-1" d="M354.51,327.74c-.4-10.08-1.52-22.56-1.52-31.84,0-2,5.76-1.84,8.08-2,3,0,7-1.2,7,3,0,.32,0,1.2-11,1.2l1,15.68,7.28-.08c1.2,0,2.08,1.6,2.08,2.56,0,2.16-7,1.28-9.12,1.6l.24,4.64c.56,11.52.48,14.88.48,26.4a1.85,1.85,0,0,1-1.84,2c-.72,0-2-.24-2.32-1C355,345.26,354.67,332.22,354.51,327.74Z"/><path class="cls-1" d="M377.71,293.66c1.28,0,2.32,1.6,2.64,2.8.64,18.08.56,36.4,2.16,54.56a42,42,0,0,1,9.6-1.68c1.44,0,2.72.4,2.72,2a2.1,2.1,0,0,1-1.6,2.32c-2.72,1-6.32.8-9.12,1.6-1,.24-2.16,1-3.44,1a3,3,0,0,1-2.48-2.16c-1-9.6-.56-19.92-1-29.36l-1-19.76V294.86C376.51,294,377,293.66,377.71,293.66Z"/><path class="cls-1" d="M406.75,296c17.76,0,20.16,56.88,2.56,58.4-.32,0-.64.08-1,.08-6.72,0-10.4-4-12.32-11.36C395,338.3,386.67,296,406.75,296Zm-6.88,43.44c.64,2.64,3.28,10.24,7.28,10.64a3.8,3.8,0,0,0,1,0c5.36-.48,7.12-9.84,7.84-13.6,1.28-6.4,2.32-36.08-9-36.08h-.64C394.19,301.5,398.35,333.58,399.87,339.42Z"/><path class="cls-1" d="M426.75,323.42c0-2.48-.4-17-.56-20.8,0-.8-.48-7.84-.56-8.72v-.32c0-1.84,2.08-2.32,3.68-2.32,11,0,15,7.92,15,17.12,0,7.36-2.8,11.84-7.92,15.52C445.55,328,447.79,341,447.79,350c0,1.44-.88,2-2.32,2-1,0-1.36,0-1.76-1.28-.4-6-1.92-23-11.2-23-.08,0-.64.08-.8.08-.88,9-.16,18.16-.72,27.28a2.58,2.58,0,0,1-4.24,0C426.83,350.3,426.83,328.22,426.75,323.42Zm4.4-1.92c5.68-1.12,8.8-7.36,8.8-12.4,0-4.24-1.76-13-7.52-13-.32,0-2.8,0-2.8.64Z"/><path class="cls-1" d="M456.35,351.58A3.63,3.63,0,0,1,460,355.5c0,1.76-1.68,2-3.21,2-2,0-3.12-1.28-3.12-3.52C453.63,352.94,455.39,351.58,456.35,351.58Z"/><path class="cls-1" d="M508.59,333.9a31.62,31.62,0,0,0-11.52-.4v20.72c0,.72-1.52,1.12-2,1.12a2.08,2.08,0,0,1-2.16-1.6l-1-56.88c0-1.68.24-3,2.08-3,.4,0,2.88.4,2.88,1.12L497,329.1c3,.4,9.36.24,11.92.56V326.3c0-11-.64-20.4-.64-29.92,0-1,.16-2.56,1.36-2.56s3,.56,3.12,2.08l1,57.44a2.6,2.6,0,0,1-2.72,2.48h-.4c-.56-.08-1.44-1.6-1.6-2.08A164.7,164.7,0,0,0,508.59,333.9Z"/><path class="cls-1" d="M523.15,295.42a3.16,3.16,0,0,1,2-1c2.88,0,2.72,3,2.64,5.12v.48c-.16,8-1.12,15.84-1.28,23.84-.16,5.44-2.72,27.36,5.84,27.36,3.92,0,6.56-7.68,7.12-10.16a210.11,210.11,0,0,0,4.8-42.8v-1.76c0-1.2,1.6-1.6,2.64-1.6a2.53,2.53,0,0,1,2.48,2.4l-.08,1.2a320.1,320.1,0,0,1-3.92,35.92l-.16,1a7.4,7.4,0,0,1-.24.8c-1,5.76-3.28,19-12.16,19-10.16,0-11-10.88-11-17.84V336c0-.48.08-10.8.16-14.64C522.27,312.7,522.27,304.06,523.15,295.42Z"/><path class="cls-1" d="M558.51,323.42c0-2.48-.4-17-.56-20.8,0-.8-.48-7.84-.56-8.72v-.32c0-1.84,2.08-2.32,3.68-2.32,11,0,15,7.92,15,17.12,0,7.36-2.8,11.84-7.92,15.52C577.31,328,579.55,341,579.55,350c0,1.44-.88,2-2.32,2-1,0-1.36,0-1.76-1.28-.4-6-1.92-23-11.2-23-.08,0-.64.08-.8.08-.88,9-.16,18.16-.72,27.28a2.58,2.58,0,0,1-4.24,0C558.59,350.3,558.59,328.22,558.51,323.42Zm4.4-1.92c5.68-1.12,8.8-7.36,8.8-12.4,0-4.24-1.76-13-7.52-13-.32,0-2.8,0-2.8.64Z"/><path class="cls-1" d="M585.23,323.42c0-2.48-.4-17-.56-20.8,0-.8-.48-7.84-.56-8.72v-.32c0-1.84,2.08-2.32,3.68-2.32,11,0,15,7.92,15,17.12,0,7.36-2.8,11.84-7.92,15.52C604,328,606.27,341,606.27,350c0,1.44-.88,2-2.32,2-1,0-1.36,0-1.76-1.28-.4-6-1.92-23-11.2-23-.08,0-.64.08-.8.08-.88,9-.16,18.16-.72,27.28a2.58,2.58,0,0,1-4.24,0C585.31,350.3,585.31,328.22,585.23,323.42Zm4.4-1.92c5.68-1.12,8.8-7.36,8.8-12.4,0-4.24-1.76-13-7.52-13-.32,0-2.8,0-2.8.64Z"/><path class="cls-1" d="M618.19,298.62c.48-7.36,5.28-5.44,6.64,0,2,8,3.52,15.28,12.24,57.68,0,1.76-2.4,3.12-3.84.56l-2.88-14.4-10.8,1.6c-.64,3.76-1.2,10.88-1.36,14.24-.16,1.92-3.6,1.44-3.52,0Zm1.52,37.28c-.08.56-.16,3.68-.16,4.32l10-1.44-7.84-35.6C621.39,308.06,620,330.94,619.71,335.9Z"/><path class="cls-1" d="M643.47,293.74c1.12,0,2.48.16,2.72,1.6.08,1.2.48,6.88.48,8.08,0,16.56,1.76,26.08,1.76,42.72,0,1.12,0,2.48-1.52,2.48-2.56,0-2.64-3.12-2.72-5v-.4c-1.12-18.32-.8-29.6-2.8-47.84C641.87,294.14,642.19,293.74,643.47,293.74Zm2.72,58.8a3.62,3.62,0,0,1,3.6,3.92c0,1.76-1.68,2-3.2,2-2,0-3.12-1.28-3.12-3.52C643.47,353.9,645.23,352.54,646.19,352.54Z"/></svg>
